<svg xmlns="http://www.w3.org/2000/svg" viewBox="0 0 362.41 337.87"><defs><style>.cls-1{fill:#d4edff;}.cls-2{fill:#8e6daa;}.cls-3{fill:#d1adf7;}.cls-4{fill:#59d6b8;}.cls-5{fill:#70f9d5;}.cls-6{fill:#f95b5e;}.cls-7{fill:#e24b53;}.cls-11,.cls-8{fill:none;stroke-linecap:round;stroke-linejoin:round;}.cls-8{stroke:#872126;stroke-width:1.98px;}.cls-9{fill:#872126;}.cls-10{fill:#f96e75;}.cls-11{stroke:#000;stroke-width:2.83px;}.cls-12{fill:#fff;}</style></defs><title>favorites</title><g id="Capa_2" data-name="Capa 2"><g id="Background"><path class="cls-1" d="M57.77,20.6c-4.32,4.62-8.05,9.94-9.87,16a27.24,27.24,0,0,0,1.58,20A23.41,23.41,0,0,0,65.18,68.9a30.69,30.69,0,0,0,9.23.3c21.28-2.07,40.12-17.36,48.91-36.86A33.68,33.68,0,0,0,126.77,19c0-4.61-1.51-9.4-4.93-12.51a20.51,20.51,0,0,0-6.37-3.66C94.61-5.3,72.28,5.08,57.77,20.6Z"/><path class="cls-1" d="M228.43,10.45c-23-14.61-56-10.9-75.2,8.46-7.8,7.87-13.29,17.73-20.67,26C122.35,56.35,108.94,64.33,96,72.58,65.6,92,36.06,114.77,17.44,145.7S-7,217.3,10.54,248.84c7.07,12.67,17.44,23.21,28.65,32.43,16.88,13.87,36,25.12,56.68,32.2,27,9.25,55.87,11.22,84.35,13.1,25.68,1.7,51.58,3.4,77.07-.14S308.17,313.7,327,296.16c30.81-28.7,39.09-75,34-116.79-2.53-20.84-8.15-42.18-21.29-59-11.22-14.36-24.64-19-39.6-27.64C267.28,73.75,260.14,30.58,228.43,10.45Z"/></g><g id="Objects"><path class="cls-2" d="M48.61,299.12c-.46-2.63-2.12-5.79-4.77-5.41-1.86.27-3,2.23-3.57,4a30.05,30.05,0,0,0-1.63,12.15,32,32,0,0,0-3.59-15.54c-.79-1.52-1.93-3.13-3.63-3.36s-3.44,1.27-4,3a11.82,11.82,0,0,0-.05,5.36C26.79,289,25,277.4,16.77,271.11A10.46,10.46,0,0,0,11,268.73a5.48,5.48,0,0,0-5.21,2.83,7.31,7.31,0,0,0-.51,3.35c.26,9.56,5.92,18.08,12,25.49a12.41,12.41,0,0,0-4.68-1.57A4.21,4.21,0,0,0,8.44,301c-.83,1.87.37,4.06,1.91,5.4s3.47,2.26,4.8,3.82c-2.89-.81-6.72-1.27-8.22,1.34a5.81,5.81,0,0,0-.36,3.89,20.06,20.06,0,0,0,15.57,15.93C39.76,334.78,51.25,314.29,48.61,299.12Z"/><path class="cls-3" d="M32.93,328.49h0a.2.2,0,0,0,.14-.23C33,327.83,22.54,284.86,9,271.9a.19.19,0,0,0-.27,0,.18.18,0,0,0,0,.26c13.5,12.89,24,55.75,24.05,56.18A.18.18,0,0,0,32.93,328.49Z"/><path class="cls-3" d="M31.89,324.47a.19.19,0,0,0,.12,0,32.19,32.19,0,0,0,12.82-25.81.19.19,0,0,0-.2-.18.2.2,0,0,0-.18.2,31.79,31.79,0,0,1-12.67,25.49.19.19,0,0,0,.11.34Z"/><path class="cls-3" d="M28.9,314.11a.19.19,0,0,0,.18-.11c3.87-8.18,2.23-20.26,2.22-20.38a.19.19,0,0,0-.38.06c0,.12,1.64,12.08-2.18,20.16a.18.18,0,0,0,.09.25Z"/><path class="cls-3" d="M31.06,326.48c.85,0,1.35,0,1.38,0a.19.19,0,1,0,0-.38c-.15,0-15.34.68-22.45-12.35a.19.19,0,0,0-.26-.07.18.18,0,0,0-.07.25C15.59,324.85,27.1,326.31,31.06,326.48Z"/><path class="cls-3" d="M27.08,308.4a.19.19,0,0,0,0-.38c-.09,0-9.06-.75-15-6.39a.2.2,0,0,0-.27,0,.19.19,0,0,0,0,.27c6.08,5.73,15.18,6.48,15.27,6.49Z"/><path class="cls-3" d="M19.55,289a.19.19,0,0,0,.2-.16c0-.07.75-6.83-2.22-12.56a.2.2,0,0,0-.26-.08.19.19,0,0,0-.08.25c2.92,5.63,2.19,12.28,2.18,12.34a.19.19,0,0,0,.17.21Z"/><path class="cls-3" d="M15.62,281.38a.19.19,0,0,0,.08-.37c-.07,0-6.54-2.38-8.35-4.77a.19.19,0,0,0-.27,0,.19.19,0,0,0,0,.27c1.88,2.48,8.25,4.8,8.52,4.9Z"/><path class="cls-3" d="M21.77,295.92a2.7,2.7,0,0,0,.79-.06.19.19,0,0,0,.14-.23.19.19,0,0,0-.23-.13s-2.87.67-6.74-3.61a.18.18,0,0,0-.26,0,.19.19,0,0,0,0,.27C18.3,295.3,20.61,295.87,21.77,295.92Z"/><path class="cls-3" d="M31.37,306.35c.76,0,2.6-.29,3.92-3.78a.18.18,0,0,0-.11-.24.18.18,0,0,0-.24.11c-1.54,4.07-3.73,3.52-3.82,3.5a.19.19,0,1,0-.1.36A1.41,1.41,0,0,0,31.37,306.35Z"/><path class="cls-3" d="M40.41,314.9h0c.13,0,3.26-.11,5.39-4.06a.19.19,0,0,0-.08-.26.2.2,0,0,0-.26.08c-2,3.76-5,3.86-5.06,3.86a.19.19,0,0,0-.18.2A.18.18,0,0,0,40.41,314.9Z"/><path class="cls-3" d="M36.93,319.8a.19.19,0,0,0,.12,0,.19.19,0,0,0,0-.26s-1.68-2.5.06-8.73a.2.2,0,0,0-.13-.24.2.2,0,0,0-.23.14c-1.8,6.43-.08,8.94,0,9.05A.22.22,0,0,0,36.93,319.8Z"/><path class="cls-3" d="M24.48,325.44h.05a.19.19,0,0,0,.15-.22c-.08-.38-2-9.28-6.2-11.49a.18.18,0,0,0-.25.07.19.19,0,0,0,.08.26c4,2.14,6,11.15,6,11.24A.19.19,0,0,0,24.48,325.44Z"/><path class="cls-3" d="M15.13,323.68a2.48,2.48,0,0,0,.87-.12A2.29,2.29,0,0,0,17.38,322a.19.19,0,1,0-.36-.09,2,2,0,0,1-1.15,1.28c-.93.33-2.28-.16-3.89-1.41a.2.2,0,0,0-.27,0,.19.19,0,0,0,0,.26A6.43,6.43,0,0,0,15.13,323.68Z"/><path class="cls-4" d="M73.56,292.89c-.43-3.33-2.36-7.39-5.69-7-2.36.24-3.82,2.63-4.7,4.83a37.63,37.63,0,0,0-2.69,15.16,40.27,40.27,0,0,0-3.68-19.7c-.92-1.95-2.26-4-4.38-4.4s-4.39,1.41-5.18,3.53-.59,4.48-.35,6.73c-.18-13-1.78-27.62-11.8-36A13.12,13.12,0,0,0,28,252.75,6.89,6.89,0,0,0,21.34,256a9.17,9.17,0,0,0-.82,4.18c-.19,12,6.47,23,13.65,32.63a15.54,15.54,0,0,0-5.8-2.23c-2.07-.21-4.4.62-5.32,2.48-1.15,2.31.24,5.11,2.11,6.88s4.24,3,5.82,5c-3.59-1.17-8.37-1.95-10.38,1.24a7.36,7.36,0,0,0-.67,4.86A25.24,25.24,0,0,0,38.63,332C60.56,337.17,76.07,312.06,73.56,292.89Z"/><path class="cls-5" d="M52.32,328.92h.06a.23.23,0,0,0,.19-.27c-.11-.55-11-55-27.32-72a.25.25,0,0,0-.34,0,.24.24,0,0,0,0,.33c16.25,16.89,27.09,71.23,27.2,71.78A.24.24,0,0,0,52.32,328.92Z"/><path class="cls-5" d="M51.23,323.81a.2.2,0,0,0,.15,0c17.64-12,17.47-31.52,17.46-31.71a.24.24,0,1,0-.47,0c0,.19.16,19.43-17.25,31.31a.24.24,0,0,0-.07.33A.22.22,0,0,0,51.23,323.81Z"/><path class="cls-5" d="M48,310.65a.24.24,0,0,0,.23-.12c5.3-10.06,3.88-25.31,3.86-25.46a.22.22,0,0,0-.25-.21.24.24,0,0,0-.22.26c0,.15,1.42,15.25-3.81,25.19a.25.25,0,0,0,.1.32Z"/><path class="cls-5" d="M50.08,326.29c1.07.09,1.7.09,1.73.09a.24.24,0,0,0,0-.48c-.19,0-19.29,0-27.52-16.69a.26.26,0,0,0-.32-.11.25.25,0,0,0-.11.32C30.75,323.42,45.12,325.87,50.08,326.29Z"/><path class="cls-5" d="M46,303.39a.24.24,0,0,0,.26-.21.24.24,0,0,0-.21-.26c-.11,0-11.32-1.42-18.53-8.82a.25.25,0,0,0-.34,0,.24.24,0,0,0,0,.33c7.33,7.52,18.7,8.95,18.82,9Z"/><path class="cls-5" d="M37.63,278.67a.23.23,0,0,0,.26-.2c0-.08,1.3-8.53-2.13-15.87a.23.23,0,0,0-.31-.12.25.25,0,0,0-.12.32c3.36,7.21,2.1,15.52,2.09,15.6a.24.24,0,0,0,.2.27Z"/><path class="cls-5" d="M33.11,268.87a.24.24,0,0,0,.24-.15.24.24,0,0,0-.13-.31c-.08,0-8.07-3.33-10.23-6.43a.23.23,0,0,0-.33-.06.24.24,0,0,0-.06.33c2.23,3.21,10.1,6.47,10.44,6.6Z"/><path class="cls-5" d="M40,287.45a3.74,3.74,0,0,0,1,0,.25.25,0,0,0,.18-.28.26.26,0,0,0-.29-.19s-3.63.7-8.25-4.88a.24.24,0,0,0-.34,0,.25.25,0,0,0,0,.34C35.73,286.49,38.6,287.33,40,287.45Z"/><path class="cls-5" d="M51.54,301.05c1,.08,3.28-.23,5.13-4.54a.24.24,0,0,0-.13-.31.23.23,0,0,0-.31.13c-2.15,5-4.87,4.22-5,4.19a.23.23,0,0,0-.3.15.24.24,0,0,0,.16.3A1.68,1.68,0,0,0,51.54,301.05Z"/><path class="cls-5" d="M62.43,312.26h0c.16,0,4.09,0,7-4.82a.23.23,0,0,0-.08-.32.24.24,0,0,0-.33.08c-2.73,4.61-6.51,4.58-6.55,4.58a.25.25,0,0,0-.25.24A.25.25,0,0,0,62.43,312.26Z"/><path class="cls-5" d="M57.81,318.22a.23.23,0,0,0,.14,0,.24.24,0,0,0,.08-.33s-2-3.22.53-11a.24.24,0,0,0-.15-.3.24.24,0,0,0-.3.15c-2.59,8-.57,11.23-.48,11.36A.25.25,0,0,0,57.81,318.22Z"/><path class="cls-5" d="M41.88,324.64h.06a.24.24,0,0,0,.2-.27c-.08-.48-2-11.75-7.16-14.75a.24.24,0,0,0-.33.08.25.25,0,0,0,.09.33c4.94,2.89,6.91,14.3,6.93,14.42A.24.24,0,0,0,41.88,324.64Z"/><path class="cls-5" d="M30.24,321.93a3.06,3.06,0,0,0,1.1-.1A2.94,2.94,0,0,0,33.16,320a.24.24,0,0,0-.16-.29.24.24,0,0,0-.3.16,2.46,2.46,0,0,1-1.51,1.55c-1.18.36-2.85-.32-4.81-2a.23.23,0,0,0-.3.36A8.1,8.1,0,0,0,30.24,321.93Z"/><path class="cls-2" d="M293,304.34c.46-2.63,2.13-5.79,4.77-5.41,1.87.27,3,2.22,3.58,4A30.41,30.41,0,0,1,303,315.08a31.8,31.8,0,0,1,3.59-15.54c.79-1.52,1.93-3.13,3.63-3.36s3.44,1.27,4,3a11.69,11.69,0,0,1,.05,5.36c.58-10.36,2.35-21.91,10.6-28.2a10.43,10.43,0,0,1,5.72-2.38,5.49,5.49,0,0,1,5.22,2.83,7.45,7.45,0,0,1,.51,3.35c-.26,9.56-5.93,18.07-12,25.49a12.47,12.47,0,0,1,4.68-1.57,4.24,4.24,0,0,1,4.16,2.15c.83,1.87-.37,4.06-1.92,5.4s-3.47,2.26-4.79,3.82c2.89-.81,6.72-1.27,8.21,1.34a5.88,5.88,0,0,1,.37,3.89,20.09,20.09,0,0,1-15.58,15.93C301.85,340,290.37,319.51,293,304.34Z"/><path class="cls-3" d="M308.69,333.71h-.05a.18.18,0,0,1-.14-.23c.1-.43,10.57-43.4,24.15-56.36a.19.19,0,0,1,.27,0,.18.18,0,0,1,0,.26c-13.5,12.89-23.94,55.75-24.05,56.18A.18.18,0,0,1,308.69,333.71Z"/><path class="cls-3" d="M309.73,329.69a.16.16,0,0,1-.12,0,32.22,32.22,0,0,1-12.83-25.81.19.19,0,0,1,.21-.18.19.19,0,0,1,.17.2,31.82,31.82,0,0,0,12.67,25.49.18.18,0,0,1,0,.26A.19.19,0,0,1,309.73,329.69Z"/><path class="cls-3" d="M312.71,319.33a.21.21,0,0,1-.18-.11c-3.87-8.18-2.23-20.26-2.21-20.38a.18.18,0,0,1,.21-.16.19.19,0,0,1,.16.22c0,.12-1.64,12.08,2.18,20.16a.18.18,0,0,1-.09.25Z"/><path class="cls-3" d="M310.55,331.7c-.85,0-1.35,0-1.37,0a.19.19,0,0,1-.18-.2.18.18,0,0,1,.2-.18c.15,0,15.34.68,22.44-12.35a.2.2,0,0,1,.26-.07.19.19,0,0,1,.08.25C326,330.07,314.52,331.53,310.55,331.7Z"/><path class="cls-3" d="M314.54,313.62a.2.2,0,0,1-.2-.18.19.19,0,0,1,.18-.2c.09,0,9.05-.75,15-6.39a.19.19,0,0,1,.26,0,.2.2,0,0,1,0,.27c-6.09,5.73-15.18,6.48-15.28,6.49Z"/><path class="cls-3" d="M322.06,294.24a.19.19,0,0,1-.2-.17c0-.06-.74-6.82,2.23-12.55a.19.19,0,0,1,.25-.08.18.18,0,0,1,.08.25c-2.91,5.63-2.19,12.28-2.18,12.34a.19.19,0,0,1-.17.21Z"/><path class="cls-3" d="M326,286.6a.19.19,0,0,1-.07-.37c.06,0,6.53-2.38,8.35-4.77a.19.19,0,1,1,.3.22c-1.88,2.49-8.25,4.81-8.52,4.91Z"/><path class="cls-3" d="M319.85,301.14a2.86,2.86,0,0,1-.8-.06.19.19,0,1,1,.1-.36s2.87.67,6.73-3.61a.19.19,0,0,1,.27,0,.2.2,0,0,1,0,.27C323.31,300.52,321,301.09,319.85,301.14Z"/><path class="cls-3" d="M310.24,311.57c-.76,0-2.6-.29-3.92-3.78a.19.19,0,1,1,.35-.13c1.55,4.07,3.73,3.52,3.82,3.5a.18.18,0,0,1,.23.13.19.19,0,0,1-.13.23A1.31,1.31,0,0,1,310.24,311.57Z"/><path class="cls-3" d="M301.2,320.12h0c-.13,0-3.26-.11-5.38-4.06a.19.19,0,0,1,.07-.26.2.2,0,0,1,.26.08c2,3.76,5,3.86,5.06,3.86a.19.19,0,0,1,0,.38Z"/><path class="cls-3" d="M304.68,325a.15.15,0,0,1-.11,0,.18.18,0,0,1-.05-.26s1.68-2.5-.06-8.73a.2.2,0,0,1,.13-.24.21.21,0,0,1,.24.14c1.79,6.43.07,8.94,0,9.05A.22.22,0,0,1,304.68,325Z"/><path class="cls-3" d="M317.13,330.66h-.05a.18.18,0,0,1-.14-.22c.08-.38,2-9.28,6.19-11.49a.19.19,0,1,1,.18.33c-4,2.14-6,11.15-6,11.24A.2.2,0,0,1,317.13,330.66Z"/><path class="cls-3" d="M326.48,328.9a2.39,2.39,0,0,1-.86-.12,2.31,2.31,0,0,1-1.39-1.55.19.19,0,0,1,.14-.23.19.19,0,0,1,.23.14,2,2,0,0,0,1.14,1.28c.94.33,2.28-.16,3.9-1.41a.19.19,0,0,1,.26,0,.18.18,0,0,1,0,.26A6.4,6.4,0,0,1,326.48,328.9Z"/><path class="cls-4" d="M268.05,298.11c.43-3.33,2.36-7.39,5.7-7,2.35.24,3.82,2.63,4.7,4.83a38,38,0,0,1,2.69,15.16,40,40,0,0,1,3.68-19.7c.91-1.95,2.25-4,4.37-4.4s4.39,1.41,5.19,3.53.58,4.48.35,6.73c.17-13,1.78-27.62,11.8-36a13.09,13.09,0,0,1,7.05-3.29,6.9,6.9,0,0,1,6.7,3.28,9.44,9.44,0,0,1,.82,4.18c.18,12-6.48,23-13.65,32.63a15.39,15.39,0,0,1,5.79-2.23c2.08-.21,4.4.62,5.33,2.48,1.14,2.31-.25,5.11-2.12,6.88s-4.24,3-5.81,5.05c3.58-1.17,8.36-1.95,10.37,1.24a7.3,7.3,0,0,1,.67,4.86A25.23,25.23,0,0,1,303,337.17C281.05,342.39,265.55,317.28,268.05,298.11Z"/><path class="cls-5" d="M289.3,334.14h-.07a.24.24,0,0,1-.19-.27c.11-.55,11-55,27.32-72a.25.25,0,0,1,.34,0,.24.24,0,0,1,0,.33c-16.26,16.89-27.09,71.23-27.2,71.78A.24.24,0,0,1,289.3,334.14Z"/><path class="cls-5" d="M290.38,329a.21.21,0,0,1-.15,0c-17.63-12-17.46-31.52-17.46-31.71A.24.24,0,0,1,273,297a.25.25,0,0,1,.24.24A39.9,39.9,0,0,0,290.5,328.6a.24.24,0,0,1,.06.33A.22.22,0,0,1,290.38,329Z"/><path class="cls-5" d="M293.58,315.87a.25.25,0,0,1-.23-.12c-5.29-10.06-3.88-25.31-3.86-25.46a.22.22,0,0,1,.26-.21.24.24,0,0,1,.21.26c0,.15-1.42,15.25,3.81,25.19a.24.24,0,0,1-.1.32Z"/><path class="cls-5" d="M291.53,331.51c-1.06.09-1.69.09-1.73.09a.23.23,0,0,1-.23-.24.24.24,0,0,1,.24-.24c.19,0,19.29,0,27.51-16.69a.26.26,0,0,1,.32-.11.24.24,0,0,1,.11.32C310.86,328.64,296.49,331.09,291.53,331.51Z"/><path class="cls-5" d="M295.57,308.61a.23.23,0,0,1-.25-.21.22.22,0,0,1,.2-.26c.12,0,11.33-1.42,18.54-8.82a.24.24,0,0,1,.33,0,.23.23,0,0,1,0,.33c-7.33,7.52-18.71,9-18.82,9Z"/><path class="cls-5" d="M304,283.89a.23.23,0,0,1-.25-.2c0-.08-1.3-8.53,2.12-15.87a.24.24,0,1,1,.43.2c-3.36,7.21-2.1,15.52-2.08,15.6a.24.24,0,0,1-.2.27Z"/><path class="cls-5" d="M308.51,274.09a.24.24,0,0,1-.24-.15.24.24,0,0,1,.13-.31c.08,0,8.07-3.33,10.22-6.43a.24.24,0,1,1,.39.27c-2.23,3.21-10.1,6.47-10.43,6.6Z"/><path class="cls-5" d="M301.57,292.67a3.61,3.61,0,0,1-1,0,.24.24,0,0,1-.18-.28.25.25,0,0,1,.28-.19s3.63.7,8.26-4.88a.23.23,0,0,1,.33,0,.24.24,0,0,1,0,.34C305.88,291.71,303,292.55,301.57,292.67Z"/><path class="cls-5" d="M290.07,306.27c-.95.08-3.27-.23-5.12-4.54a.24.24,0,0,1,.43-.19c2.16,5,4.87,4.23,5,4.2a.23.23,0,0,1,.3.15.24.24,0,0,1-.15.3A2,2,0,0,1,290.07,306.27Z"/><path class="cls-5" d="M279.18,317.48h0c-.17,0-4.1,0-7-4.82a.23.23,0,0,1,.09-.32.23.23,0,0,1,.32.08c2.74,4.61,6.52,4.58,6.56,4.58a.24.24,0,0,1,.24.24A.24.24,0,0,1,279.18,317.48Z"/><path class="cls-5" d="M283.81,323.44a.28.28,0,0,1-.15,0,.24.24,0,0,1-.07-.33s2-3.22-.54-10.95a.24.24,0,1,1,.45-.15c2.6,8,.57,11.23.49,11.36A.27.27,0,0,1,283.81,323.44Z"/><path class="cls-5" d="M299.73,329.86h-.06a.22.22,0,0,1-.19-.27c.08-.48,2-11.75,7.16-14.75a.23.23,0,0,1,.32.08.24.24,0,0,1-.08.33c-4.94,2.89-6.92,14.3-6.94,14.42A.22.22,0,0,1,299.73,329.86Z"/><path class="cls-5" d="M311.37,327.15a3,3,0,0,1-1.09-.1,2.88,2.88,0,0,1-1.82-1.88.23.23,0,0,1,.16-.29.23.23,0,0,1,.29.16,2.49,2.49,0,0,0,1.51,1.55c1.19.36,2.85-.32,4.81-2a.24.24,0,0,1,.34,0,.24.24,0,0,1,0,.33A8.12,8.12,0,0,1,311.37,327.15Z"/><path class="cls-1" d="M235.83,333.71c0,2.06-20.29,3.73-45.33,3.73s-45.34-1.67-45.34-3.73S165.46,330,190.5,330,235.83,331.65,235.83,333.71Z"/><path class="cls-6" d="M285.82,185.22c-34.28-49.92-86.88-11.5-86.88-11.5s-49.67-42.14-87.49,5.15,25.8,120.55,82.79,124C251.32,303.57,320.11,235.15,285.82,185.22Z"/><path class="cls-7" d="M194.24,302.88c57.08.69,125.87-67.73,91.58-117.66-.81-1.18-1.63-2.29-2.46-3.38a87.11,87.11,0,0,1-1.49,28.63c-6,26.62-24.55,49.89-48.7,62.59S179.82,288,153.68,280.2A167.3,167.3,0,0,1,128,269.78C146.18,288.19,170.77,301.45,194.24,302.88Z"/><path class="cls-7" d="M198.94,173.72s-28-23.77-58-15.57a119.76,119.76,0,0,1,45.52,25.3C189.94,178.72,198.94,173.72,198.94,173.72Z"/><path class="cls-8" d="M160.31,203s25,17.31,58.17,3.39"/><path class="cls-9" d="M219.91,196.56a15,15,0,0,1,3-5.67,8.4,8.4,0,0,1,2.77-2.16,5.13,5.13,0,0,1,3.89-.18,7.17,7.17,0,0,1,2.93,2.19,13.73,13.73,0,0,1,1.75,2.82,22.59,22.59,0,0,1,1.84,6.07.32.32,0,0,1-.59.21h0c-1-1.81-1.95-3.62-3-5.27s-2.33-3.2-3.74-3.69a2.75,2.75,0,0,0-2.12.07,7.24,7.24,0,0,0-2.21,1.43,31.77,31.77,0,0,0-3.92,4.48v0a.36.36,0,0,1-.49.07A.35.35,0,0,1,219.91,196.56Z"/><path class="cls-9" d="M164.65,193.16a32.76,32.76,0,0,0-3.32-4.94,7.42,7.42,0,0,0-2-1.69,2.83,2.83,0,0,0-2.1-.34c-1.46.31-2.92,1.72-4.17,3.19s-2.42,3.19-3.66,4.86h0a.31.31,0,0,1-.55-.27,22.36,22.36,0,0,1,2.58-5.79,13.73,13.73,0,0,1,2.09-2.59,7.26,7.26,0,0,1,3.18-1.8,5.07,5.07,0,0,1,3.84.67,8.37,8.37,0,0,1,2.48,2.48,14.93,14.93,0,0,1,2.3,6,.34.34,0,0,1-.28.4.36.36,0,0,1-.36-.17Z"/><path class="cls-10" d="M140.53,166a38.68,38.68,0,0,0-12.71,4.12c-4.13,2-8.29,4.47-10.63,8.41-1.18,2-1.73,4.76-.11,6.4a5.2,5.2,0,0,0,3.47,1.3c6.94.44,12.86-4.72,19.51-6.76a35.36,35.36,0,0,1,12.39-1.06c3.35.19,6.79,0,8.3-3.49a4,4,0,0,0-1.56-5.29C154.52,166.4,145.94,165.42,140.53,166Z"/><path class="cls-10" d="M235.48,166.69c-2.84,3.46-2.85,9.19.53,12.13a13.74,13.74,0,0,0,3.67,2.09c5.5,2.36,11.7,4,17.44,2.32a10.14,10.14,0,0,0,3.29-1.59,8.91,8.91,0,0,0,2.82-9.2,13.09,13.09,0,0,0-6.26-7.7C250.92,161.24,240.33,160.76,235.48,166.69Z"/><path class="cls-10" d="M217.42,170.89a3.74,3.74,0,0,0,0,2.81c.61,1.27,2.15,1.75,3.54,2a9.56,9.56,0,0,0,3.11.09,4.48,4.48,0,0,0,2.69-1.45,4.93,4.93,0,0,0,1-2.34,4.54,4.54,0,0,0-.33-3c-1.14-2.05-3.84-2.11-5.88-1.92S218,169,217.42,170.89Z"/><path class="cls-11" d="M170,290.72s-11.24,15.12-5,41.84"/><path d="M158.91,330a5.33,5.33,0,0,0-2.83.34,3.93,3.93,0,0,0-1.36,1.17,2.17,2.17,0,0,0-.51,1.22,1.94,1.94,0,0,0,1.09,1.65,5.46,5.46,0,0,0,2,.5,23.89,23.89,0,0,0,8.56-.23c.67-.18,1.61-.7,1.09-1.49a6.45,6.45,0,0,0-2.26-1.45A15.46,15.46,0,0,0,158.91,330Z"/><path class="cls-11" d="M213.07,290.72s11.23,15.12,5,41.84"/><path d="M224.11,330a5.3,5.3,0,0,1,2.82.34,3.88,3.88,0,0,1,1.37,1.17,2.25,2.25,0,0,1,.51,1.22,1.94,1.94,0,0,1-1.09,1.65,5.51,5.51,0,0,1-2,.5,23.83,23.83,0,0,1-8.55-.23c-.68-.18-1.61-.7-1.1-1.49a6.4,6.4,0,0,1,2.27-1.45A15.4,15.4,0,0,1,224.11,330Z"/><path class="cls-11" d="M281.41,238s46.77,7,40.72-39.32"/><path class="cls-11" d="M324.79,193.08a2.17,2.17,0,0,0-2.92-1.62,2.71,2.71,0,0,0-2,3.23s.39,4.61,5.38,2.15"/><path class="cls-11" d="M320.19,192.64s-1.24-5-3.54-6.32"/><path class="cls-11" d="M321.87,191.46s1.08-2.38-1.07-5.84"/><path class="cls-12" d="M66.53,181.08c3.52,0,3.53-5.46,0-5.46s-3.52,5.46,0,5.46Z"/><path class="cls-2" d="M133.18,59c3.52,0,3.52-5.47,0-5.47s-3.52,5.47,0,5.47Z"/><path class="cls-2" d="M267.79,145.59a1.37,1.37,0,0,0,0-2.74,1.37,1.37,0,0,0,0,2.74Z"/><path class="cls-2" d="M138.63,148.32a1.37,1.37,0,0,0,0-2.73,1.37,1.37,0,0,0,0,2.73Z"/><path class="cls-2" d="M50.06,202.85a1.37,1.37,0,0,0,0-2.73,1.37,1.37,0,0,0,0,2.73Z"/><path class="cls-12" d="M296.77,134.94a1.37,1.37,0,0,0,0-2.73,1.37,1.37,0,0,0,0,2.73Z"/><path class="cls-12" d="M351.75,205.46a1.37,1.37,0,0,0,0-2.73,1.37,1.37,0,0,0,0,2.73Z"/><path class="cls-4" d="M47.82,148.32a1.37,1.37,0,0,0,0-2.73,1.37,1.37,0,0,0,0,2.73Z"/><path class="cls-4" d="M177.84,26.24a1.37,1.37,0,0,0,0-2.73,1.37,1.37,0,0,0,0,2.73Z"/><path class="cls-4" d="M203.82,35.17a1.37,1.37,0,0,0,0-2.73,1.37,1.37,0,0,0,0,2.73Z"/><path class="cls-4" d="M219.7,293.49a1.37,1.37,0,0,0,0-2.74,1.37,1.37,0,0,0,0,2.74Z"/><path class="cls-4" d="M162.08,133.58a1.37,1.37,0,0,0,0-2.74,1.37,1.37,0,0,0,0,2.74Z"/><path class="cls-4" d="M311.43,201.1a1.37,1.37,0,0,0,0-2.73,1.37,1.37,0,0,0,0,2.73Z"/><path class="cls-4" d="M49.18,125a1.37,1.37,0,0,0,0-2.73,1.37,1.37,0,0,0,0,2.73Z"/><path class="cls-4" d="M341.1,165.13a1.37,1.37,0,0,0,0-2.73,1.37,1.37,0,0,0,0,2.73Z"/><path class="cls-4" d="M19.9,227.77a1.37,1.37,0,0,0,0-2.73,1.37,1.37,0,0,0,0,2.73Z"/><path class="cls-12" d="M257,77.89a1.37,1.37,0,0,0,0-2.74,1.37,1.37,0,0,0,0,2.74Z"/><path class="cls-12" d="M306.21,278.83a1.37,1.37,0,0,0,0-2.73,1.37,1.37,0,0,0,0,2.73Z"/><path class="cls-2" d="M22.63,198.75v-.36a2.73,2.73,0,1,0-5.46,0v.36a2.73,2.73,0,0,0,5.46,0Z"/><path class="cls-2" d="M323.38,272.89a1.54,1.54,0,0,0,0-3.07,1.54,1.54,0,0,0,0,3.07Z"/><path class="cls-2" d="M347.79,194.56c3.52,0,3.52-5.46,0-5.46s-3.52,5.46,0,5.46Z"/><path class="cls-2" d="M267.79,59c3.51,0,3.52-5.47,0-5.47s-3.53,5.47,0,5.47Z"/><path class="cls-12" d="M53.82,272.9c3.52,0,3.52-5.47,0-5.47s-3.52,5.47,0,5.47Z"/><path class="cls-11" d="M100.75,224S54,231,60,184.72"/><path class="cls-11" d="M57.37,179.11a2.16,2.16,0,0,1,2.92-1.61,2.7,2.7,0,0,1,2,3.23s-.39,4.6-5.38,2.15"/><path class="cls-11" d="M62,178.67s1.24-5,3.54-6.32"/><path class="cls-11" d="M60.29,177.5s-1.08-2.38,1.08-5.84"/></g></g></svg>