<svg xmlns="http://www.w3.org/2000/svg" xmlns:xlink="http://www.w3.org/1999/xlink" viewBox="0 0 243.4 115.62"><defs><style>.cls-1{isolation:isolate;}.cls-2{fill:url(#_ÂÁ_Ï_ÌÌ_È_ËÂÌÚ_12);}.cls-3{fill:#91122d;}.cls-4{fill:url(#_ÂÁ_Ï_ÌÌ_È_ËÂÌÚ_31);}.cls-5{fill:#ab2718;}.cls-6{fill:url(#_ÂÁ_Ï_ÌÌ_È_ËÂÌÚ_191);}.cls-20,.cls-7{mix-blend-mode:multiply;}.cls-7{fill:url(#_ÂÁ_Ï_ÌÌ_È_ËÂÌÚ_25);}.cls-8{fill:url(#_ÂÁ_Ï_ÌÌ_È_ËÂÌÚ_86);}.cls-9{fill:url(#_ÂÁ_Ï_ÌÌ_È_ËÂÌÚ_86-2);}.cls-10{fill:url(#_ÂÁ_Ï_ÌÌ_È_ËÂÌÚ_187);}.cls-11{fill:url(#_ÂÁ_Ï_ÌÌ_È_ËÂÌÚ_187-2);}.cls-12{fill:url(#_ÂÁ_Ï_ÌÌ_È_ËÂÌÚ_187-3);}.cls-13{fill:url(#_ÂÁ_Ï_ÌÌ_È_ËÂÌÚ_6);}.cls-14{fill:url(#_ÂÁ_Ï_ÌÌ_È_ËÂÌÚ_187-4);}.cls-15{fill:url(#_ÂÁ_Ï_ÌÌ_È_ËÂÌÚ_187-5);}.cls-16{fill:#2a3e51;}.cls-17{fill:#476f87;}.cls-18,.cls-19,.cls-21,.cls-24,.cls-26,.cls-27{mix-blend-mode:screen;}.cls-18{fill:url(#_ÂÁ_Ï_ÌÌ_È_ËÂÌÚ_40);}.cls-19{fill:url(#_ÂÁ_Ï_ÌÌ_È_ËÂÌÚ_40-2);}.cls-20{fill:url(#_ÂÁ_Ï_ÌÌ_È_ËÂÌÚ_25-2);}.cls-21{fill:url(#_ÂÁ_Ï_ÌÌ_È_ËÂÌÚ_40-3);}.cls-22{fill:url(#_ÂÁ_Ï_ÌÌ_È_ËÂÌÚ_191-2);}.cls-23{fill:url(#_ÂÁ_Ï_ÌÌ_È_ËÂÌÚ_160);}.cls-24{fill:url(#_ÂÁ_Ï_ÌÌ_È_ËÂÌÚ_40-4);}.cls-25{fill:#f20000;}.cls-26{fill:url(#_ÂÁ_Ï_ÌÌ_È_ËÂÌÚ_166);}.cls-27{fill:url(#_ÂÁ_Ï_ÌÌ_È_ËÂÌÚ_40-5);}.cls-28{fill:#22567d;}</style><linearGradient id="_ÂÁ_Ï_ÌÌ_È_ËÂÌÚ_12" x1="121.7" y1="115.69" x2="121.7" y2="110.25" gradientUnits="userSpaceOnUse"><stop offset="0" stop-color="#fff7d4"/><stop offset="0.17" stop-color="#c6c0a5"/><stop offset="0.4" stop-color="#807c6b"/><stop offset="0.6" stop-color="#49473d"/><stop offset="0.78" stop-color="#21201c"/><stop offset="0.92" stop-color="#090907"/><stop offset="1"/></linearGradient><linearGradient id="_ÂÁ_Ï_ÌÌ_È_ËÂÌÚ_31" x1="44.87" y1="102.57" x2="179.35" y2="65.53" gradientUnits="userSpaceOnUse"><stop offset="0" stop-color="#ff754a"/><stop offset="1" stop-color="#ab2718"/></linearGradient><linearGradient id="_ÂÁ_Ï_ÌÌ_È_ËÂÌÚ_191" x1="39.42" y1="56.2" x2="179.88" y2="56.2" gradientUnits="userSpaceOnUse"><stop offset="0" stop-color="#f5ebcb"/><stop offset="0.41" stop-color="#b8c2b2"/><stop offset="0.84" stop-color="#759696"/></linearGradient><linearGradient id="_ÂÁ_Ï_ÌÌ_È_ËÂÌÚ_25" x1="115.87" y1="68.8" x2="166.24" y2="114.62" gradientUnits="userSpaceOnUse"><stop offset="0" stop-color="#c48274"/><stop offset="0.15" stop-color="#c68679"/><stop offset="0.32" stop-color="#cc9387"/><stop offset="0.51" stop-color="#d6a89e"/><stop offset="0.71" stop-color="#e4c5bf"/><stop offset="0.9" stop-color="#f5ebe8"/><stop offset="1" stop-color="#fff"/></linearGradient><linearGradient id="_ÂÁ_Ï_ÌÌ_È_ËÂÌÚ_86" x1="103.04" y1="99.84" x2="108.65" y2="67.31" xlink:href="#_ÂÁ_Ï_ÌÌ_È_ËÂÌÚ_191"/><linearGradient id="_ÂÁ_Ï_ÌÌ_È_ËÂÌÚ_86-2" x1="136.21" y1="99.59" x2="137.16" y2="70.45" xlink:href="#_ÂÁ_Ï_ÌÌ_È_ËÂÌÚ_191"/><linearGradient id="_ÂÁ_Ï_ÌÌ_È_ËÂÌÚ_187" x1="121.27" y1="72.25" x2="148.44" y2="72.25" gradientUnits="userSpaceOnUse"><stop offset="0" stop-color="#ffcb5d"/><stop offset="0.74" stop-color="#ed8e26"/><stop offset="0.84" stop-color="#eb861f"/></linearGradient><linearGradient id="_ÂÁ_Ï_ÌÌ_È_ËÂÌÚ_187-2" x1="121.7" y1="94.99" x2="147.29" y2="94.99" xlink:href="#_ÂÁ_Ï_ÌÌ_È_ËÂÌÚ_187"/><linearGradient id="_ÂÁ_Ï_ÌÌ_È_ËÂÌÚ_187-3" x1="122.26" y1="83.47" x2="147.09" y2="83.47" xlink:href="#_ÂÁ_Ï_ÌÌ_È_ËÂÌÚ_187"/><linearGradient id="_ÂÁ_Ï_ÌÌ_È_ËÂÌÚ_6" x1="127.02" y1="77.55" x2="144.55" y2="91.17" gradientUnits="userSpaceOnUse"><stop offset="0" stop-color="#ff8759"/><stop offset="0.94" stop-color="#ab1535"/></linearGradient><linearGradient id="_ÂÁ_Ï_ÌÌ_È_ËÂÌÚ_187-4" x1="125.5" y1="85.74" x2="149.67" y2="79.59" gradientTransform="translate(98.42 -70.65) rotate(45)" xlink:href="#_ÂÁ_Ï_ÌÌ_È_ËÂÌÚ_187"/><linearGradient id="_ÂÁ_Ï_ÌÌ_È_ËÂÌÚ_187-5" x1="125.5" y1="85.74" x2="149.67" y2="79.59" gradientTransform="translate(-19.63 119.55) rotate(-45)" xlink:href="#_ÂÁ_Ï_ÌÌ_È_ËÂÌÚ_187"/><linearGradient id="_ÂÁ_Ï_ÌÌ_È_ËÂÌÚ_40" x1="103.63" y1="69.47" x2="107.24" y2="96.77" gradientUnits="userSpaceOnUse"><stop offset="0.17" stop-color="#bdb58f"/><stop offset="0.26" stop-color="#b3ac88"/><stop offset="0.41" stop-color="#999274"/><stop offset="0.6" stop-color="#6e6953"/><stop offset="0.82" stop-color="#333127"/><stop offset="1"/></linearGradient><linearGradient id="_ÂÁ_Ï_ÌÌ_È_ËÂÌÚ_40-2" x1="123.73" y1="67.67" x2="152.55" y2="99.81" xlink:href="#_ÂÁ_Ï_ÌÌ_È_ËÂÌÚ_40"/><linearGradient id="_ÂÁ_Ï_ÌÌ_È_ËÂÌÚ_25-2" x1="76.54" y1="44.24" x2="168.81" y2="88.72" xlink:href="#_ÂÁ_Ï_ÌÌ_È_ËÂÌÚ_25"/><linearGradient id="_ÂÁ_Ï_ÌÌ_È_ËÂÌÚ_40-3" x1="40.32" y1="55.53" x2="178.98" y2="55.53" xlink:href="#_ÂÁ_Ï_ÌÌ_È_ËÂÌÚ_40"/><linearGradient id="_ÂÁ_Ï_ÌÌ_È_ËÂÌÚ_191-2" x1="80.51" y1="39.91" x2="80.31" y2="15.88" xlink:href="#_ÂÁ_Ï_ÌÌ_È_ËÂÌÚ_191"/><radialGradient id="_ÂÁ_Ï_ÌÌ_È_ËÂÌÚ_160" cx="68.11" cy="0.83" r="25" gradientUnits="userSpaceOnUse"><stop offset="0.01" stop-color="#22567d"/><stop offset="0.25" stop-color="#204e76"/><stop offset="0.63" stop-color="#1a3a62"/><stop offset="1" stop-color="#131f49"/></radialGradient><linearGradient id="_ÂÁ_Ï_ÌÌ_È_ËÂÌÚ_40-4" x1="78.12" y1="15.83" x2="81.62" y2="41.39" xlink:href="#_ÂÁ_Ï_ÌÌ_È_ËÂÌÚ_40"/><linearGradient id="_ÂÁ_Ï_ÌÌ_È_ËÂÌÚ_166" x1="66" y1="-2.3" x2="88.23" y2="15.01" gradientUnits="userSpaceOnUse"><stop offset="0" stop-color="#858274"/><stop offset="0.72" stop-color="#262521"/><stop offset="1"/></linearGradient><linearGradient id="_ÂÁ_Ï_ÌÌ_È_ËÂÌÚ_40-5" x1="65.5" y1="12.57" x2="84.47" y2="47.52" xlink:href="#_ÂÁ_Ï_ÌÌ_È_ËÂÌÚ_40"/></defs><title>error</title><g class="cls-1"><g id="Capa_2" data-name="Capa 2"><g id="Capa_2-2" data-name="Capa 2"><path class="cls-2" d="M3.87,111.75H239.54a3.87,3.87,0,0,1,3.87,3.87v0a0,0,0,0,1,0,0H0a0,0,0,0,1,0,0v0A3.87,3.87,0,0,1,3.87,111.75Z"/><polygon class="cls-3" points="204.98 53.82 203.35 58.58 200.83 58.58 197.28 111.75 171.06 111.75 172.98 53.82 204.98 53.82"/><polygon class="cls-4" points="172.92 111.75 45.88 111.75 43.2 58.58 175.61 58.58 172.92 111.75"/><path class="cls-5" d="M168.7,107.32H113l1.37-43,54.78.42Zm-54.92-.79h54.14l.4-41-53.21-.41Z"/><polygon class="cls-6" points="179.88 53.82 39.42 53.82 39.89 58.58 179.42 58.58 179.88 53.82"/><path class="cls-7" d="M166.86,70.44l-17.13,1.09h0l-10.83.69-30.52,2,0-3.11h.87l.73-5.75h-5.75l.73,5.75h.89l.36,27.8H105l-.73,5.74H110l-.73-5.74h-1.22l.05-3,22.48,1,18,.77h0l15.36.65,1.27.06.15-1.29,3-25,.19-1.66Zm-18.6,24.62-1.34,0,1.46-21,1.18,0h0l15.8-.65L162.74,95.4l-14.48-.34ZM108.4,75.61,123.54,75l1.15,19.53h.08l-16.62-.38V95L108.37,75ZM108.13,95Z"/><polygon class="cls-8" points="106.78 98.86 104.96 98.86 104.61 70.02 107.13 70.02 106.78 98.86"/><polygon class="cls-9" points="165.57 69.4 107.04 73.14 107.12 74.58 164.07 72.25 161.45 94.36 106.87 93.1 106.81 94.8 162.64 97.18 163.92 97.23 164.07 95.95 167.03 70.96 167.23 69.3 165.57 69.4"/><polygon class="cls-10" points="121.27 72.23 121.27 74 148.27 72.9 148.44 70.5 121.27 72.23"/><polygon class="cls-11" points="122.02 93.45 121.7 95.43 147.29 96.52 146.97 94.03 122.02 93.45"/><polygon class="cls-12" points="122.26 73.96 123.4 93.48 145.63 94 147.09 72.94 122.26 73.96"/><path class="cls-13" d="M141,82.93c0-3.59-2.92-6-6.52-6a6.52,6.52,0,0,0,0,13C138.09,90,141,86.53,141,82.93Z"/><polygon class="cls-14" points="136.22 87.15 130.82 81.74 132.66 79.69 138.27 85.31 136.22 87.15"/><polygon class="cls-15" points="138.17 81.74 132.76 87.15 130.72 85.31 136.33 79.69 138.17 81.74"/><path class="cls-16" d="M108,70h-4.28L103,64.28h5.74Zm0,28.84h-4.28L103,104.6h5.74Z"/><polygon class="cls-17" points="103.64 64.28 104.14 70.02 105.09 70.02 105.42 64.28 103.64 64.28"/><polygon class="cls-17" points="103.64 104.61 104.14 98.86 105.09 98.86 105.42 104.61 103.64 104.61"/><polygon class="cls-18" points="104.94 70.79 105.21 98.51 105.77 98.51 106.07 70.79 104.94 70.79"/><polygon class="cls-19" points="107.55 73.46 165.94 69.67 162.69 95.61 106.84 93.91 106.86 93.45 161.86 94.78 164.51 71.03 107.58 74 107.55 73.46"/><polygon class="cls-20" points="43.2 58.58 175.61 58.58 175.29 64.73 43.35 61.66 43.2 58.58"/><polygon class="cls-21" points="178.99 54.44 40.32 54.44 40.78 56.62 178.53 56.62 178.99 54.44"/><polygon class="cls-17" points="103.26 53.82 69.01 53.82 71.46 38.34 98.31 38.34 103.26 53.82"/><polygon class="cls-16" points="98.31 38.34 102.46 38.34 110.75 53.82 103.26 53.82 98.31 38.34"/><polygon class="cls-22" points="81.99 19.14 78.69 19.14 79 38.34 81.68 38.34 81.99 19.14"/><polygon class="cls-17" points="91.78 0 68.31 0 70.14 17.87 90.54 17.87 91.78 0"/><polygon class="cls-23" points="72.26 15.53 70.91 2.35 89.27 2.35 88.35 15.53 72.26 15.53"/><polygon class="cls-16" points="70.14 17.87 71.17 19.14 92.67 19.14 94 1.56 91.78 0 90.54 17.87 70.14 17.87"/><polygon class="cls-16" points="70.91 2.35 72.26 15.53 72.94 15.53 71.92 3.29 89.22 3 89.27 2.35 70.91 2.35"/><path class="cls-16" d="M72,49.08l-.5,3.49H71l.5-3.49Zm.81,0-.5,3.49h.5l.5-3.49Zm1.3,0-.5,3.49h.5l.5-3.49Zm1.3,0-.5,3.49h.5l.5-3.49Zm1.3,0-.5,3.49h.5l.5-3.49Z"/><polygon class="cls-24" points="79.29 19.94 79.46 37.75 80.34 37.75 80.34 19.94 79.29 19.94"/><polygon class="cls-25" points="83.61 6.56 83.61 5.05 81.2 5.07 81.29 4.32 79.32 4.32 79.43 5.09 77.59 5.11 76.77 5.11 76.87 5.88 77.34 9.64 77.42 10.24 78.04 10.23 82.18 10.14 82.13 11.87 77.59 11.92 77.59 12.99 79.46 13 79.32 13.94 81.29 13.94 81.18 13.02 82.72 13.04 83.3 13.04 83.33 12.47 83.48 9.54 83.52 8.9 82.83 8.9 78.65 8.9 78.4 6.51 83.61 6.56"/><path class="cls-26" d="M72.34,3.69l1.19,10.59A52.37,52.37,0,0,0,87.34,3.61Z"/><polygon class="cls-27" points="71.95 39.24 97.53 39.24 97.53 40.04 72.76 40.97 70.66 52.57 69.66 52.57 71.95 39.24"/><path class="cls-5" d="M99.34,107.32H50.69l-2.53-43,51.6.42Zm-47.91-.79H98.55l.41-41-50-.41Z"/><polygon class="cls-28" points="179.88 53.82 204.98 53.82 203.35 58.58 179.42 58.58 179.88 53.82"/></g></g></g></svg>