<svg xmlns="http://www.w3.org/2000/svg" viewBox="0 0 377.42 293.84"><defs><style>.cls-1{isolation:isolate;}.cls-2{fill:#e6f5ff;}.cls-3{fill:#275cab;}.cls-4{fill:#d4ecff;}.cls-5{fill:#afddfd;}.cls-6{fill:#fff;}.cls-7{fill:#366dbf;}.cls-8{fill:#6a99de;}.cls-9{fill:#ffcb05;}.cls-10{fill:#0b3e8a;}.cls-11{fill:#164fa6;}.cls-12{fill:#edbc9c;}.cls-13{fill:#dd9f80;}.cls-14{fill:none;}.cls-15{fill:#81c4ef;}.cls-16{fill:#60b1e6;}.cls-17,.cls-18{fill:#5c87c7;}.cls-18{opacity:0.56;}.cls-19{fill:#983f46;opacity:0.29;mix-blend-mode:multiply;}.cls-20{fill:#db7d37;}</style></defs><title>y_alert</title><g class="cls-1"><g id="Capa_2" data-name="Capa 2"><g id="OBJECTS"><ellipse class="cls-2" cx="188.71" cy="282.04" rx="188.71" ry="11.8"/><rect class="cls-3" x="82.05" y="112.96" width="226.05" height="160.63" rx="7.96"/><rect class="cls-4" x="118.79" y="104.07" width="139.84" height="178.4" rx="1.48" transform="translate(381.98 4.57) rotate(90)"/><path class="cls-5" d="M276.58,123.35H100.84a1.33,1.33,0,0,0-1.33,1.34v3.8h170.9a1.33,1.33,0,0,1,1.33,1.34V263.2h4.84a1.34,1.34,0,0,0,1.33-1.33V124.69A1.34,1.34,0,0,0,276.58,123.35Z"/><path class="cls-6" d="M300.13,193.28a7.28,7.28,0,1,0-7.28,7.27A7.28,7.28,0,0,0,300.13,193.28Z"/><path class="cls-7" d="M100.84,263.2h94.55c-5.29,3.87-9.42,7.35-15.28,10.39H89.2a7.15,7.15,0,0,1-7.15-7.15V120.11A7.15,7.15,0,0,1,89.2,113H242.26q1.89,5.1,3.34,10.39H100.84a1.34,1.34,0,0,0-1.34,1.34V261.87A1.34,1.34,0,0,0,100.84,263.2Z"/><rect class="cls-8" x="135.95" width="1.71" height="83.25"/><rect class="cls-8" x="258.28" width="1.71" height="102.37"/><rect class="cls-6" x="139.79" y="63.23" width="101.44" height="147.5" rx="9.88" transform="translate(32.37 310.32) rotate(-83.34)"/><path class="cls-3" d="M267.56,113l.94-8a9.88,9.88,0,0,0-8.67-11L133,79.19a9.88,9.88,0,0,0-11,8.67l-.94,8Z"/><path class="cls-6" d="M136,90.4a2.65,2.65,0,1,1-2.33-3A2.65,2.65,0,0,1,136,90.4Z"/><path class="cls-4" d="M148.74,91.89a2.66,2.66,0,1,1-2.33-3A2.66,2.66,0,0,1,148.74,91.89Z"/><path class="cls-9" d="M161.93,93.43a2.66,2.66,0,1,1-2.33-3A2.66,2.66,0,0,1,161.93,93.43Z"/><path class="cls-9" d="M136,149.59l-2.2,7.23-3.77-.4,10.93-35.91,5.92.63,3.1,37.41-4.08-.44-.63-7.53Zm.9-3.46L145,147l-1.88-21.61Z"/><path class="cls-9" d="M153.15,158.89l3.91-36.66,4.09.43-3.52,33,10.48,1.12-.4,3.71Z"/><path class="cls-9" d="M186,141.74l-.39,3.67-8.95-1-1.4,13,11,1.17-.4,3.72-15.08-1.61,3.91-36.66,15.09,1.61-.4,3.72-11-1.17-1.33,12.51Z"/><path class="cls-9" d="M201.74,127c5.76.62,7.86,3.81,7.28,9.26l-.32,3c-.43,4-2.11,6.4-5.36,7.06,3.24,1.35,4.21,4.21,3.79,8.14l-.61,5.71a9.33,9.33,0,0,0,.26,4.47l-4.13-.44a9.66,9.66,0,0,1-.21-4.52l.62-5.76c.44-4.14-1.36-5.66-4.77-6l-2.88-.31-1.67,15.66-4.08-.43,3.91-36.67Zm-2.89,17.18c3.25.34,5.3-.5,5.72-4.48l.37-3.51c.36-3.3-.66-5.15-3.7-5.48l-4-.42-1.45,13.56Z"/><path class="cls-9" d="M215.59,165.55l3.51-32.94-6.75-.72.39-3.72L230.29,130l-.4,3.72-6.76-.72L219.62,166Z"/><path class="cls-9" d="M232.09,159.85l-2.2,7.23-3.78-.4L237,130.76l5.92.63,3.11,37.42-4.09-.44-.62-7.54Zm.9-3.46,8.17.87-1.88-21.6Z"/><path class="cls-10" d="M110.89,212.06a68.28,68.28,0,0,0-1.42,15.37c.25,7-.57,52.67-.57,52.67h5.58s8-35.8,8.24-38.63,4.3-31.1,4.3-31.1Z"/><path class="cls-11" d="M114.61,210a119.18,119.18,0,0,0,3.47,16.71C120.26,233.63,131,280.1,131,280.1h5.59s-1-35.8-1.42-38.63-3.21-31.1-3.21-31.1Z"/><path class="cls-10" d="M131.46,280.09V284h10.63a.61.61,0,0,0,.33-1.12,16.91,16.91,0,0,0-6.35-2.78Z"/><path class="cls-10" d="M109.18,280.09V284h10.63a.61.61,0,0,0,.34-1.12,17,17,0,0,0-6.36-2.78Z"/><path class="cls-10" d="M129.48,159.3h0l0,0-.14-.15a1.62,1.62,0,0,0-.19-.18l-.18-.12a1.48,1.48,0,0,0-.31-.15l-.19-.08a3.46,3.46,0,0,0-.63-.14c-3.23-.42-4.55.54-4.55.54s-3.71-.41-5.74,1.35c-1.4,1.21-6.5,10.57,1.76,13.95l.72.28.22.07.45.14.25.06.37.09.25,0,.32.05.24,0,.28,0h.48l.21,0,.22,0,.19,0,.21-.05.17-.06.18-.07.15-.08.16-.09.14-.09.14-.11.13-.11.12-.12.11-.12a2624360400156.69,2624360400156.69,0,0,1,.2-.26l.08-.13.09-.15.06-.13a8.13,8.13,0,0,0,.36-4.39l2.57-4.47S130.68,161,129.48,159.3Z"/><path class="cls-12" d="M123.21,167.25s-1.08-1.08-1.89,0-.27,3.52,1.08,3.66c0,0-.41,3.52-3.11,3.38v2.84h6.36V175s3.93-1.63,3.79-4.88a17.81,17.81,0,0,0-1.08-5.55A8.86,8.86,0,0,1,123.21,167.25Z"/><path class="cls-13" d="M124.19,175.88c.63.26.52.66.54,1.25h.92V175a5.1,5.1,0,0,1-3.8-.8A10,10,0,0,0,124.19,175.88Z"/><path class="cls-12" d="M125.49,162.07s-3.3-1.32-3.68-.33c-.26.64.38,1.2,1.27,1.76l-.78.13a.21.21,0,0,0-.1.36,4.41,4.41,0,0,0,2.06.33Z"/><polygon class="cls-14" points="105.87 197.84 110.29 212.08 110.21 211.37 110.29 212.08 111.78 191.34 105.87 197.84"/><path class="cls-15" d="M149,170.33c-6.29-4.66-23.47-8.39-23.47-8.39l-1.41,2.58s15.6,6,14.57,6.95c-.61.53-8.23,4-10.81,5.19a4,4,0,0,1-1.77.37l-7.9-.05a12.49,12.49,0,0,0-10.18,4.47c-4,4.61-10.82,15.29-10.82,15.29l11.48,16.87,1.27,1.87v.13s.4,0,1.13.11c3.68.35,15.5,1.28,21.76-.05l.17,0L132.77,188A107.81,107.81,0,0,0,149.23,172,1.15,1.15,0,0,0,149,170.33Zm-38.49,37.74-1.12-2.44-3.56-7.79,5.91-6.63-1.06,14.54Z"/><polygon class="cls-16" points="109.43 205.63 110.55 208.07 110.01 215.46 110 215.48 108.72 213.61 109.43 205.63"/><path class="cls-16" d="M130.1,187c-1.07.77-.8,7.62-1.06,11.9-.44,7.16-.87,13.37-.55,17.37a32.26,32.26,0,0,0,4.4-.56l.17,0L132.77,188A107.81,107.81,0,0,0,149.23,172a1.15,1.15,0,0,0-.19-1.69A140.43,140.43,0,0,1,130.1,187Z"/><path class="cls-10" d="M135.17,241.47c-.28-2-1.83-17.33-2.67-25.69l-4,.45s5.85,48.12,6.24,63.87h1.86S135.56,244.3,135.17,241.47Z"/><path class="cls-17" d="M71.36,266.55s-1.73-1.6-.57-7.7,4.08-12,2.65-18.57S60.73,217,60.69,215.88s-3.48,19.4,2.35,27.48,6.53,10.89,6.27,15.14.06,7.67.7,8.66Z"/><path class="cls-8" d="M70.29,254.29c-.68,2.72-1.09,9.54,0,11.17.11.16.25.07.43-.21a14,14,0,0,1,.08-6.4c1.15-6.1,4.08-12,2.65-18.57S60.73,217,60.69,215.88c0,0,1.7,13.89,7.42,23.46A18.27,18.27,0,0,1,70.29,254.29Z"/><path class="cls-17" d="M73.41,266.13s-3.31-8.27,2.3-15.43,14.59-16.35,14.77-20c0,0,2.3,17.29-5,22.18s-12.43,5.68-11.16,13.21Z"/><path class="cls-8" d="M81.3,249.42c-8.15,5.93-8.82,12.76-7.55,15.92a.79.79,0,0,0,.53.48c-1.09-7.27,4-8.09,11.2-12.93s5-22.18,5-22.18S89.44,243.49,81.3,249.42Z"/><path class="cls-17" d="M68,266.32a28.72,28.72,0,0,0,.5-9.11c-.56-4.72-5.5-7.38-10.11-12.38-2.38-2.56-3.08-16.15-1.61-17.41,0,0-8.14,9.87-6.89,17.1s14.55,11.92,15.78,15.41a19.29,19.29,0,0,1,1.12,6.43Z"/><path class="cls-8" d="M54,231.31c-2.69,7.29.07,16.11,9,21.6,6.58,4,4.49,12.43,4.49,12.43L68.56,262a25.5,25.5,0,0,0-.1-4.82c-.56-4.72-5.5-7.38-10.11-12.38-2.29-2.47-3-15.19-1.76-17.23C56.22,228.07,55.17,229.44,54,231.31Z"/><path class="cls-18" d="M56.59,227.6a2.21,2.21,0,0,0,.15-.18Z"/><path class="cls-17" d="M75.11,265.77s1.91-7.08,6.64-8,10.14-7.93,10.43-9.3C92.18,248.43,91.39,261.59,75.11,265.77Z"/><path class="cls-8" d="M81.48,260.07A7.85,7.85,0,0,0,77,265.23c14.49-4.66,15.23-16.8,15.23-16.8a5.33,5.33,0,0,1-.73,1.39C90,252.31,86.59,257.52,81.48,260.07Z"/><path class="cls-5" d="M85.33,263.16H60.64l2.93,18.44A2.88,2.88,0,0,0,66.42,284H79.55a2.88,2.88,0,0,0,2.85-2.43Z"/><path class="cls-18" d="M79.35,263.16H60.64l.48,3H78.86L76.42,281.6A2.89,2.89,0,0,1,73.57,284h6a2.88,2.88,0,0,0,2.85-2.43l2.93-18.44Z"/><rect class="cls-9" x="150.72" y="230.27" width="111.61" height="22.69"/><rect class="cls-19" x="150.72" y="230.27" width="111.61" height="5.51"/><polygon class="cls-20" points="160.43 230.27 170.61 230.27 167.88 235.78 157.69 235.78 160.43 230.27"/><polygon class="cls-20" points="183.38 230.27 193.56 230.27 190.83 235.78 180.65 235.78 183.38 230.27"/><polygon class="cls-20" points="206.32 230.27 216.51 230.27 213.78 235.78 203.59 235.78 206.32 230.27"/><polygon class="cls-20" points="229.27 230.27 239.46 230.27 236.72 235.78 226.54 235.78 229.27 230.27"/><polygon class="cls-20" points="262.33 230.27 262.33 230.42 259.67 235.78 249.49 235.78 252.22 230.27 262.33 230.27"/><rect class="cls-5" x="164.61" y="252.96" width="7.87" height="31.03"/><rect class="cls-5" x="241.18" y="252.96" width="7.87" height="31.03"/><rect class="cls-5" x="164.61" y="226.72" width="7.87" height="3.52"/><rect class="cls-5" x="241.18" y="226.72" width="7.87" height="3.52"/><polygon class="cls-18" points="164.61 256.85 170.69 256.85 170.69 283.99 172.48 283.99 172.48 256.85 172.48 252.96 172.48 252.94 164.61 252.94 164.61 256.85"/><polygon class="cls-18" points="241.18 256.85 246.72 256.85 246.72 283.99 249.05 283.99 249.05 256.85 249.05 252.96 249.05 252.94 241.18 252.94 241.18 256.85"/><polygon class="cls-18" points="170.69 229.81 164.61 229.81 164.61 230.25 172.48 230.25 172.48 230.25 172.48 229.81 172.48 226.72 170.69 226.72 170.69 229.81"/><polygon class="cls-18" points="246.72 226.72 246.72 229.81 241.18 229.81 241.18 230.25 249.05 230.25 249.05 230.25 249.05 229.81 249.05 226.72 246.72 226.72"/><polygon class="cls-6" points="170.61 230.27 159.36 252.96 150.72 252.96 150.72 249.83 160.43 230.27 170.61 230.27"/><polygon class="cls-6" points="183.38 230.27 172.12 252.96 182.31 252.96 193.56 230.27 183.38 230.27"/><polygon class="cls-6" points="216.51 230.27 205.25 252.96 195.07 252.96 206.32 230.27 216.51 230.27"/><polygon class="cls-6" points="239.46 230.27 228.21 252.96 218.02 252.96 229.27 230.27 239.46 230.27"/><polygon class="cls-6" points="252.22 230.27 240.97 252.96 251.15 252.96 262.33 230.42 252.22 230.27"/><polygon class="cls-2" points="170.61 230.27 167.88 235.78 157.69 235.78 160.43 230.27 170.61 230.27"/><polygon class="cls-2" points="193.56 230.27 190.83 235.78 180.65 235.78 183.38 230.27 193.56 230.27"/><polygon class="cls-2" points="216.51 230.27 213.78 235.78 203.59 235.78 206.32 230.27 216.51 230.27"/><polygon class="cls-2" points="239.46 230.27 236.72 235.78 226.54 235.78 229.27 230.27 239.46 230.27"/><polygon class="cls-2" points="262.33 230.42 259.67 235.78 249.49 235.78 252.22 230.27 262.33 230.42"/><circle class="cls-9" cx="168.34" cy="221.8" r="7.01" transform="translate(-33.44 29.92) rotate(-9.24)"/><path class="cls-6" d="M171.52,221.8a3.18,3.18,0,1,0-3.18,3.18A3.18,3.18,0,0,0,171.52,221.8Z"/><circle class="cls-9" cx="245.07" cy="221.8" r="7.01" transform="translate(-32.45 42.25) rotate(-9.24)"/><path class="cls-6" d="M248.24,221.8a3.18,3.18,0,1,0-3.17,3.18A3.17,3.17,0,0,0,248.24,221.8Z"/><path class="cls-9" d="M304.61,281.59H269.07l5.43-13.18h0l2.19-5.32.6-1.46,1-2.37.2-.48,2.19-5.32.4-1,3.88-9.41a2.06,2.06,0,0,1,3.8,0l3.87,9.41.4,1,2.19,5.32.2.48,1,2.37.61,1.46,2.18,5.32h0Z"/><polygon class="cls-19" points="271.4 275.93 269.07 281.58 304.61 281.58 302.28 275.93 271.4 275.93"/><rect class="cls-5" x="266.23" y="278.21" width="40.71" height="5.76"/><rect class="cls-18" x="298.14" y="278.21" width="8.8" height="5.76"/><path class="cls-19" d="M303.21,278.2h-5l-4-9.79h0L292,263.08l-.6-1.45-1-2.38-.2-.48L288,253.45l-.4-1-3.26-7.92.61-1.48a2.05,2.05,0,0,1,3.8,0l3.87,9.4.4,1,2.19,5.32.2.48,1,2.38.61,1.45,2.18,5.32h0Z"/><polygon class="cls-6" points="295.2 258.77 278.47 258.77 280.66 253.45 293.01 253.45 295.2 258.77"/><polygon class="cls-6" points="299.17 268.4 299.17 268.41 274.5 268.41 274.5 268.4 276.69 263.08 296.99 263.08 299.17 268.4"/><polygon class="cls-2" points="295.2 258.77 290.17 258.77 287.99 253.45 293.01 253.45 295.2 258.77"/><polygon class="cls-2" points="299.17 268.4 299.17 268.41 294.14 268.41 294.14 268.4 291.96 263.08 296.99 263.08 299.17 268.4"/></g></g></g></svg>