<svg xmlns="http://www.w3.org/2000/svg" viewBox="0 0 257.04 290.01"><defs><style>.cls-1{isolation:isolate;}.cls-2{fill:#dfe2de;}.cls-3{fill:#b7ead1;}.cls-4{fill:#324d59;}.cls-15,.cls-5,.cls-8{fill:#fff;}.cls-6{fill:#febb96;}.cls-7{fill:#55d8a3;}.cls-8{font-size:12.57px;}.cls-15,.cls-8{font-family:Montserrat-Bold, Montserrat Bold;font-weight:700;}.cls-9{letter-spacing:0.2em;}.cls-10{letter-spacing:0.22em;}.cls-11{fill:#f9f38a;}.cls-12,.cls-13,.cls-18,.cls-24,.cls-25{fill:none;}.cls-12,.cls-13,.cls-18{stroke:#9b9b9b;stroke-width:0.48px;}.cls-12,.cls-13,.cls-18,.cls-25{stroke-miterlimit:10;}.cls-13{stroke-dasharray:0.47 0.47;}.cls-14{fill:#0c0c0c;}.cls-15{font-size:12.57px;}.cls-16{letter-spacing:0.2em;}.cls-17{letter-spacing:0.22em;}.cls-18{stroke-dasharray:0.47 0.47;}.cls-19{fill:#7fe5b9;}.cls-20{fill:#f97373;opacity:0.16;mix-blend-mode:multiply;}.cls-21{fill:#fffefc;}.cls-22{fill:#4bad79;}.cls-23{fill:#31a36d;}.cls-24{stroke:#fff;stroke-linecap:round;stroke-linejoin:round;stroke-width:0.63px;}.cls-25{stroke:#55d8a3;}</style></defs><title>btnadd</title><g class="cls-1"><g id="Capa_2" data-name="Capa 2"><g id="Capa_1-2" data-name="Capa 1"><path class="cls-2" d="M254.31,229.3c4-18.42,3.39-38.24-.37-56.81C244,123.41,217.57,72.32,186.83,34.88,141.73-20.06,53.41-7.27,15.57,53.43-2.29,82.08-5,151.91,8.53,183.1c26.14,60.34,81.08,69.9,132.36,92.73,37.05,16.5,75.05,26.65,101.62-16.53A95.78,95.78,0,0,0,254.31,229.3Z"/><rect class="cls-3" x="59.84" y="79.27" width="141.24" height="27.14"/><path class="cls-4" d="M168.75,156a46.67,46.67,0,0,1,.51-8,37.48,37.48,0,0,1,.8-4.6A63.22,63.22,0,0,1,174.79,131c.34-.69.68-1.37,1-2a.49.49,0,0,0-.1-.66c-2.38-2.45-4.84-4.81-7.14-7.32-1.15-1.25-2.16-2.6-3.19-3.94-.46-.59-.87-1.21-1.3-1.83a15.52,15.52,0,0,1-2.47-5.68,2.7,2.7,0,0,1,0-.85,1.17,1.17,0,0,1,1.64-1,7.51,7.51,0,0,1,2.37,1.89,57.72,57.72,0,0,1,4.09,4.88,97.45,97.45,0,0,1,5.64,8.48c.6.94,1.09,1.93,1.64,2.89.23.41.29.4.52,0l2.79-4.82c.08-.15.2-.25,0-.4a10.73,10.73,0,0,1-2.47-2.38,61.13,61.13,0,0,1-4.63-6.45c-.73-1.11-1.61-2.12-2.39-3.2a28.22,28.22,0,0,1-2.52-3.87c-.25-.51-.52-1-.72-1.54a2.93,2.93,0,0,1-.22-.87,1.07,1.07,0,0,1,1.42-1.18,4.57,4.57,0,0,1,1.79,1,27,27,0,0,1,4.68,4.69,66.38,66.38,0,0,1,4.75,7.09,26.37,26.37,0,0,1,2,3.75c0,.1.08.23.19.24s.16-.12.21-.21l2.57-4c.15-.21.12-.35-.07-.53a48.45,48.45,0,0,1-3.76-4.09c-1-1.17-1.86-2.38-2.81-3.55-1.18-1.44-2.25-3-3.31-4.46a32.82,32.82,0,0,1-2.13-3.44,7,7,0,0,1-.92-2.32,1.8,1.8,0,0,1,0-.8.87.87,0,0,1,1-.64,2.36,2.36,0,0,1,1.24.67,15.17,15.17,0,0,1,2.14,2.53c1.34,1.86,2.64,3.74,4,5.6q1.62,2.22,3.31,4.4c.93,1.21,1.91,2.38,2.85,3.57.21.27.33.22.5,0,.46-.65.92-1.29,1.39-1.93a.33.33,0,0,0,0-.5c-1.21-1.4-2.35-2.87-3.45-4.36a35.21,35.21,0,0,1-2.9-4.47c-1-1.88-1.89-3.8-2.74-5.75-.59-1.35-1.21-2.7-1.68-4.11a5,5,0,0,1-.28-1.26,1.13,1.13,0,0,1,1.73-1.15,5.5,5.5,0,0,1,2,2A27.76,27.76,0,0,1,183,91.93c1.18,2.22,2.61,4.29,3.7,6.56.87,1.77,1.65,3.58,2.49,5.37a13.23,13.23,0,0,0,1,1.84c.17.25.3.24.47,0,.45-.58.91-1.16,1.38-1.72a.37.37,0,0,0,0-.6A30.62,30.62,0,0,1,188.59,99a40.35,40.35,0,0,1-4.61-9.7,52.6,52.6,0,0,1-1.75-5.94,7,7,0,0,1-.16-1.38,1.23,1.23,0,0,1,.66-1.27,1.19,1.19,0,0,1,1.36.34,5.4,5.4,0,0,1,1,1.17c.9,1.51,1.7,3.06,2.44,4.64.52,1.1,1.08,2.17,1.6,3.26s1.07,2.38,1.66,3.54c1.12,2.22,1.91,4.61,3.15,6.79l0,0c.41.81.41.8,1,.1S196.3,99,197,98.33c.35-.35.29-.55.06-.93-.79-1.31-1.57-2.61-2.25-4s-1.52-3-2.27-4.48a62.85,62.85,0,0,1-4.3-10.19,4.94,4.94,0,0,1-.23-2.61,1.2,1.2,0,0,1,1.85-.81,3,3,0,0,1,1,1,22.85,22.85,0,0,1,1.65,2.78c.8,1.69,1.6,3.38,2.33,5.1.88,2.06,1.59,4.19,2.37,6.3.62,1.65,1.19,3.32,1.78,5,.06.15.12.3.2.52l1.69-1.66c.19-.19.47-.36.55-.59s-.31-.32-.46-.52A25.85,25.85,0,0,1,198.45,89a55.72,55.72,0,0,1-3-7.18,58.52,58.52,0,0,1-2.27-7.66,7.49,7.49,0,0,1-.19-1.83,1.61,1.61,0,0,1,.24-.85,1.13,1.13,0,0,1,2,.12A21.8,21.8,0,0,1,197,75.29c1,2.4,1.66,4.94,2.47,7.41A50,50,0,0,0,202,89.07c.41.86.9,1.69,1.34,2.54.11.22.19.16.33,0L206.57,89c.12-.11.2-.2.06-.37a13.87,13.87,0,0,1-1.51-2.43c-.55-1-1.09-1.92-1.58-2.92a65,65,0,0,1-2.84-6.39c-.84-2.29-1.8-4.53-2.52-6.86a8.36,8.36,0,0,1-.27-1.18,1.14,1.14,0,0,1,.49-1.18,1.06,1.06,0,0,1,1.27.28,11.15,11.15,0,0,1,1.92,2.75c.71,1.3,1.31,2.66,1.92,4,1.77,3.85,3.38,7.76,5,11.68.28.7.27.7.82.22.33-.3.66-.61,1-.9s.21-.33.09-.57c-.53-1-1.06-2-1.54-3-.88-1.94-1.61-3.93-2.33-5.93a49.06,49.06,0,0,1-2.36-8.84,8.63,8.63,0,0,1-.05-3c.11-.59.26-1.21,1-1.39s1.17.28,1.58.78a11.9,11.9,0,0,1,1.79,3.6c.88,2.42,1.47,4.93,2.21,7.39.81,2.68,1.45,5.41,2.34,8.07.17.5.21.51.6.17.91-.78,1.82-1.56,2.75-2.32a.55.55,0,0,0,.2-.73,56,56,0,0,1-3-10.71,35.48,35.48,0,0,1-.63-7.56,5.89,5.89,0,0,1,.27-1.67,1.41,1.41,0,0,1,1.24-1.08,1.61,1.61,0,0,1,1.33,1,15.45,15.45,0,0,1,1,3.89c.54,3.28.89,6.59,1.51,9.86a34.84,34.84,0,0,0,.86,3.49c.09.3.16.33.38.09a32.08,32.08,0,0,1,3.75-3.34c1.33-1,2.64-2.11,4-3.12a17.67,17.67,0,0,1,4.76-2.84,3.2,3.2,0,0,1,1-.16c1,0,1.51.74,1,1.69A6.32,6.32,0,0,1,233,71a26.41,26.41,0,0,1-5,4c-1.57,1-3.11,2-4.77,2.79a3.34,3.34,0,0,0-.75.39c-.67.54-1.31,1.12-2,1.68.11.13.21.07.31.06a164.29,164.29,0,0,1,16.86-2,30.21,30.21,0,0,1,5.38,0,2.6,2.6,0,0,1,1.46.53.82.82,0,0,1-.05,1.34,3.64,3.64,0,0,1-1.52.64c-2.68.49-5.35,1-8.07,1.29-3.26.34-6.54.5-9.81.67-2.25.12-4.49.17-6.74.08a2,2,0,0,0-1.58.55c-.71.66-1.48,1.25-2.23,1.88a.48.48,0,0,0-.21.33c.49,0,1,0,1.46,0a61.1,61.1,0,0,1,6.47.79c2.39.39,4.78.79,7.18,1.13,3.47.49,7,.86,10.43,1.3a7.52,7.52,0,0,1,1.14.26,1.07,1.07,0,0,1,.81,1,1,1,0,0,1-.78.92,21.25,21.25,0,0,1-5.13.85,53,53,0,0,1-12.69-.92,53.78,53.78,0,0,1-7.82-2c-.77-.26-1.49-.64-2.27-.86a1.35,1.35,0,0,1-.68-.49c-.15-.22-.29-.2-.47,0l-1.21,1c-.25.21-.2.33.12.44,1.82.64,3.66,1.23,5.5,1.81,2,.64,4,1.28,6.09,1.88s4.17,1.11,6.28,1.57c2,.43,3.92.87,5.86,1.39a6.61,6.61,0,0,1,1.22.45,1.25,1.25,0,0,1,.85,1.16,1.29,1.29,0,0,1-.93,1.11,8.68,8.68,0,0,1-2.6.68,23.75,23.75,0,0,1-6.13-.19,34.76,34.76,0,0,1-5.23-1.11,36.22,36.22,0,0,1-7-2.84A35.15,35.15,0,0,1,209.34,91l-.4-.36c-.49-.46-.5-.47-1,0L205.37,93c-.23.22-.32.36,0,.59a39.75,39.75,0,0,0,7.18,3.58c2.41,1,4.84,1.85,7.3,2.67,1.63.54,3.29,1,5,1.47l3.28.94a1.89,1.89,0,0,1,.33.13c.44.23.85.51.83,1.07a1.4,1.4,0,0,1-.93,1.27,7.22,7.22,0,0,1-2.91.48A25,25,0,0,1,218,104a32.89,32.89,0,0,1-8.09-3.53,36.75,36.75,0,0,1-6.35-5.11c-.29-.28-.45-.29-.72,0-.63.65-1.28,1.26-1.93,1.88-.23.22-.24.35,0,.55,1.27,1,2.59,1.84,3.94,2.68s2.93,1.9,4.45,2.78a66.39,66.39,0,0,0,7.91,3.74,11.71,11.71,0,0,1,2.81,1.4,1.28,1.28,0,0,1,.62,1.38,1.41,1.41,0,0,1-1.19,1,6.33,6.33,0,0,1-2.67-.1A33.29,33.29,0,0,1,207,107a25.63,25.63,0,0,1-6.84-5.55c-.44-.51-.84-1-1.23-1.59-.19-.26-.32-.2-.49,0-.69.75-1.37,1.51-2.07,2.24-.26.28-.22.46.07.68,2,1.56,4.07,3.06,6.15,4.53a65.55,65.55,0,0,0,11.29,6.28,4,4,0,0,1,.76.47,1.44,1.44,0,0,1,.69,1.54,1.78,1.78,0,0,1-1.16,1.38,5.49,5.49,0,0,1-2.84.18,20.9,20.9,0,0,1-7.2-2.68,30.84,30.84,0,0,1-8.08-6.57,9.27,9.27,0,0,1-1.86-2.68c-.12-.31-.28-.29-.47,0-.46.58-.92,1.15-1.39,1.71a.46.46,0,0,0,0,.71,56.13,56.13,0,0,0,9.87,8.38,76.59,76.59,0,0,0,6.89,4,5.52,5.52,0,0,1,1.34.9,1.14,1.14,0,0,1-.37,2,3.65,3.65,0,0,1-1.91.13,19.2,19.2,0,0,1-4.93-1.47,26.47,26.47,0,0,1-9.63-7.12,21.46,21.46,0,0,1-1.95-2.52,7.8,7.8,0,0,1-1.09-2.2c-.1-.38-.24-.31-.42-.07-.58.79-1.15,1.57-1.74,2.35a.45.45,0,0,0,0,.57,10.62,10.62,0,0,0,1.61,1.8A79.42,79.42,0,0,0,203,124.44c1.06.68,2.12,1.36,3.17,2a2.43,2.43,0,0,1,.54.47,1.58,1.58,0,0,1-.83,2.65,6.27,6.27,0,0,1-4.06,0,16.16,16.16,0,0,1-6.11-3.92,38.12,38.12,0,0,1-4.08-4.53c-1.52-1.94-3-3.93-4.53-5.84-.52-.63-.58-.63-1,0-.86,1.3-1.69,2.62-2.56,3.91-.25.36-.23.55.16.81,5.08,3.42,10,7,14.78,10.9a15.22,15.22,0,0,1,1.85,1.83,1.9,1.9,0,0,1,.3.49.94.94,0,0,1-.9,1.37,3.61,3.61,0,0,1-1.61-.39,35.84,35.84,0,0,1-5.92-3.55,94.53,94.53,0,0,1-9.93-8.48c-.33-.31-.45-.24-.65.1q-1.33,2.3-2.7,4.56c-.21.33-.15.47.21.62,4.89,2,9.67,4.33,14.42,6.69a14.36,14.36,0,0,1,2.38,1.44,3.81,3.81,0,0,1,1.13,1.2,1.16,1.16,0,0,1-.67,1.7,3.3,3.3,0,0,1-1.46.13A28.46,28.46,0,0,1,188,136.8a32.25,32.25,0,0,1-8.95-5.76c-.42-.36-.86-.71-1.26-1.08s-.41-.26-.59.09c-1.27,2.44-2.48,4.89-3.51,7.43a42.19,42.19,0,0,0-2.42,7.38A52.33,52.33,0,0,0,170,156c0,.57-.31.77-.89.55Z"/><path class="cls-4" d="M110.74,124.58a62.14,62.14,0,0,0-1.45-28.43C106.23,85.64,100.36,76,94.65,66.78q-2.55-4.12-5.24-8.17c-1.82-2.74-3.61-5.56-5.68-8.12-.35-.44-1.09,0-.77.47,1.5,2.39,3.2,4.66,4.78,7s3.13,4.72,4.65,7.1c3,4.74,5.9,9.56,8.62,14.47,5,9,8.85,18.41,9.82,28.74a62.71,62.71,0,0,1-.57,16.19c-.05.31.42.43.48.11Z"/><path class="cls-4" d="M106.07,88.49a34.23,34.23,0,0,1-28.81-4.32,29.79,29.79,0,0,1,29.06,4.71"/><path class="cls-4" d="M106.23,88.42a34.18,34.18,0,0,0,10.81-27,29.83,29.83,0,0,0-10.6,27.46"/><path class="cls-4" d="M100.46,77.21a34.17,34.17,0,0,1-28.8-4.32,29.85,29.85,0,0,1,29.06,4.71"/><path class="cls-4" d="M100.84,77.57c7.39-6.8,11.27-17.45,10.6-27.47a29.82,29.82,0,0,0-10.6,27.47"/><path class="cls-4" d="M94,66.93c-9.6,2.95-20.75.93-29.06-4.71A29.85,29.85,0,0,1,94,66.93"/><path class="cls-4" d="M94,67c7.39-6.8,11.27-17.45,10.6-27.47A29.84,29.84,0,0,0,94,67"/><path class="cls-4" d="M91.53,62.79c2-9.47-5.78-20.49-13.86-26.45-.28,10.28,5,21.14,13.86,26.45"/><path class="cls-4" d="M78,219.88A62.14,62.14,0,0,0,65.52,194.3c-6.95-8.45-16.13-15-25-21.24q-4-2.79-8-5.45c-2.76-1.8-5.51-3.69-8.42-5.23-.5-.26-1,.39-.53.74,2.32,1.61,4.79,3,7.16,4.56s4.73,3.11,7.07,4.71q6.95,4.76,13.62,9.9c8.13,6.31,15.37,13.45,20.33,22.56A62.65,62.65,0,0,1,77.55,220c.08.31.56.23.49-.08Z"/><path class="cls-4" d="M59.54,188.53a34.19,34.19,0,0,1-28.18,7.36,29.81,29.81,0,0,1,28.57-7.1"/><path class="cls-4" d="M59.67,188.41a34.2,34.2,0,0,0-.7-29.12A29.81,29.81,0,0,0,60,188.71"/><path class="cls-4" d="M50,180.37a34.23,34.23,0,0,1-28.18,7.36,29.81,29.81,0,0,1,28.57-7.1"/><path class="cls-4" d="M50.44,180.55c4.12-9.16,3.5-20.48-1.06-29.42a29.81,29.81,0,0,0,1.06,29.42"/><path class="cls-4" d="M40,173.46c-7.67,6.49-18.72,9-28.57,7.1A29.84,29.84,0,0,1,40,173.46"/><path class="cls-4" d="M40,173.48c4.12-9.15,3.5-20.47-1.06-29.42A29.81,29.81,0,0,0,40,173.48"/><path class="cls-4" d="M36.07,170.62c-1.88-9.49-13.37-16.56-23.15-18.86,3.79,9.56,13,17.45,23.15,18.86"/><rect class="cls-5" x="44.47" y="71.17" width="160.53" height="64.5" rx="4.23" transform="translate(248.54 -1.12) rotate(100.16)"/><rect class="cls-6" x="140.11" y="43.43" width="21.97" height="14.69" transform="matrix(-0.18, 0.98, -0.98, -0.18, 227.72, -89)"/><rect class="cls-6" x="87.29" y="119.02" width="100.52" height="14.69" transform="translate(286.2 13.26) rotate(100.16)"/><rect class="cls-7" x="125.01" y="44.98" width="21.97" height="6.17" transform="translate(207.3 -77.32) rotate(100.16)"/><rect class="cls-7" x="72.19" y="120.58" width="100.52" height="6.17" transform="translate(265.77 24.94) rotate(100.16)"/><rect class="cls-7" x="114.63" y="43.12" width="21.97" height="6.17" transform="translate(193.26 -69.29) rotate(100.16)"/><rect class="cls-7" x="103.84" y="41.19" width="21.97" height="6.17" transform="translate(178.66 -60.94) rotate(100.16)"/><rect class="cls-7" x="61.81" y="118.72" width="100.52" height="6.17" transform="matrix(-0.18, 0.98, -0.98, -0.18, 251.73, 32.97)"/><text class="cls-8" transform="matrix(-0.19, 1.09, -0.98, -0.18, 136.33, 107.31)"><tspan class="cls-9">TICK</tspan><tspan class="cls-10" x="33.41" y="0">E</tspan><tspan x="42.32" y="0">T</tspan></text><rect class="cls-11" x="107.11" y="72.29" width="1.43" height="9.26" transform="translate(202.56 -15.66) rotate(100.16)"/><rect class="cls-11" x="107.17" y="73.98" width="0.72" height="9.26" transform="translate(203.86 -13.37) rotate(100.15)"/><rect class="cls-11" x="106.93" y="75.33" width="0.72" height="9.26" transform="translate(204.92 -11.53) rotate(100.16)"/><polygon class="cls-11" points="102.41 80.92 102.56 80.09 111.67 81.79 111.52 82.61 102.41 80.92"/><rect class="cls-11" x="108.19" y="66.27" width="1.43" height="9.26" transform="translate(197.91 -23.79) rotate(100.16)"/><rect class="cls-11" x="108.25" y="67.97" width="0.72" height="9.26" transform="translate(199.23 -21.49) rotate(100.16)"/><rect class="cls-11" x="108.01" y="69.31" width="0.72" height="9.26" transform="translate(200.25 -19.69) rotate(100.15)"/><polygon class="cls-11" points="103.49 74.9 103.64 74.08 112.74 75.77 112.59 76.59 103.49 74.9"/><polygon class="cls-11" points="102.27 81.71 102.34 81.29 111.45 82.99 111.37 83.4 102.27 81.71"/><rect class="cls-11" x="106.17" y="79.56" width="0.72" height="9.26" transform="translate(208.17 -5.84) rotate(100.15)"/><polygon class="cls-11" points="101.65 85.15 101.8 84.33 110.91 86.02 110.76 86.84 101.65 85.15"/><polygon class="cls-11" points="101.51 85.94 101.58 85.53 110.69 87.22 110.61 87.63 101.51 85.94"/><polygon class="cls-11" points="102.12 82.49 102.2 82.08 111.3 83.77 111.23 84.19 102.12 82.49"/><rect class="cls-11" x="105.14" y="83.32" width="1.43" height="9.26" transform="translate(211.08 -0.75) rotate(100.15)"/><rect class="cls-11" x="105.19" y="85.01" width="0.72" height="9.26" transform="translate(212.39 1.54) rotate(100.15)"/><rect class="cls-11" x="104.95" y="86.36" width="0.72" height="9.26" transform="translate(213.46 3.4) rotate(100.17)"/><polygon class="cls-11" points="100.44 91.95 100.58 91.12 109.69 92.81 109.54 93.64 100.44 91.95"/><polygon class="cls-11" points="100.29 92.74 100.37 92.32 109.47 94.02 109.39 94.43 100.29 92.74"/><rect class="cls-11" x="104.19" y="90.59" width="0.72" height="9.26" transform="translate(216.71 9.09) rotate(100.15)"/><polygon class="cls-11" points="99.68 96.18 99.83 95.36 108.93 97.05 108.78 97.87 99.68 96.18"/><polygon class="cls-11" points="99.53 96.97 99.61 96.55 108.71 98.25 108.64 98.66 99.53 96.97"/><polygon class="cls-11" points="100.15 93.52 100.22 93.11 109.33 94.8 109.25 95.22 100.15 93.52"/><rect class="cls-11" x="103.11" y="94.62" width="1.43" height="9.26" transform="matrix(-0.18, 0.98, -0.98, -0.18, 219.83, 14.55)"/><rect class="cls-11" x="103.17" y="96.31" width="0.72" height="9.26" transform="translate(221.13 16.83) rotate(100.15)"/><rect class="cls-11" x="102.93" y="97.66" width="0.72" height="9.26" transform="translate(222.2 18.68) rotate(100.17)"/><polygon class="cls-11" points="98.41 103.25 98.56 102.42 107.66 104.11 107.51 104.94 98.41 103.25"/><polygon class="cls-11" points="98.27 104.03 98.34 103.62 107.45 105.31 107.37 105.73 98.27 104.03"/><rect class="cls-11" x="102.17" y="101.89" width="0.72" height="9.26" transform="translate(225.45 24.37) rotate(100.15)"/><polygon class="cls-11" points="97.65 107.48 97.8 106.65 106.91 108.34 106.76 109.17 97.65 107.48"/><polygon class="cls-11" points="97.51 108.27 97.58 107.85 106.69 109.55 106.61 109.96 97.51 108.27"/><polygon class="cls-11" points="98.12 104.82 98.2 104.41 107.3 106.1 107.23 106.51 98.12 104.82"/><rect class="cls-11" x="101.14" y="105.65" width="1.43" height="9.26" transform="translate(228.37 29.47) rotate(100.16)"/><rect class="cls-11" x="101.19" y="107.34" width="0.72" height="9.26" transform="matrix(-0.18, 0.98, -0.98, -0.18, 229.69, 31.78)"/><rect class="cls-11" x="100.95" y="108.69" width="0.72" height="9.26" transform="translate(230.7 33.56) rotate(100.15)"/><polygon class="cls-11" points="96.43 114.28 96.58 113.45 105.69 115.14 105.54 115.97 96.43 114.28"/><polygon class="cls-11" points="96.29 115.06 96.37 114.65 105.47 116.34 105.39 116.76 96.29 115.06"/><rect class="cls-11" x="100.19" y="112.92" width="0.72" height="9.26" transform="matrix(-0.18, 0.98, -0.98, -0.18, 234, 39.33)"/><polygon class="cls-11" points="95.68 118.51 95.83 117.68 104.93 119.38 104.78 120.2 95.68 118.51"/><polygon class="cls-11" points="96.15 115.85 96.22 115.44 105.33 117.13 105.25 117.54 96.15 115.85"/><line class="cls-12" x1="163.01" y1="72.67" x2="162.78" y2="72.63"/><line class="cls-13" x1="162.31" y1="72.54" x2="99.99" y2="61.38"/><line class="cls-12" x1="99.76" y1="61.34" x2="99.52" y2="61.29"/><path class="cls-14" d="M91.29,168.88s.41-.38.85-.86h0a9.52,9.52,0,0,0,.7-.87,2.53,2.53,0,0,0,.23-.67c0-.12,0-.26.08-.4a2.07,2.07,0,0,1,0-.22c.19-1.2.3-2.88.36-3.88l1.85-2.15a1,1,0,0,0,.19-.43c0-.12.19-1.46.19-1.46s-.07.24-.55.61a11,11,0,0,1-1.41.75l.52-4.18,3-1.71.13-1h0l.09-.73-3.71,1.44h0l-.36.14L91.71,156s-.09.43-.22,1.12a6.68,6.68,0,0,1-.67-.83,1.94,1.94,0,0,1-.32-.89l-.22,1.82a1.35,1.35,0,0,0,0,.56l.2.59c0,.12-.08.67-.1.83a2.1,2.1,0,0,0,.23.7,2.38,2.38,0,0,0,.2-.56l.15.42c-.05.3-.11.61-.16.93a.08.08,0,0,0-.08,0h-.44a.17.17,0,0,0-.14.1,7.29,7.29,0,0,0-.23.89,1.85,1.85,0,0,0,0,.41.1.1,0,0,0,0,.05s0,.08.06.08h0v0a.18.18,0,0,0,.14.11l.18,0a7.64,7.64,0,0,0-.24.95,1.12,1.12,0,0,0,0,.41s0,0,0,.05a.08.08,0,0,0,.06.08h0v0a.16.16,0,0,0,.13.12l.15,0a14.17,14.17,0,0,0-.12,3.57C90.72,169.85,91.29,168.88,91.29,168.88Z"/><path class="cls-14" d="M92.85,167.14c-.19.28.23-.26,0,0Z"/><rect class="cls-5" x="68.02" y="61.64" width="160.53" height="64.5" rx="4.23" transform="translate(237.65 -57.17) rotate(88.27)"/><rect class="cls-14" x="152.24" y="29.6" width="21.97" height="14.69" transform="translate(195.22 -127.33) rotate(88.27)"/><rect class="cls-14" x="115.29" y="106.36" width="100.52" height="14.69" transform="translate(274.2 -55.21) rotate(88.27)"/><rect class="cls-7" x="136.91" y="34.32" width="21.97" height="6.17" transform="translate(180.81 -111.56) rotate(88.27)"/><rect class="cls-7" x="99.96" y="111.08" width="100.52" height="6.17" transform="translate(259.79 -39.43) rotate(88.27)"/><rect class="cls-7" x="126.37" y="34.64" width="21.97" height="6.17" transform="translate(170.91 -100.71) rotate(88.27)"/><rect class="cls-7" x="115.41" y="34.97" width="21.97" height="6.17" transform="translate(160.61 -89.43) rotate(88.27)"/><rect class="cls-7" x="89.42" y="111.4" width="100.52" height="6.17" transform="translate(249.89 -28.59) rotate(88.27)"/><text class="cls-15" transform="matrix(0.03, 1.1, -1, 0.03, 160.66, 95.23)"><tspan class="cls-16">TICK</tspan><tspan class="cls-17" x="33.41" y="0">E</tspan><tspan x="42.31" y="0">T</tspan></text><rect class="cls-11" x="125.56" y="66.81" width="1.43" height="9.26" transform="translate(193.86 -56.94) rotate(88.27)"/><rect class="cls-11" x="125.97" y="68.53" width="0.72" height="9.26" transform="translate(195.64 -55.32) rotate(88.27)"/><rect class="cls-11" x="126.01" y="69.9" width="0.72" height="9.26" transform="translate(197 -54.06) rotate(88.25)"/><polygon class="cls-11" points="121.8 76.47 121.78 75.63 131.03 75.41 131.06 76.25 121.8 76.47"/><rect class="cls-11" x="125.38" y="60.7" width="1.43" height="9.26" transform="translate(187.6 -62.67) rotate(88.27)"/><rect class="cls-11" x="125.79" y="62.42" width="0.72" height="9.26" transform="translate(189.35 -61.06) rotate(88.27)"/><rect class="cls-11" x="125.83" y="63.79" width="0.72" height="9.26" transform="translate(190.76 -59.78) rotate(88.27)"/><polygon class="cls-11" points="121.62 70.36 121.59 69.53 130.85 69.3 130.87 70.14 121.62 70.36"/><polygon class="cls-11" points="121.82 77.27 121.81 76.85 131.07 76.63 131.08 77.05 121.82 77.27"/><rect class="cls-11" x="126.14" y="74.19" width="0.72" height="9.26" transform="translate(201.46 -50.01) rotate(88.27)"/><polygon class="cls-11" points="121.93 80.77 121.91 79.93 131.16 79.71 131.19 80.55 121.93 80.77"/><polygon class="cls-11" points="121.95 81.57 121.94 81.15 131.2 80.93 131.21 81.35 121.95 81.57"/><polygon class="cls-11" points="121.84 78.07 121.83 77.65 131.09 77.43 131.1 77.85 121.84 78.07"/><rect class="cls-11" x="125.9" y="78.01" width="1.43" height="9.26" transform="translate(205.39 -46.42) rotate(88.27)"/><rect class="cls-11" x="126.31" y="79.73" width="0.72" height="9.26" transform="translate(207.16 -44.8) rotate(88.27)"/><rect class="cls-11" x="126.35" y="81.1" width="0.72" height="9.26" transform="translate(208.56 -43.52) rotate(88.27)"/><polygon class="cls-11" points="122.14 87.67 122.12 86.83 131.37 86.61 131.4 87.45 122.14 87.67"/><polygon class="cls-11" points="122.16 88.47 122.15 88.05 131.41 87.83 131.42 88.25 122.16 88.47"/><rect class="cls-11" x="126.48" y="85.39" width="0.72" height="9.26" transform="translate(212.99 -39.48) rotate(88.27)"/><polygon class="cls-11" points="122.27 91.97 122.25 91.13 131.5 90.91 131.53 91.75 122.27 91.97"/><polygon class="cls-11" points="122.29 92.77 122.28 92.35 131.54 92.13 131.55 92.55 122.29 92.77"/><polygon class="cls-11" points="122.18 89.27 122.17 88.85 131.43 88.63 131.44 89.05 122.18 89.27"/><rect class="cls-11" x="126.25" y="89.48" width="1.43" height="9.26" transform="translate(217.19 -35.64) rotate(88.27)"/><rect class="cls-11" x="126.66" y="91.21" width="0.72" height="9.26" transform="translate(218.97 -34.02) rotate(88.27)"/><rect class="cls-11" x="126.7" y="92.57" width="0.72" height="9.26" transform="translate(220.37 -32.74) rotate(88.27)"/><polygon class="cls-11" points="122.49 99.14 122.46 98.31 131.72 98.09 131.74 98.92 122.49 99.14"/><polygon class="cls-11" points="122.51 99.94 122.5 99.53 131.75 99.31 131.76 99.72 122.51 99.94"/><rect class="cls-11" x="126.83" y="96.87" width="0.72" height="9.26" transform="translate(224.83 -28.67) rotate(88.28)"/><polygon class="cls-11" points="122.62 103.44 122.59 102.6 131.85 102.38 131.87 103.22 122.62 103.44"/><polygon class="cls-11" points="122.64 104.24 122.63 103.82 131.88 103.6 131.9 104.02 122.64 104.24"/><polygon class="cls-11" points="122.53 100.75 122.52 100.33 131.78 100.11 131.79 100.53 122.53 100.75"/><rect class="cls-11" x="126.59" y="100.68" width="1.43" height="9.26" transform="translate(228.72 -25.12) rotate(88.27)"/><rect class="cls-11" x="127" y="102.41" width="0.72" height="9.26" transform="translate(230.49 -23.5) rotate(88.27)"/><rect class="cls-11" x="127.04" y="103.77" width="0.72" height="9.26" transform="translate(231.89 -22.22) rotate(88.27)"/><polygon class="cls-11" points="122.83 110.34 122.8 109.51 132.06 109.29 132.08 110.12 122.83 110.34"/><polygon class="cls-11" points="122.85 111.14 122.84 110.73 132.09 110.5 132.1 110.92 122.85 111.14"/><rect class="cls-11" x="127.17" y="108.07" width="0.72" height="9.26" transform="translate(236.32 -18.18) rotate(88.27)"/><polygon class="cls-11" points="122.95 114.64 122.93 113.8 132.19 113.58 132.21 114.42 122.95 114.64"/><polygon class="cls-11" points="122.87 111.94 122.86 111.53 132.11 111.31 132.13 111.72 122.87 111.94"/><line class="cls-12" x1="179.4" y1="55.91" x2="179.16" y2="55.92"/><line class="cls-18" x1="178.69" y1="55.93" x2="115.41" y2="57.85"/><line class="cls-12" x1="115.17" y1="57.85" x2="114.93" y2="57.86"/><path class="cls-14" d="M129,164.84s.33-.46.66-1h0a8.57,8.57,0,0,0,.51-1,2.64,2.64,0,0,0,.09-.7c0-.13,0-.26,0-.41a1.7,1.7,0,0,0,0-.22c-.06-1.21-.29-2.88-.45-3.88,1.3-2.35,1.31-2.36,1.38-2.48a1,1,0,0,0,.09-.46c0-.12-.11-1.47-.11-1.47a1.55,1.55,0,0,1-.41.72,13,13,0,0,1-1.23,1l-.35-4.2,2.62-2.3-.08-1h0l-.06-.74-3.34,2.18h0l-.32.21-1.23,3.07s0,.43,0,1.14a7,7,0,0,1-.83-.68,1.89,1.89,0,0,1-.49-.81s.14,1.67.15,1.83a1.31,1.31,0,0,0,.17.54l.32.54c0,.12.05.67.07.83a2.06,2.06,0,0,0,.37.64,2,2,0,0,0,.08-.59l.23.38c0,.31,0,.62,0,.94a.14.14,0,0,0-.09,0l-.43.1a.15.15,0,0,0-.11.13,6.11,6.11,0,0,0,0,.92,1.39,1.39,0,0,0,.09.4,0,0,0,0,0,0,.06.07.07,0,0,0,.07.06h0l0,0a.14.14,0,0,0,.15.09l.19,0a7,7,0,0,0,0,1,1.47,1.47,0,0,0,.09.41.05.05,0,0,0,0,0,.08.08,0,0,0,.08.07h0v0a.2.2,0,0,0,.16.09h.14a14.35,14.35,0,0,0,.62,3.52C128.68,165.91,129,164.84,129,164.84Z"/><path class="cls-14" d="M130.21,162.81c-.13.32.17-.3,0,0Z"/><polygon class="cls-19" points="208.14 103.1 51.89 103.1 40.42 261.12 221.38 261.12 208.14 103.1"/><polygon class="cls-20" points="208.14 103.1 40.42 261.12 221.38 261.12 208.14 103.1"/><polygon class="cls-21" points="51.89 103.1 85.44 91.63 85.44 103.1 51.89 103.1"/><polygon class="cls-7" points="85.44 91.63 59.84 79.27 59.84 100.39 85.44 91.63"/><polygon class="cls-21" points="208.14 103.1 175.48 91.63 175.48 103.1 208.14 103.1"/><polygon class="cls-7" points="175.48 91.63 201.08 79.27 201.08 100.39 175.48 91.63"/><path class="cls-3" d="M109.53,126.38a2.18,2.18,0,1,1-2.18-2.17A2.19,2.19,0,0,1,109.53,126.38Z"/><path class="cls-22" d="M107.27,125.06a1.32,1.32,0,0,1,.17,2.64,1.31,1.31,0,0,1-1.4-1.23A1.32,1.32,0,0,1,107.27,125.06Z"/><path class="cls-3" d="M156.62,126.38a2.18,2.18,0,1,1-2.17-2.17A2.18,2.18,0,0,1,156.62,126.38Z"/><path class="cls-23" d="M154.36,125.06a1.32,1.32,0,1,1,.18,2.64,1.32,1.32,0,0,1-.18-2.64Z"/><path class="cls-24" d="M107.35,126.57c0,1.08.08,13.86.22,14.9A23.3,23.3,0,0,0,130,161.72c.88,0,1.72,0,2.51,0A23.37,23.37,0,0,0,154,142.81c.29-1.46.44-14.69.44-16.24"/><polygon class="cls-11" points="48.71 109.93 61.87 107.48 48.71 105.03 47.17 103.5 44.72 90.33 42.27 103.5 40.73 105.03 27.57 107.48 40.73 109.93 42.27 111.47 44.72 124.63 47.17 111.47 48.71 109.93"/><polygon class="cls-11" points="231.96 249.45 245.12 247 231.96 244.56 230.42 243.02 227.97 229.85 225.52 243.02 223.98 244.56 210.82 247 223.98 249.45 225.52 250.99 227.97 264.15 230.42 250.99 231.96 249.45"/><polygon class="cls-11" points="39.68 224.74 48.23 223.15 39.68 221.56 38.68 220.56 37.09 212 35.49 220.56 34.49 221.56 25.94 223.15 34.49 224.74 35.49 225.74 37.09 234.29 38.68 225.74 39.68 224.74"/><path class="cls-19" d="M26.92,136h0a6.63,6.63,0,0,1-11.06,3.08h0A6.63,6.63,0,0,1,18.72,128h0a6.64,6.64,0,0,1,8.2,8Z"/><polygon class="cls-7" points="237.3 201.08 239.94 201.07 239.4 204.1 236.76 204.11 236.27 206.81 233.22 206.83 233.71 204.13 231.07 204.15 231.61 201.12 234.25 201.1 234.74 198.4 237.78 198.39 237.3 201.08"/><path class="cls-25" d="M21.57,137.24a7.06,7.06,0,1,1,5.08,8.6A7.06,7.06,0,0,1,21.57,137.24Z"/><polygon class="cls-11" points="173.97 137.46 189.12 172.49 250.18 116.8 189.12 157.9 173.97 137.46"/><rect class="cls-5" x="129.23" y="148.94" width="1.9" height="87.28"/><rect class="cls-5" x="129.23" y="148.94" width="1.9" height="87.28" transform="translate(322.75 62.4) rotate(90)"/></g></g></g></svg>