<svg xmlns="http://www.w3.org/2000/svg" xmlns:xlink="http://www.w3.org/1999/xlink" viewBox="0 0 304 191"><defs><style>.cls-1{fill:#232323;}.cls-10,.cls-15,.cls-2{opacity:0.89;}.cls-2{fill:url(#linear-gradient);}.cls-3{fill:url(#linear-gradient-2);}.cls-4{fill:#2d2d2d;}.cls-5{fill:url(#linear-gradient-3);}.cls-6{fill:url(#linear-gradient-4);}.cls-7{fill:url(#linear-gradient-5);}.cls-8{fill:url(#linear-gradient-6);}.cls-9{fill:url(#linear-gradient-7);}.cls-11{fill:url(#linear-gradient-8);}.cls-12{fill:url(#linear-gradient-9);}.cls-13{fill:url(#linear-gradient-10);}.cls-14{fill:url(#linear-gradient-11);}.cls-15{fill:url(#linear-gradient-12);}</style><linearGradient id="linear-gradient" x1="49.72" y1="79.71" x2="58.28" y2="65.25" gradientUnits="userSpaceOnUse"><stop offset="0"/><stop offset="1" stop-color="#242424"/></linearGradient><linearGradient id="linear-gradient-2" x1="38.69" y1="39.11" x2="60.23" y2="79.59" gradientUnits="userSpaceOnUse"><stop offset="0" stop-color="#dbdad7"/><stop offset="0.05" stop-color="#d7d4d3"/><stop offset="0.16" stop-color="#fff"/><stop offset="0.24" stop-color="#e8e6e5"/><stop offset="0.29" stop-color="#c8e7db"/><stop offset="0.35" stop-color="#ced1dc"/><stop offset="0.43" stop-color="#dbdad7"/><stop offset="0.53" stop-color="#eeeaef"/><stop offset="0.6" stop-color="#fff"/><stop offset="0.74" stop-color="#d9def0"/><stop offset="0.88" stop-color="#a6a6b3"/><stop offset="1" stop-color="#b2b1bb"/></linearGradient><linearGradient id="linear-gradient-3" x1="48.22" y1="81.48" x2="63.31" y2="57.88" xlink:href="#linear-gradient-2"/><linearGradient id="linear-gradient-4" x1="64.44" y1="41.1" x2="74.46" y2="70.34" xlink:href="#linear-gradient-2"/><linearGradient id="linear-gradient-5" x1="26.55" y1="43.72" x2="40.11" y2="81.83" xlink:href="#linear-gradient-2"/><linearGradient id="linear-gradient-6" x1="45.94" y1="42.29" x2="56.43" y2="74.43" xlink:href="#linear-gradient-2"/><linearGradient id="linear-gradient-7" x1="48.2" y1="48.51" x2="56.42" y2="73.66" xlink:href="#linear-gradient-2"/><linearGradient id="linear-gradient-8" x1="54.86" y1="54.13" x2="55.12" y2="54.13" xlink:href="#linear-gradient"/><linearGradient id="linear-gradient-9" x1="55.62" y1="54.13" x2="55.88" y2="54.13" xlink:href="#linear-gradient"/><linearGradient id="linear-gradient-10" x1="54.86" y1="85.82" x2="55.12" y2="85.82" xlink:href="#linear-gradient"/><linearGradient id="linear-gradient-11" x1="55.62" y1="85.82" x2="55.88" y2="85.82" xlink:href="#linear-gradient"/><linearGradient id="linear-gradient-12" x1="48.44" y1="70.13" x2="62.1" y2="70.13" xlink:href="#linear-gradient"/></defs><title>ccard</title><g id="Capa_2" data-name="Capa 2"><g id="Capa_1-2" data-name="Capa 1"><rect class="cls-1" width="304" height="191" rx="13.88"/><path class="cls-2" d="M78.67,81a7.21,7.21,0,0,1-7.22,7.21H39.33A7.21,7.21,0,0,1,32.11,81V59.32a7.22,7.22,0,0,1,7.22-7.22H71.45a7.22,7.22,0,0,1,7.22,7.22Z"/><path class="cls-3" d="M77.91,80.43a7.1,7.1,0,0,1-7.11,7.09H39.22a7.1,7.1,0,0,1-7.11-7.09V59.13A7.1,7.1,0,0,1,39.22,52H70.8a7.1,7.1,0,0,1,7.11,7.09Z"/><path class="cls-4" d="M71.14,52H39.56a7.1,7.1,0,0,0-7.11,7.09v21.3a7.1,7.1,0,0,0,7.11,7.09H71.14a7.1,7.1,0,0,0,7.11-7.09V59.13A7.1,7.1,0,0,0,71.14,52ZM62,75.63c0,3.89-3,8.74-6.61,8.74s-6.61-4.85-6.61-8.74A7.22,7.22,0,0,1,51.32,70a7.24,7.24,0,0,1-2.58-5.59c0-3.89,3-8.89,6.67-8.89s6.55,5,6.55,8.89A7.19,7.19,0,0,1,59.36,70,7.17,7.17,0,0,1,62,75.63Z"/><path class="cls-5" d="M48.66,75.51a7.06,7.06,0,0,1,2.47-5.4h0a7,7,0,0,1-2.47-5.39h0c0-3.86,3-8.78,6.9-8.82h0c3.86,0,6.75,5,6.76,8.82h0a7.1,7.1,0,0,1-2.46,5.39h0a7.12,7.12,0,0,1,2.46,5.4h0c0,3.86-3,8.61-6.84,8.65h0c-3.84,0-6.8-4.79-6.82-8.65ZM51,59.15a9.89,9.89,0,0,0-1.94,5.57h0a6.58,6.58,0,0,0,2.51,5.2h0a.31.31,0,0,1,.09.19h0a.22.22,0,0,1-.09.17h0a6.66,6.66,0,0,0-2.51,5.23h0A9.7,9.7,0,0,0,51,81h0a5.87,5.87,0,0,0,4.48,2.72h0A5.87,5.87,0,0,0,60,81h0a9.7,9.7,0,0,0,1.9-5.49h0a6.72,6.72,0,0,0-2.51-5.23h0l.13-.17.14.17-.14-.17-.13.17a.2.2,0,0,1-.09-.17h0a.26.26,0,0,1,.09-.19h0a6.64,6.64,0,0,0,2.51-5.2h0A10.32,10.32,0,0,0,60,59.13h0a5.8,5.8,0,0,0-4.47-2.77h0A5.85,5.85,0,0,0,51,59.15Z"/><path class="cls-6" d="M77.91,61.85v-2.7a7.11,7.11,0,0,0-5.32-6.86v9.56ZM72.59,87.31a7.07,7.07,0,0,0,5.32-6.86V77.91H72.59Zm0-10h5.32V70.47H72.59Zm0-15v7.52h5.32V62.4Z"/><path class="cls-7" d="M32.45,77.92v2.55a7.09,7.09,0,0,0,4.81,6.69V77.92Zm4.81-7.42H32.45v6.87h4.81Zm0-8.08H32.45v7.52h4.81Zm0-10a7.09,7.09,0,0,0-4.81,6.71v2.7h4.81Z"/><path class="cls-8" d="M37.53,77.92v9.39a7.36,7.36,0,0,0,1.84.25H71a7.19,7.19,0,0,0,1.31-.14v-9.5Zm0-8H72.28V62.42H37.53Zm0,7.43H72.28V70.5H37.53Zm34.75-15.5V52.19A8.17,8.17,0,0,0,71,52.08H39.37a6.54,6.54,0,0,0-1.84.25v9.54Z"/><path class="cls-9" d="M55.33,56.37c-3.5,0-6.42,4.77-6.42,8.5a6.82,6.82,0,0,0,2.51,5.32,6.84,6.84,0,0,0-2.51,5.32c0,3.73,2.85,8.34,6.37,8.34s6.36-4.61,6.36-8.34a6.82,6.82,0,0,0-2.49-5.32,6.81,6.81,0,0,0,2.49-5.32C61.64,61.14,58.87,56.37,55.33,56.37Z"/><g class="cls-10"><polygon class="cls-11" points="54.86 56.24 54.86 52.02 55.12 52.02 55.12 56.24 54.86 56.24 54.86 56.24"/><polygon class="cls-12" points="55.62 56.24 55.62 52.02 55.88 52.02 55.88 56.24 55.62 56.24 55.62 56.24"/></g><g class="cls-10"><polygon class="cls-13" points="54.86 87.61 54.86 84.02 55.12 84.02 55.12 87.61 54.86 87.61 54.86 87.61"/><polygon class="cls-14" points="55.62 87.61 55.62 84.02 55.88 84.02 55.88 87.61 55.62 87.61 55.62 87.61"/></g><path class="cls-15" d="M48.44,75.61a7,7,0,0,1,2.46-5.4h0a7,7,0,0,1-2.46-5.4h0c0-3.86,3-8.76,6.89-8.79h0c3.86,0,6.75,4.93,6.77,8.79h0a7.11,7.11,0,0,1-2.47,5.4h0a7.11,7.11,0,0,1,2.47,5.4h0c0,3.86-3,8.62-6.84,8.64h0c-3.84,0-6.81-4.78-6.82-8.64Zm2.37-16.37a9.94,9.94,0,0,0-1.94,5.57h0A6.69,6.69,0,0,0,51.38,70h0a.21.21,0,0,1,.09.17h0a.21.21,0,0,1-.09.17h0a6.69,6.69,0,0,0-2.51,5.23h0a9.7,9.7,0,0,0,1.9,5.49h0a5.9,5.9,0,0,0,4.49,2.71h0a5.88,5.88,0,0,0,4.5-2.71h0a9.67,9.67,0,0,0,1.88-5.49h0a6.66,6.66,0,0,0-2.51-5.23h0l.16-.17.13.17-.13-.17-.16.17a.33.33,0,0,1-.07-.17h0a.33.33,0,0,1,.07-.17h0a6.66,6.66,0,0,0,2.51-5.23h0a10.14,10.14,0,0,0-1.86-5.57h0a5.71,5.71,0,0,0-4.45-2.79h0a5.91,5.91,0,0,0-4.5,2.79Z"/></g></g></svg>