<svg xmlns="http://www.w3.org/2000/svg" xmlns:xlink="http://www.w3.org/1999/xlink" viewBox="0 0 243.4 148.53"><defs><style>.cls-1{isolation:isolate;}.cls-2{fill:url(#_ÂÁ_Ï_ÌÌ_È_ËÂÌÚ_31);}.cls-3{fill:url(#_ÂÁ_Ï_ÌÌ_È_ËÂÌÚ_31-2);}.cls-4{fill:#8a111d;}.cls-5{fill:#2a3e51;}.cls-12,.cls-23,.cls-6{mix-blend-mode:multiply;}.cls-6{fill:url(#_ÂÁ_Ï_ÌÌ_È_ËÂÌÚ_25);}.cls-13,.cls-14,.cls-19,.cls-20,.cls-21,.cls-22,.cls-49,.cls-50,.cls-55,.cls-56,.cls-57,.cls-58,.cls-7,.cls-84,.cls-85,.cls-9{mix-blend-mode:screen;}.cls-7{fill:url(#_ÂÁ_Ï_ÌÌ_È_ËÂÌÚ_40);}.cls-8{fill:#476f87;}.cls-9{fill:url(#_ÂÁ_Ï_ÌÌ_È_ËÂÌÚ_40-2);}.cls-10{fill:url(#_ÂÁ_Ï_ÌÌ_È_ËÂÌÚ_31-3);}.cls-11{fill:url(#_ÂÁ_Ï_ÌÌ_È_ËÂÌÚ_31-4);}.cls-12{fill:url(#_ÂÁ_Ï_ÌÌ_È_ËÂÌÚ_25-2);}.cls-13{fill:url(#_ÂÁ_Ï_ÌÌ_È_ËÂÌÚ_40-3);}.cls-14{fill:url(#_ÂÁ_Ï_ÌÌ_È_ËÂÌÚ_40-4);}.cls-15{fill:url(#_ÂÁ_Ï_ÌÌ_È_ËÂÌÚ_187);}.cls-16{fill:#d44e2f;}.cls-17{fill:url(#_ÂÁ_Ï_ÌÌ_È_ËÂÌÚ_72);}.cls-18{fill:url(#_ÂÁ_Ï_ÌÌ_È_ËÂÌÚ_181);}.cls-19{fill:url(#_ÂÁ_Ï_ÌÌ_È_ËÂÌÚ_40-5);}.cls-20{fill:url(#_ÂÁ_Ï_ÌÌ_È_ËÂÌÚ_40-6);}.cls-21{fill:url(#_ÂÁ_Ï_ÌÌ_È_ËÂÌÚ_40-7);}.cls-22{fill:url(#_ÂÁ_Ï_ÌÌ_È_ËÂÌÚ_40-8);}.cls-24{fill:url(#_ÂÁ_Ï_ÌÌ_È_ËÂÌÚ_42);}.cls-25{fill:url(#_ÂÁ_Ï_ÌÌ_È_ËÂÌÚ_42-2);}.cls-26{fill:url(#_ÂÁ_Ï_ÌÌ_È_ËÂÌÚ_42-3);}.cls-27{fill:url(#_ÂÁ_Ï_ÌÌ_È_ËÂÌÚ_42-4);}.cls-28{fill:url(#_ÂÁ_Ï_ÌÌ_È_ËÂÌÚ_42-5);}.cls-29{fill:url(#_ÂÁ_Ï_ÌÌ_È_ËÂÌÚ_42-6);}.cls-30{fill:url(#_ÂÁ_Ï_ÌÌ_È_ËÂÌÚ_42-7);}.cls-31{fill:url(#_ÂÁ_Ï_ÌÌ_È_ËÂÌÚ_42-8);}.cls-32{fill:url(#_ÂÁ_Ï_ÌÌ_È_ËÂÌÚ_42-9);}.cls-33{fill:url(#_ÂÁ_Ï_ÌÌ_È_ËÂÌÚ_42-10);}.cls-34{fill:url(#_ÂÁ_Ï_ÌÌ_È_ËÂÌÚ_42-11);}.cls-35{fill:url(#_ÂÁ_Ï_ÌÌ_È_ËÂÌÚ_42-12);}.cls-36{fill:url(#_ÂÁ_Ï_ÌÌ_È_ËÂÌÚ_42-13);}.cls-37{fill:url(#_ÂÁ_Ï_ÌÌ_È_ËÂÌÚ_42-14);}.cls-38{fill:url(#_ÂÁ_Ï_ÌÌ_È_ËÂÌÚ_42-15);}.cls-39{fill:url(#_ÂÁ_Ï_ÌÌ_È_ËÂÌÚ_42-16);}.cls-40{fill:url(#_ÂÁ_Ï_ÌÌ_È_ËÂÌÚ_42-17);}.cls-41{fill:url(#_ÂÁ_Ï_ÌÌ_È_ËÂÌÚ_42-18);}.cls-42{fill:url(#_ÂÁ_Ï_ÌÌ_È_ËÂÌÚ_42-19);}.cls-43{fill:url(#_ÂÁ_Ï_ÌÌ_È_ËÂÌÚ_42-20);}.cls-44{fill:url(#_ÂÁ_Ï_ÌÌ_È_ËÂÌÚ_42-21);}.cls-45{fill:url(#_ÂÁ_Ï_ÌÌ_È_ËÂÌÚ_42-22);}.cls-46{fill:url(#_ÂÁ_Ï_ÌÌ_È_ËÂÌÚ_42-23);}.cls-47{fill:url(#_ÂÁ_Ï_ÌÌ_È_ËÂÌÚ_42-24);}.cls-48{fill:url(#_ÂÁ_Ï_ÌÌ_È_ËÂÌÚ_42-25);}.cls-49{fill:url(#_ÂÁ_Ï_ÌÌ_È_ËÂÌÚ_40-9);}.cls-50{fill:url(#_ÂÁ_Ï_ÌÌ_È_ËÂÌÚ_40-10);}.cls-51{fill:url(#_ÂÁ_Ï_ÌÌ_È_ËÂÌÚ_11);}.cls-52{fill:#3b8399;}.cls-53{fill:url(#_ÂÁ_Ï_ÌÌ_È_ËÂÌÚ_72-2);}.cls-54{fill:url(#_ÂÁ_Ï_ÌÌ_È_ËÂÌÚ_181-2);}.cls-55{fill:url(#_ÂÁ_Ï_ÌÌ_È_ËÂÌÚ_40-11);}.cls-56{fill:url(#_ÂÁ_Ï_ÌÌ_È_ËÂÌÚ_40-12);}.cls-57{fill:url(#_ÂÁ_Ï_ÌÌ_È_ËÂÌÚ_40-13);}.cls-58{fill:url(#_ÂÁ_Ï_ÌÌ_È_ËÂÌÚ_40-14);}.cls-59{fill:url(#_ÂÁ_Ï_ÌÌ_È_ËÂÌÚ_42-26);}.cls-60{fill:url(#_ÂÁ_Ï_ÌÌ_È_ËÂÌÚ_42-27);}.cls-61{fill:url(#_ÂÁ_Ï_ÌÌ_È_ËÂÌÚ_42-28);}.cls-62{fill:url(#_ÂÁ_Ï_ÌÌ_È_ËÂÌÚ_42-29);}.cls-63{fill:url(#_ÂÁ_Ï_ÌÌ_È_ËÂÌÚ_42-30);}.cls-64{fill:url(#_ÂÁ_Ï_ÌÌ_È_ËÂÌÚ_42-31);}.cls-65{fill:url(#_ÂÁ_Ï_ÌÌ_È_ËÂÌÚ_42-32);}.cls-66{fill:url(#_ÂÁ_Ï_ÌÌ_È_ËÂÌÚ_42-33);}.cls-67{fill:url(#_ÂÁ_Ï_ÌÌ_È_ËÂÌÚ_42-34);}.cls-68{fill:url(#_ÂÁ_Ï_ÌÌ_È_ËÂÌÚ_42-35);}.cls-69{fill:url(#_ÂÁ_Ï_ÌÌ_È_ËÂÌÚ_42-36);}.cls-70{fill:url(#_ÂÁ_Ï_ÌÌ_È_ËÂÌÚ_42-37);}.cls-71{fill:url(#_ÂÁ_Ï_ÌÌ_È_ËÂÌÚ_42-38);}.cls-72{fill:url(#_ÂÁ_Ï_ÌÌ_È_ËÂÌÚ_42-39);}.cls-73{fill:url(#_ÂÁ_Ï_ÌÌ_È_ËÂÌÚ_42-40);}.cls-74{fill:url(#_ÂÁ_Ï_ÌÌ_È_ËÂÌÚ_42-41);}.cls-75{fill:url(#_ÂÁ_Ï_ÌÌ_È_ËÂÌÚ_42-42);}.cls-76{fill:url(#_ÂÁ_Ï_ÌÌ_È_ËÂÌÚ_42-43);}.cls-77{fill:url(#_ÂÁ_Ï_ÌÌ_È_ËÂÌÚ_42-44);}.cls-78{fill:url(#_ÂÁ_Ï_ÌÌ_È_ËÂÌÚ_42-45);}.cls-79{fill:url(#_ÂÁ_Ï_ÌÌ_È_ËÂÌÚ_42-46);}.cls-80{fill:url(#_ÂÁ_Ï_ÌÌ_È_ËÂÌÚ_42-47);}.cls-81{fill:url(#_ÂÁ_Ï_ÌÌ_È_ËÂÌÚ_42-48);}.cls-82{fill:url(#_ÂÁ_Ï_ÌÌ_È_ËÂÌÚ_42-49);}.cls-83{fill:url(#_ÂÁ_Ï_ÌÌ_È_ËÂÌÚ_42-50);}.cls-84{fill:url(#_ÂÁ_Ï_ÌÌ_È_ËÂÌÚ_40-15);}.cls-85{fill:url(#_ÂÁ_Ï_ÌÌ_È_ËÂÌÚ_40-16);}.cls-86{fill:url(#_ÂÁ_Ï_ÌÌ_È_ËÂÌÚ_12);}</style><linearGradient id="_ÂÁ_Ï_ÌÌ_È_ËÂÌÚ_31" x1="270.77" y1="-186.63" x2="236.01" y2="-163.8" gradientTransform="matrix(0.95, -0.31, 0.31, 0.95, 11.93, 360.45)" gradientUnits="userSpaceOnUse"><stop offset="0" stop-color="#ff754a"/><stop offset="1" stop-color="#ab2718"/></linearGradient><linearGradient id="_ÂÁ_Ï_ÌÌ_È_ËÂÌÚ_31-2" x1="264.97" y1="-195.46" x2="230.21" y2="-172.63" xlink:href="#_ÂÁ_Ï_ÌÌ_È_ËÂÌÚ_31"/><linearGradient id="_ÂÁ_Ï_ÌÌ_È_ËÂÌÚ_25" x1="263.19" y1="-192.35" x2="242.16" y2="-174.41" gradientTransform="matrix(0.95, -0.31, 0.31, 0.95, 11.93, 360.45)" gradientUnits="userSpaceOnUse"><stop offset="0" stop-color="#c48274"/><stop offset="0.15" stop-color="#c68679"/><stop offset="0.32" stop-color="#cc9387"/><stop offset="0.51" stop-color="#d6a89e"/><stop offset="0.71" stop-color="#e4c5bf"/><stop offset="0.9" stop-color="#f5ebe8"/><stop offset="1" stop-color="#fff"/></linearGradient><linearGradient id="_ÂÁ_Ï_ÌÌ_È_ËÂÌÚ_40" x1="274.51" y1="-196.36" x2="239.14" y2="-183.05" gradientTransform="matrix(0.95, -0.31, 0.31, 0.95, 11.93, 360.45)" gradientUnits="userSpaceOnUse"><stop offset="0.17" stop-color="#bdb58f"/><stop offset="0.26" stop-color="#b3ac88"/><stop offset="0.41" stop-color="#999274"/><stop offset="0.6" stop-color="#6e6953"/><stop offset="0.82" stop-color="#333127"/><stop offset="1"/></linearGradient><linearGradient id="_ÂÁ_Ï_ÌÌ_È_ËÂÌÚ_40-2" x1="265.39" y1="-213.68" x2="257.29" y2="-190.69" xlink:href="#_ÂÁ_Ï_ÌÌ_È_ËÂÌÚ_40"/><linearGradient id="_ÂÁ_Ï_ÌÌ_È_ËÂÌÚ_31-3" x1="217.41" y1="123.14" x2="182.65" y2="145.98" gradientTransform="matrix(1, 0, 0, 1, 0, 0)" xlink:href="#_ÂÁ_Ï_ÌÌ_È_ËÂÌÚ_31"/><linearGradient id="_ÂÁ_Ï_ÌÌ_È_ËÂÌÚ_31-4" x1="211.62" y1="114.31" x2="176.85" y2="137.15" gradientTransform="matrix(1, 0, 0, 1, 0, 0)" xlink:href="#_ÂÁ_Ï_ÌÌ_È_ËÂÌÚ_31"/><linearGradient id="_ÂÁ_Ï_ÌÌ_È_ËÂÌÚ_25-2" x1="209.83" y1="117.43" x2="188.8" y2="135.37" gradientTransform="matrix(1, 0, 0, 1, 0, 0)" xlink:href="#_ÂÁ_Ï_ÌÌ_È_ËÂÌÚ_25"/><linearGradient id="_ÂÁ_Ï_ÌÌ_È_ËÂÌÚ_40-3" x1="221.15" y1="113.42" x2="185.78" y2="126.73" gradientTransform="matrix(1, 0, 0, 1, 0, 0)" xlink:href="#_ÂÁ_Ï_ÌÌ_È_ËÂÌÚ_40"/><linearGradient id="_ÂÁ_Ï_ÌÌ_È_ËÂÌÚ_40-4" x1="745.27" y1="978.62" x2="737.17" y2="1001.61" gradientTransform="translate(829.57 -953.4) rotate(66.54)" xlink:href="#_ÂÁ_Ï_ÌÌ_È_ËÂÌÚ_40"/><linearGradient id="_ÂÁ_Ï_ÌÌ_È_ËÂÌÚ_187" x1="1917.09" y1="-9.19" x2="1980.54" y2="142.34" gradientTransform="matrix(-1, 0, 0, 1, 2081.26, 0)" gradientUnits="userSpaceOnUse"><stop offset="0" stop-color="#ffcb5d"/><stop offset="0.74" stop-color="#ed8e26"/><stop offset="0.84" stop-color="#eb861f"/></linearGradient><linearGradient id="_ÂÁ_Ï_ÌÌ_È_ËÂÌÚ_72" x1="1931.87" y1="19.1" x2="1966.46" y2="127.81" gradientTransform="matrix(-1, 0, 0, 1, 2081.26, 0)" gradientUnits="userSpaceOnUse"><stop offset="0" stop-color="#f5ebcb"/><stop offset="0.17" stop-color="#b8dec9"/><stop offset="0.55" stop-color="#1fbfc5"/><stop offset="0.62" stop-color="#00b8c4"/><stop offset="0.77" stop-color="#37d3c5"/><stop offset="0.92" stop-color="#6eedc7"/><stop offset="1" stop-color="#83f7c7"/></linearGradient><linearGradient id="_ÂÁ_Ï_ÌÌ_È_ËÂÌÚ_181" x1="1949.28" y1="4.51" x2="1949.8" y2="22.71" gradientTransform="matrix(-1, 0, 0, 1, 2081.26, 0)" gradientUnits="userSpaceOnUse"><stop offset="0" stop-color="#ffefbc"/><stop offset="0.26" stop-color="#f7dead"/><stop offset="0.77" stop-color="#e4b285"/><stop offset="1" stop-color="#da9d71"/></linearGradient><linearGradient id="_ÂÁ_Ï_ÌÌ_È_ËÂÌÚ_40-5" x1="1949.17" y1="17.24" x2="1950.47" y2="5.19" gradientTransform="matrix(-1, 0, 0, 1, 2081.26, 0)" xlink:href="#_ÂÁ_Ï_ÌÌ_È_ËÂÌÚ_40"/><linearGradient id="_ÂÁ_Ï_ÌÌ_È_ËÂÌÚ_40-6" x1="1921.34" y1="-15.96" x2="1962.6" y2="107.48" gradientTransform="matrix(-1, 0, 0, 1, 2081.26, 0)" xlink:href="#_ÂÁ_Ï_ÌÌ_È_ËÂÌÚ_40"/><linearGradient id="_ÂÁ_Ï_ÌÌ_È_ËÂÌÚ_40-7" x1="1985.47" y1="132.23" x2="1932.42" y2="46.23" gradientTransform="matrix(-1, 0, 0, 1, 2081.26, 0)" xlink:href="#_ÂÁ_Ï_ÌÌ_È_ËÂÌÚ_40"/><linearGradient id="_ÂÁ_Ï_ÌÌ_È_ËÂÌÚ_40-8" x1="1960.3" y1="37.13" x2="1948.34" y2="8.33" gradientTransform="matrix(-1, 0, 0, 1, 2081.26, 0)" xlink:href="#_ÂÁ_Ï_ÌÌ_È_ËÂÌÚ_40"/><linearGradient id="_ÂÁ_Ï_ÌÌ_È_ËÂÌÚ_42" x1="1959.48" y1="23.25" x2="1976.38" y2="136.38" gradientTransform="matrix(-1, 0, 0, 1, 2081.26, 0)" gradientUnits="userSpaceOnUse"><stop offset="0" stop-color="#a7c3cf"/><stop offset="0.19" stop-color="#acc6d2"/><stop offset="0.42" stop-color="#bad0d9"/><stop offset="0.66" stop-color="#d1e0e6"/><stop offset="0.91" stop-color="#f2f6f8"/><stop offset="1" stop-color="#fff"/></linearGradient><linearGradient id="_ÂÁ_Ï_ÌÌ_È_ËÂÌÚ_42-2" x1="1948.67" y1="24.87" x2="1965.57" y2="138" xlink:href="#_ÂÁ_Ï_ÌÌ_È_ËÂÌÚ_42"/><linearGradient id="_ÂÁ_Ï_ÌÌ_È_ËÂÌÚ_42-3" x1="1954.41" y1="24.01" x2="1971.31" y2="137.14" xlink:href="#_ÂÁ_Ï_ÌÌ_È_ËÂÌÚ_42"/><linearGradient id="_ÂÁ_Ï_ÌÌ_È_ËÂÌÚ_42-4" x1="1933.36" y1="27.16" x2="1950.27" y2="140.28" xlink:href="#_ÂÁ_Ï_ÌÌ_È_ËÂÌÚ_42"/><linearGradient id="_ÂÁ_Ï_ÌÌ_È_ËÂÌÚ_42-5" x1="1938.95" y1="26.32" x2="1955.85" y2="139.45" xlink:href="#_ÂÁ_Ï_ÌÌ_È_ËÂÌÚ_42"/><linearGradient id="_ÂÁ_Ï_ÌÌ_È_ËÂÌÚ_42-6" x1="1945.3" y1="25.37" x2="1962.21" y2="138.5" xlink:href="#_ÂÁ_Ï_ÌÌ_È_ËÂÌÚ_42"/><linearGradient id="_ÂÁ_Ï_ÌÌ_È_ËÂÌÚ_42-7" x1="1945.13" y1="25.4" x2="1962.04" y2="138.52" xlink:href="#_ÂÁ_Ï_ÌÌ_È_ËÂÌÚ_42"/><linearGradient id="_ÂÁ_Ï_ÌÌ_È_ËÂÌÚ_42-8" x1="1936.06" y1="26.75" x2="1952.97" y2="139.88" xlink:href="#_ÂÁ_Ï_ÌÌ_È_ËÂÌÚ_42"/><linearGradient id="_ÂÁ_Ï_ÌÌ_È_ËÂÌÚ_42-9" x1="1942.32" y1="25.82" x2="1959.23" y2="138.94" xlink:href="#_ÂÁ_Ï_ÌÌ_È_ËÂÌÚ_42"/><linearGradient id="_ÂÁ_Ï_ÌÌ_È_ËÂÌÚ_42-10" x1="1959.05" y1="23.32" x2="1975.96" y2="136.44" xlink:href="#_ÂÁ_Ï_ÌÌ_È_ËÂÌÚ_42"/><linearGradient id="_ÂÁ_Ï_ÌÌ_È_ËÂÌÚ_42-11" x1="1954.08" y1="24.06" x2="1970.98" y2="137.19" xlink:href="#_ÂÁ_Ï_ÌÌ_È_ËÂÌÚ_42"/><linearGradient id="_ÂÁ_Ï_ÌÌ_È_ËÂÌÚ_42-12" x1="1950.56" y1="24.58" x2="1967.47" y2="137.71" xlink:href="#_ÂÁ_Ï_ÌÌ_È_ËÂÌÚ_42"/><linearGradient id="_ÂÁ_Ï_ÌÌ_È_ËÂÌÚ_42-13" x1="1947.37" y1="25.06" x2="1964.28" y2="138.19" xlink:href="#_ÂÁ_Ï_ÌÌ_È_ËÂÌÚ_42"/><linearGradient id="_ÂÁ_Ï_ÌÌ_È_ËÂÌÚ_42-14" x1="1932.79" y1="27.24" x2="1949.69" y2="140.37" xlink:href="#_ÂÁ_Ï_ÌÌ_È_ËÂÌÚ_42"/><linearGradient id="_ÂÁ_Ï_ÌÌ_È_ËÂÌÚ_42-15" x1="1929.42" y1="27.74" x2="1946.32" y2="140.87" xlink:href="#_ÂÁ_Ï_ÌÌ_È_ËÂÌÚ_42"/><linearGradient id="_ÂÁ_Ï_ÌÌ_È_ËÂÌÚ_42-16" x1="1942.83" y1="25.74" x2="1959.74" y2="138.87" xlink:href="#_ÂÁ_Ï_ÌÌ_È_ËÂÌÚ_42"/><linearGradient id="_ÂÁ_Ï_ÌÌ_È_ËÂÌÚ_42-17" x1="1937.57" y1="26.53" x2="1954.47" y2="139.65" xlink:href="#_ÂÁ_Ï_ÌÌ_È_ËÂÌÚ_42"/><linearGradient id="_ÂÁ_Ï_ÌÌ_È_ËÂÌÚ_42-18" x1="1941.93" y1="25.87" x2="1958.84" y2="139" xlink:href="#_ÂÁ_Ï_ÌÌ_È_ËÂÌÚ_42"/><linearGradient id="_ÂÁ_Ï_ÌÌ_È_ËÂÌÚ_42-19" x1="1954.63" y1="23.98" x2="1971.53" y2="137.11" xlink:href="#_ÂÁ_Ï_ÌÌ_È_ËÂÌÚ_42"/><linearGradient id="_ÂÁ_Ï_ÌÌ_È_ËÂÌÚ_42-20" x1="1946.21" y1="25.24" x2="1963.12" y2="138.36" xlink:href="#_ÂÁ_Ï_ÌÌ_È_ËÂÌÚ_42"/><linearGradient id="_ÂÁ_Ï_ÌÌ_È_ËÂÌÚ_42-21" x1="1950.74" y1="24.56" x2="1967.64" y2="137.69" xlink:href="#_ÂÁ_Ï_ÌÌ_È_ËÂÌÚ_42"/><linearGradient id="_ÂÁ_Ï_ÌÌ_È_ËÂÌÚ_42-22" x1="1928.86" y1="27.83" x2="1945.76" y2="140.96" xlink:href="#_ÂÁ_Ï_ÌÌ_È_ËÂÌÚ_42"/><linearGradient id="_ÂÁ_Ï_ÌÌ_È_ËÂÌÚ_42-23" x1="1931.94" y1="27.37" x2="1948.85" y2="140.5" xlink:href="#_ÂÁ_Ï_ÌÌ_È_ËÂÌÚ_42"/><linearGradient id="_ÂÁ_Ï_ÌÌ_È_ËÂÌÚ_42-24" x1="1925.14" y1="28.38" x2="1942.05" y2="141.51" xlink:href="#_ÂÁ_Ï_ÌÌ_È_ËÂÌÚ_42"/><linearGradient id="_ÂÁ_Ï_ÌÌ_È_ËÂÌÚ_42-25" x1="1937.12" y1="26.59" x2="1954.03" y2="139.72" xlink:href="#_ÂÁ_Ï_ÌÌ_È_ËÂÌÚ_42"/><linearGradient id="_ÂÁ_Ï_ÌÌ_È_ËÂÌÚ_40-9" x1="1927.84" y1="19.08" x2="1963.04" y2="107.5" gradientTransform="matrix(-1, 0, 0, 1, 2081.26, 0)" xlink:href="#_ÂÁ_Ï_ÌÌ_È_ËÂÌÚ_40"/><linearGradient id="_ÂÁ_Ï_ÌÌ_È_ËÂÌÚ_40-10" x1="1942.27" y1="29.91" x2="1956.07" y2="122.22" gradientTransform="matrix(-1, 0, 0, 1, 2081.26, 0)" xlink:href="#_ÂÁ_Ï_ÌÌ_È_ËÂÌÚ_40"/><linearGradient id="_ÂÁ_Ï_ÌÌ_È_ËÂÌÚ_11" x1="1981" y1="-9.19" x2="2044.45" y2="142.34" gradientTransform="matrix(-1, 0, 0, 1, 2081.26, 0)" gradientUnits="userSpaceOnUse"><stop offset="0" stop-color="#e0d05b"/><stop offset="0.84" stop-color="#b5d124"/></linearGradient><linearGradient id="_ÂÁ_Ï_ÌÌ_È_ËÂÌÚ_72-2" x1="1995.79" y1="19.1" x2="2030.37" y2="127.81" xlink:href="#_ÂÁ_Ï_ÌÌ_È_ËÂÌÚ_72"/><linearGradient id="_ÂÁ_Ï_ÌÌ_È_ËÂÌÚ_181-2" x1="2013.19" y1="4.51" x2="2013.71" y2="22.71" xlink:href="#_ÂÁ_Ï_ÌÌ_È_ËÂÌÚ_181"/><linearGradient id="_ÂÁ_Ï_ÌÌ_È_ËÂÌÚ_40-11" x1="2013.09" y1="17.24" x2="2014.39" y2="5.19" gradientTransform="matrix(-1, 0, 0, 1, 2081.26, 0)" xlink:href="#_ÂÁ_Ï_ÌÌ_È_ËÂÌÚ_40"/><linearGradient id="_ÂÁ_Ï_ÌÌ_È_ËÂÌÚ_40-12" x1="1985.25" y1="-15.96" x2="2026.51" y2="107.48" gradientTransform="matrix(-1, 0, 0, 1, 2081.26, 0)" xlink:href="#_ÂÁ_Ï_ÌÌ_È_ËÂÌÚ_40"/><linearGradient id="_ÂÁ_Ï_ÌÌ_È_ËÂÌÚ_40-13" x1="2049.38" y1="132.23" x2="1996.33" y2="46.23" gradientTransform="matrix(-1, 0, 0, 1, 2081.26, 0)" xlink:href="#_ÂÁ_Ï_ÌÌ_È_ËÂÌÚ_40"/><linearGradient id="_ÂÁ_Ï_ÌÌ_È_ËÂÌÚ_40-14" x1="2024.21" y1="37.13" x2="2012.25" y2="8.33" gradientTransform="matrix(-1, 0, 0, 1, 2081.26, 0)" xlink:href="#_ÂÁ_Ï_ÌÌ_È_ËÂÌÚ_40"/><linearGradient id="_ÂÁ_Ï_ÌÌ_È_ËÂÌÚ_42-26" x1="2023.39" y1="23.25" x2="2040.29" y2="136.38" xlink:href="#_ÂÁ_Ï_ÌÌ_È_ËÂÌÚ_42"/><linearGradient id="_ÂÁ_Ï_ÌÌ_È_ËÂÌÚ_42-27" x1="2012.58" y1="24.87" x2="2029.48" y2="138" xlink:href="#_ÂÁ_Ï_ÌÌ_È_ËÂÌÚ_42"/><linearGradient id="_ÂÁ_Ï_ÌÌ_È_ËÂÌÚ_42-28" x1="2018.32" y1="24.01" x2="2035.22" y2="137.14" xlink:href="#_ÂÁ_Ï_ÌÌ_È_ËÂÌÚ_42"/><linearGradient id="_ÂÁ_Ï_ÌÌ_È_ËÂÌÚ_42-29" x1="1997.27" y1="27.16" x2="2014.18" y2="140.28" xlink:href="#_ÂÁ_Ï_ÌÌ_È_ËÂÌÚ_42"/><linearGradient id="_ÂÁ_Ï_ÌÌ_È_ËÂÌÚ_42-30" x1="2002.86" y1="26.32" x2="2019.76" y2="139.45" xlink:href="#_ÂÁ_Ï_ÌÌ_È_ËÂÌÚ_42"/><linearGradient id="_ÂÁ_Ï_ÌÌ_È_ËÂÌÚ_42-31" x1="2009.21" y1="25.37" x2="2026.12" y2="138.5" xlink:href="#_ÂÁ_Ï_ÌÌ_È_ËÂÌÚ_42"/><linearGradient id="_ÂÁ_Ï_ÌÌ_È_ËÂÌÚ_42-32" x1="2009.04" y1="25.4" x2="2025.95" y2="138.52" xlink:href="#_ÂÁ_Ï_ÌÌ_È_ËÂÌÚ_42"/><linearGradient id="_ÂÁ_Ï_ÌÌ_È_ËÂÌÚ_42-33" x1="1999.97" y1="26.75" x2="2016.88" y2="139.88" xlink:href="#_ÂÁ_Ï_ÌÌ_È_ËÂÌÚ_42"/><linearGradient id="_ÂÁ_Ï_ÌÌ_È_ËÂÌÚ_42-34" x1="2006.23" y1="25.82" x2="2023.14" y2="138.94" xlink:href="#_ÂÁ_Ï_ÌÌ_È_ËÂÌÚ_42"/><linearGradient id="_ÂÁ_Ï_ÌÌ_È_ËÂÌÚ_42-35" x1="2022.96" y1="23.32" x2="2039.87" y2="136.44" xlink:href="#_ÂÁ_Ï_ÌÌ_È_ËÂÌÚ_42"/><linearGradient id="_ÂÁ_Ï_ÌÌ_È_ËÂÌÚ_42-36" x1="2017.99" y1="24.06" x2="2034.89" y2="137.19" xlink:href="#_ÂÁ_Ï_ÌÌ_È_ËÂÌÚ_42"/><linearGradient id="_ÂÁ_Ï_ÌÌ_È_ËÂÌÚ_42-37" x1="2014.48" y1="24.58" x2="2031.38" y2="137.71" xlink:href="#_ÂÁ_Ï_ÌÌ_È_ËÂÌÚ_42"/><linearGradient id="_ÂÁ_Ï_ÌÌ_È_ËÂÌÚ_42-38" x1="2011.28" y1="25.06" x2="2028.19" y2="138.19" xlink:href="#_ÂÁ_Ï_ÌÌ_È_ËÂÌÚ_42"/><linearGradient id="_ÂÁ_Ï_ÌÌ_È_ËÂÌÚ_42-39" x1="1996.7" y1="27.24" x2="2013.6" y2="140.37" xlink:href="#_ÂÁ_Ï_ÌÌ_È_ËÂÌÚ_42"/><linearGradient id="_ÂÁ_Ï_ÌÌ_È_ËÂÌÚ_42-40" x1="1993.33" y1="27.74" x2="2010.24" y2="140.87" xlink:href="#_ÂÁ_Ï_ÌÌ_È_ËÂÌÚ_42"/><linearGradient id="_ÂÁ_Ï_ÌÌ_È_ËÂÌÚ_42-41" x1="2006.74" y1="25.74" x2="2023.65" y2="138.87" xlink:href="#_ÂÁ_Ï_ÌÌ_È_ËÂÌÚ_42"/><linearGradient id="_ÂÁ_Ï_ÌÌ_È_ËÂÌÚ_42-42" x1="2001.48" y1="26.53" x2="2018.38" y2="139.65" xlink:href="#_ÂÁ_Ï_ÌÌ_È_ËÂÌÚ_42"/><linearGradient id="_ÂÁ_Ï_ÌÌ_È_ËÂÌÚ_42-43" x1="2005.84" y1="25.87" x2="2022.75" y2="139" xlink:href="#_ÂÁ_Ï_ÌÌ_È_ËÂÌÚ_42"/><linearGradient id="_ÂÁ_Ï_ÌÌ_È_ËÂÌÚ_42-44" x1="2018.54" y1="23.98" x2="2035.44" y2="137.11" xlink:href="#_ÂÁ_Ï_ÌÌ_È_ËÂÌÚ_42"/><linearGradient id="_ÂÁ_Ï_ÌÌ_È_ËÂÌÚ_42-45" x1="2010.12" y1="25.24" x2="2027.03" y2="138.36" xlink:href="#_ÂÁ_Ï_ÌÌ_È_ËÂÌÚ_42"/><linearGradient id="_ÂÁ_Ï_ÌÌ_È_ËÂÌÚ_42-46" x1="2014.65" y1="24.56" x2="2031.55" y2="137.69" xlink:href="#_ÂÁ_Ï_ÌÌ_È_ËÂÌÚ_42"/><linearGradient id="_ÂÁ_Ï_ÌÌ_È_ËÂÌÚ_42-47" x1="1992.77" y1="27.83" x2="2009.67" y2="140.96" xlink:href="#_ÂÁ_Ï_ÌÌ_È_ËÂÌÚ_42"/><linearGradient id="_ÂÁ_Ï_ÌÌ_È_ËÂÌÚ_42-48" x1="1995.85" y1="27.37" x2="2012.76" y2="140.5" xlink:href="#_ÂÁ_Ï_ÌÌ_È_ËÂÌÚ_42"/><linearGradient id="_ÂÁ_Ï_ÌÌ_È_ËÂÌÚ_42-49" x1="1989.05" y1="28.38" x2="2005.96" y2="141.51" xlink:href="#_ÂÁ_Ï_ÌÌ_È_ËÂÌÚ_42"/><linearGradient id="_ÂÁ_Ï_ÌÌ_È_ËÂÌÚ_42-50" x1="2001.03" y1="26.59" x2="2017.94" y2="139.72" xlink:href="#_ÂÁ_Ï_ÌÌ_È_ËÂÌÚ_42"/><linearGradient id="_ÂÁ_Ï_ÌÌ_È_ËÂÌÚ_40-15" x1="1991.75" y1="19.08" x2="2026.95" y2="107.5" gradientTransform="matrix(-1, 0, 0, 1, 2081.26, 0)" xlink:href="#_ÂÁ_Ï_ÌÌ_È_ËÂÌÚ_40"/><linearGradient id="_ÂÁ_Ï_ÌÌ_È_ËÂÌÚ_40-16" x1="2006.19" y1="29.91" x2="2019.98" y2="122.22" gradientTransform="matrix(-1, 0, 0, 1, 2081.26, 0)" xlink:href="#_ÂÁ_Ï_ÌÌ_È_ËÂÌÚ_40"/><linearGradient id="_ÂÁ_Ï_ÌÌ_È_ËÂÌÚ_12" x1="121.7" y1="148.6" x2="121.7" y2="143.16" gradientUnits="userSpaceOnUse"><stop offset="0" stop-color="#fff7d4"/><stop offset="0.17" stop-color="#c6c0a5"/><stop offset="0.4" stop-color="#807c6b"/><stop offset="0.6" stop-color="#49473d"/><stop offset="0.78" stop-color="#21201c"/><stop offset="0.92" stop-color="#090907"/><stop offset="1"/></linearGradient></defs><title>fridgers</title><g class="cls-1"><g id="Capa_2" data-name="Capa 2"><g id="Capa_2-2" data-name="Capa 2"><polygon class="cls-2" points="217.1 120.6 191.4 128.91 182.66 109.12 212.6 99.44 217.1 120.6"/><polygon class="cls-3" points="213.16 94.09 179.13 105.09 181.13 109.61 214.18 98.93 213.16 94.09"/><polygon class="cls-4" points="179.13 105.09 170.36 107.92 173.24 112.17 174.54 111.74 186.39 130.53 191.4 128.91 182.66 109.12 181.13 109.61 179.13 105.09"/><polygon class="cls-4" points="203.57 104.83 200.8 105.73 206.2 121.65 207.45 121.24 203.57 104.83"/><polygon class="cls-4" points="199.69 106.09 196.92 106.98 203.06 122.67 204.31 122.26 199.69 106.09"/><polygon class="cls-4" points="195.81 107.34 193.04 108.24 199.91 123.68 201.17 123.28 195.81 107.34"/><polygon class="cls-4" points="196.78 124.7 198.02 124.29 191.93 108.6 189.16 109.49 196.78 124.7"/><polygon class="cls-4" points="207.45 103.58 204.68 104.47 209.34 120.63 210.59 120.23 207.45 103.58"/><polygon class="cls-4" points="208.56 103.22 212.49 119.61 214.36 119.01 210.84 102.48 208.56 103.22"/><polygon class="cls-4" points="188.04 109.85 185.86 110.56 192.69 126.02 194.87 125.31 188.04 109.85"/><polygon class="cls-5" points="197.35 79.23 181.34 85.31 182.54 103.98 183.63 103.64 183.48 87.05 197.17 82.24 197.35 79.23"/><polygon class="cls-6" points="182.66 109.12 212.6 99.44 212.99 101.24 184.56 113.44 182.66 109.12"/><polygon class="cls-7" points="180.47 105.32 212.81 94.86 213.21 98.34 212.07 98.71 211.62 96.39 180.66 105.92 180.47 105.32"/><path class="cls-8" d="M195.94,102.4a1.43,1.43,0,0,0,1.93-.15l3-22.55a3.67,3.67,0,0,0-3.54-.47Z"/><path class="cls-9" d="M198,79.63a5,5,0,0,1,2.47.2l-.27,1.59-1.28.41-2.13,20.39-.56-.06Z"/><polygon class="cls-10" points="215.66 144.66 188.64 144.66 186.41 123.14 217.88 123.14 215.66 144.66"/><polygon class="cls-11" points="220.06 118.22 184.29 118.22 184.81 123.14 219.54 123.14 220.06 118.22"/><polygon class="cls-4" points="184.29 118.22 175.08 118.22 176.51 123.14 177.88 123.14 183.38 144.66 188.64 144.66 186.41 123.14 184.81 123.14 184.29 118.22"/><polygon class="cls-4" points="207.63 125.5 204.72 125.5 204.96 142.31 206.28 142.31 207.63 125.5"/><polygon class="cls-4" points="203.55 125.5 200.64 125.5 201.65 142.31 202.97 142.31 203.55 125.5"/><polygon class="cls-4" points="199.47 125.5 196.56 125.5 198.35 142.31 199.67 142.31 199.47 125.5"/><polygon class="cls-4" points="195.05 142.31 196.36 142.31 195.39 125.5 192.49 125.5 195.05 142.31"/><polygon class="cls-4" points="211.7 125.5 208.8 125.5 208.26 142.31 209.57 142.31 211.7 125.5"/><polygon class="cls-4" points="212.88 125.5 211.57 142.31 213.53 142.31 215.28 125.5 212.88 125.5"/><polygon class="cls-4" points="191.31 125.5 189.02 125.5 190.76 142.31 193.05 142.31 191.31 125.5"/><polygon class="cls-12" points="186.41 123.14 217.88 123.14 217.7 124.97 186.9 127.84 186.41 123.14"/><polygon class="cls-13" points="185.5 118.85 219.49 118.85 218.8 122.28 217.6 122.28 217.88 119.94 185.5 119.48 185.5 118.85"/><path class="cls-8" d="M201.44,119.74c-.44.62-.25,1.26.34,1.9l22.73.83a3.66,3.66,0,0,0,.12-3.57Z"/><path class="cls-14" d="M224.29,119.55a4.81,4.81,0,0,1,.05,2.47l-1.61-.11-.54-1.23-20.49-.16V120Z"/><polygon class="cls-4" points="186.24 117.24 216.45 117.54 216.6 118.22 186.68 118.22 186.24 117.24"/><polygon class="cls-5" points="151.87 141.22 151.16 144.66 140.36 144.66 138.48 141.22 151.87 141.22"/><polygon class="cls-5" points="96.42 141.22 97.13 144.66 108.36 144.66 110.24 141.22 96.42 141.22"/><polygon class="cls-15" points="102.56 141.22 160.24 141.22 161.54 0 101.26 0 102.56 141.22"/><polygon class="cls-8" points="159.37 141.22 158.66 144.66 147.86 144.66 145.98 141.22 159.37 141.22"/><polygon class="cls-8" points="104.35 141.22 105.07 144.66 115.86 144.66 117.74 141.22 104.35 141.22"/><polygon class="cls-16" points="101.26 0 102.56 141.22 95.83 141.22 91.23 0 101.26 0"/><polygon class="cls-8" points="108.24 123.53 155.54 123.53 156.34 26.27 107.45 26.27 108.24 123.53"/><polygon class="cls-17" points="153.52 121.49 154.28 29.04 109.5 29.04 110.26 121.49 153.52 121.49"/><path class="cls-4" d="M155.15,131.79l-.33,6.63H154v-6.63Zm-3.7,0,0,6.63h.83l.31-6.63Zm-2.54,0,0,6.63h.84l.28-6.63Zm-2.53,0,.05,6.63h.84l.27-6.63Zm-2.54,0,.07,6.63h.84l.25-6.63Zm-2.54,0,.09,6.63h.84l.24-6.63Zm-2.53,0,.11,6.63h.83l.22-6.63Zm-2.54,0,.13,6.63h.84l.19-6.63Zm-2.53,0,.14,6.63h.84l.18-6.63Zm-2.54,0,.16,6.63h.84l.16-6.63Zm-2.54,0,.18,6.63h.84l.15-6.63Zm-2.53,0,.2,6.63h.83l.13-6.63Zm-2.54,0,.22,6.63h.84l.11-6.63Zm-2.53,0,.23,6.63h.84l.09-6.63Zm-2.54,0,.25,6.63h.84l.07-6.63Zm-2.54,0,.28,6.63h.83l.06-6.63Zm-2.53,0,.29,6.63h.84l0-6.63Zm-2.54,0,.31,6.63H112l0-6.63Zm-2.53,0,.32,6.63h.84v-6.63Z"/><polygon class="cls-18" points="107.45 21.59 156.34 21.59 156.67 4.59 107.12 4.59 107.45 21.59"/><polygon class="cls-4" points="155.47 21.59 156.34 21.59 156.67 4.59 107.12 4.59 107.14 5.53 155.17 5.76 155.47 21.59"/><polygon class="cls-5" points="154.28 29.04 109.5 29.04 109.5 29.82 153.43 30.21 153.09 65.67 153.98 65.67 154.28 29.04"/><path class="cls-16" d="M137,8.54v10.2h-.5l-.36-1-1.46-4.14L134,11.68v7.06h-.83L133,13.57l-.13-5H134l1.55,5,.51,1.68,0-1.68-.13-5ZM125.83,15c0,3.45-2.52,3.7-2.89,3.71h-.84l-.13-4.9v-.27l-.13-5h1.1c.33.07,2.44.64,2.83,5l0,.27C125.82,14.21,125.83,14.61,125.83,15Zm-1.1-1.19,0-.27c-.19-1.73-.83-3.43-1.77-3.91v8.16C124.4,18.06,124.91,16,124.73,13.84Zm6.3-5.3.13,5v.27l.12,4.9h.84V8.54Zm-.32,9.83-.47.37a5.82,5.82,0,0,1-2-2.93,7.41,7.41,0,0,1-.67.65v2.28h-.84l-.13-5v-.27l-.13-4.9h1.11a2.83,2.83,0,0,1,2.51,3,4.9,4.9,0,0,1-.32,1.93l-.12.27a6.72,6.72,0,0,1-.64,1.16A6.69,6.69,0,0,0,130.71,18.37Zm-2.15-4.66.09-.27c.55-1.76.34-3.59-1.11-3.77v5.89A6.15,6.15,0,0,0,128.56,13.71ZM140,13.44l2.31-4.9H141l-1.85,4.9-.11.27-.09.23V8.54h-1.1l.13,4.9v.27l.13,5h.84v-3l.62-1.31,1.68,4.32h1.09l-2.21-5Z"/><polygon class="cls-19" points="154.28 6.85 154.28 15.52 108.57 15.52 107.97 6.85 154.28 6.85"/><polygon class="cls-20" points="102.56 0.95 160.5 0.95 159.37 140.35 158.42 2.86 102.56 2.34 102.56 0.95"/><polygon class="cls-21" points="106.14 25.12 107.12 26.27 107.79 123.83 155.69 124.05 155.99 124.96 106.28 124.96 106.14 25.12"/><polygon class="cls-22" points="106.14 4.59 106.77 21.91 156.34 22.3 156.67 23.34 105.54 23.34 104.82 3.77 106.14 4.59"/><g class="cls-23"><polygon class="cls-24" points="121.4 55.07 116.45 55.07 115.49 36.09 121.4 36.09 121.4 55.07"/><polygon class="cls-25" points="128.1 55.07 131.7 55.07 133.05 37.52 127.08 37.52 128.1 55.07"/><polygon class="cls-26" points="126.47 55.07 122.37 55.07 121.4 31.89 127.32 31.89 126.47 55.07"/><polygon class="cls-27" points="148.41 55.07 143.46 55.07 142.5 31.89 148.41 31.89 148.41 55.07"/><polygon class="cls-28" points="137.99 55.07 142.14 55.07 143.71 35.56 136.8 35.56 137.99 55.07"/><polygon class="cls-29" points="136.1 55.07 131.36 55.07 130.25 32.85 137.08 32.85 136.1 55.07"/><polygon class="cls-30" points="152.04 56.21 111.14 56.92 110.89 55.54 152.34 55.54 152.04 56.21"/><polygon class="cls-31" points="152.04 118.28 111.14 118.99 110.89 117.61 152.34 117.61 152.04 118.28"/><polygon class="cls-32" points="148.57 87.16 111.12 87.87 110.89 86.49 148.84 86.49 148.57 87.16"/><polygon class="cls-33" points="116.84 85.61 112.84 85.61 112.06 64.83 116.84 64.83 116.84 85.61"/><polygon class="cls-34" points="121.63 85.61 117.62 85.61 116.84 68.79 121.63 68.79 121.63 85.61"/><polygon class="cls-35" points="122.26 85.61 125.17 85.61 126.27 62.43 121.43 62.43 122.26 85.61"/><polygon class="cls-36" points="128.86 85.61 125.54 85.61 124.75 59.21 129.54 59.21 128.86 85.61"/><polygon class="cls-37" points="143.87 85.61 139.87 85.61 139.09 62.43 143.87 62.43 143.87 85.61"/><polygon class="cls-38" points="143.44 85.61 146.81 85.61 148.07 66.11 142.49 66.11 143.44 85.61"/><polygon class="cls-39" points="129.73 85.61 133.1 85.61 134.36 66.11 128.77 66.11 129.73 85.61"/><polygon class="cls-40" points="138.89 85.61 135.05 85.61 134.15 63.4 139.68 63.4 138.89 85.61"/><polygon class="cls-41" points="129.88 116.72 125.87 116.72 125.09 93.54 129.88 93.54 129.88 116.72"/><polygon class="cls-42" points="116.47 116.72 112.46 116.72 111.68 99.26 116.47 99.26 116.47 116.72"/><polygon class="cls-43" points="121.89 116.72 124.8 116.72 125.89 95.91 121.06 95.91 121.89 116.72"/><polygon class="cls-44" points="120.57 116.72 117.25 116.72 116.47 93.02 121.25 93.02 120.57 116.72"/><polygon class="cls-45" points="143.24 116.72 139.24 116.72 138.45 93.54 143.24 93.54 143.24 116.72"/><polygon class="cls-46" points="136.22 116.72 139.58 116.72 140.85 97.21 135.26 97.21 136.22 116.72"/><polygon class="cls-47" points="143.17 116.72 146.53 116.72 147.8 97.21 142.21 97.21 143.17 116.72"/><polygon class="cls-48" points="134.7 116.72 130.86 116.72 129.96 94.5 135.49 94.5 134.7 116.72"/></g><polygon class="cls-49" points="151.66 31.81 150.4 120 148.41 120 145.28 37.29 111.45 34.95 111.45 31.14 151.66 31.81"/><path class="cls-50" d="M151.66,31.81l-21.48,89.12h-7.57l15.44-89.12Zm-25.92,0-9.21,89.12h3.88l15.26-89.12Z"/><polygon class="cls-8" points="154.28 65.67 150.4 65.67 151.1 101.03 153.97 101.03 154.28 65.67"/><polygon class="cls-5" points="150.4 65.67 151.1 101.03 153.69 101.03 153.52 121.49 152.57 121.49 152.87 101.69 150.57 101.6 149.62 65.67 150.4 65.67"/><polygon class="cls-5" points="87.96 141.22 87.25 144.66 76.45 144.66 74.57 141.22 87.96 141.22"/><polygon class="cls-5" points="32.5 141.22 33.22 144.66 44.45 144.66 46.33 141.22 32.5 141.22"/><polygon class="cls-51" points="38.65 141.22 96.33 141.22 97.63 0 37.35 0 38.65 141.22"/><polygon class="cls-8" points="95.46 141.22 94.75 144.66 83.95 144.66 82.07 141.22 95.46 141.22"/><polygon class="cls-8" points="40.44 141.22 41.16 144.66 51.95 144.66 53.83 141.22 40.44 141.22"/><polygon class="cls-52" points="37.35 0 38.65 141.22 31.92 141.22 27.32 0 37.35 0"/><polygon class="cls-8" points="44.33 123.53 91.63 123.53 92.43 26.27 43.53 26.27 44.33 123.53"/><polygon class="cls-53" points="89.61 121.49 90.37 29.04 45.59 29.04 46.35 121.49 89.61 121.49"/><path class="cls-52" d="M91.24,131.79l-.33,6.63h-.84v-6.63Zm-3.7,0v6.63h.84l.31-6.63Zm-2.54,0,0,6.63h.83l.29-6.63Zm-2.54,0,.06,6.63h.84l.27-6.63Zm-2.53,0,.07,6.63h.84l.25-6.63Zm-2.54,0,.09,6.63h.84l.24-6.63Zm-2.53,0,.11,6.63h.83l.22-6.63Zm-2.54,0,.13,6.63h.84l.19-6.63Zm-2.53,0,.14,6.63h.84l.18-6.63Zm-2.54,0,.16,6.63h.84l.16-6.63Zm-2.54,0,.18,6.63h.84l.15-6.63Zm-2.53,0,.2,6.63h.83l.13-6.63Zm-2.54,0,.22,6.63h.84l.1-6.63Zm-2.53,0,.23,6.63h.84l.09-6.63Zm-2.54,0,.25,6.63h.84l.07-6.63Zm-2.54,0,.28,6.63h.83l.06-6.63Zm-2.53,0,.29,6.63h.84l0-6.63Zm-2.54,0,.31,6.63h.84l0-6.63Zm-2.53,0,.32,6.63h.84v-6.63Z"/><polygon class="cls-54" points="43.53 21.59 92.43 21.59 92.76 4.59 43.21 4.59 43.53 21.59"/><polygon class="cls-52" points="91.56 21.59 92.43 21.59 92.76 4.59 43.21 4.59 43.22 5.53 91.26 5.76 91.56 21.59"/><polygon class="cls-5" points="90.37 29.04 45.59 29.04 45.59 29.82 89.52 30.21 89.18 65.67 90.07 65.67 90.37 29.04"/><path class="cls-16" d="M73.09,8.54v10.2h-.51l-.35-1-1.46-4.14-.67-1.89v7.06h-.83l-.14-5.17-.13-5h1.1l1.55,5,.51,1.68,0-1.68-.13-5ZM61.92,15c0,3.45-2.52,3.7-2.89,3.71h-.84l-.13-4.9v-.27l-.13-5H59c.33.07,2.44.64,2.83,5l0,.27C61.91,14.21,61.92,14.61,61.92,15Zm-1.1-1.19,0-.27C60.6,11.84,60,10.14,59,9.66v8.16C60.49,18.06,61,16,60.82,13.84Zm6.3-5.3.13,5v.27l.13,4.9h.84V8.54Zm-.32,9.83-.47.37a5.76,5.76,0,0,1-2-2.93,7.41,7.41,0,0,1-.67.65v2.28h-.84l-.13-5v-.27l-.13-4.9h1.11a2.84,2.84,0,0,1,2.51,3,4.9,4.9,0,0,1-.32,1.93l-.12.27a6.72,6.72,0,0,1-.64,1.16A6.62,6.62,0,0,0,66.8,18.37Zm-2.15-4.66.09-.27c.55-1.76.34-3.59-1.11-3.77v5.89A6.15,6.15,0,0,0,64.65,13.71Zm11.45-.27,2.31-4.9H77.07l-1.85,4.9-.11.27-.09.23V8.54h-1.1l.13,4.9v.27l.13,5H75v-3l.62-1.31,1.68,4.32h1.09l-2.21-5Z"/><polygon class="cls-55" points="90.37 6.85 90.37 15.52 44.66 15.52 44.05 6.85 90.37 6.85"/><polygon class="cls-56" points="38.65 0.95 96.59 0.95 95.46 140.35 94.51 2.86 38.65 2.34 38.65 0.95"/><polygon class="cls-57" points="42.23 25.12 43.21 26.27 43.88 123.83 91.78 124.05 92.08 124.96 42.37 124.96 42.23 25.12"/><polygon class="cls-58" points="42.23 4.59 42.86 21.91 92.43 22.3 92.76 23.34 41.63 23.34 40.91 3.77 42.23 4.59"/><g class="cls-23"><polygon class="cls-59" points="57.49 55.07 52.54 55.07 51.58 36.09 57.49 36.09 57.49 55.07"/><polygon class="cls-60" points="64.19 55.07 67.79 55.07 69.14 37.52 63.16 37.52 64.19 55.07"/><polygon class="cls-61" points="62.56 55.07 58.46 55.07 57.49 31.89 63.41 31.89 62.56 55.07"/><polygon class="cls-62" points="84.5 55.07 79.55 55.07 78.59 31.89 84.5 31.89 84.5 55.07"/><polygon class="cls-63" points="74.08 55.07 78.23 55.07 79.8 35.56 72.89 35.56 74.08 55.07"/><polygon class="cls-64" points="72.19 55.07 67.45 55.07 66.33 32.85 73.17 32.85 72.19 55.07"/><polygon class="cls-65" points="88.13 56.21 47.23 56.92 46.98 55.54 88.43 55.54 88.13 56.21"/><polygon class="cls-66" points="88.13 118.28 47.23 118.99 46.98 117.61 88.43 117.61 88.13 118.28"/><polygon class="cls-67" points="84.66 87.16 47.21 87.87 46.98 86.49 84.93 86.49 84.66 87.16"/><polygon class="cls-68" points="52.93 85.61 48.93 85.61 48.15 64.83 52.93 64.83 52.93 85.61"/><polygon class="cls-69" points="57.72 85.61 53.71 85.61 52.93 68.79 57.72 68.79 57.72 85.61"/><polygon class="cls-70" points="58.35 85.61 61.27 85.61 62.36 62.43 57.52 62.43 58.35 85.61"/><polygon class="cls-71" points="64.95 85.61 61.63 85.61 60.84 59.21 65.63 59.21 64.95 85.61"/><polygon class="cls-72" points="79.96 85.61 75.96 85.61 75.17 62.43 79.96 62.43 79.96 85.61"/><polygon class="cls-73" points="79.53 85.61 82.9 85.61 84.16 66.11 78.57 66.11 79.53 85.61"/><polygon class="cls-74" points="65.82 85.61 69.19 85.61 70.45 66.11 64.86 66.11 65.82 85.61"/><polygon class="cls-75" points="74.98 85.61 71.14 85.61 70.24 63.4 75.77 63.4 74.98 85.61"/><polygon class="cls-76" points="65.97 116.72 61.96 116.72 61.18 93.54 65.97 93.54 65.97 116.72"/><polygon class="cls-77" points="52.56 116.72 48.55 116.72 47.77 99.26 52.56 99.26 52.56 116.72"/><polygon class="cls-78" points="57.98 116.72 60.89 116.72 61.98 95.91 57.15 95.91 57.98 116.72"/><polygon class="cls-79" points="56.66 116.72 53.34 116.72 52.56 93.02 57.34 93.02 56.66 116.72"/><polygon class="cls-80" points="79.33 116.72 75.33 116.72 74.54 93.54 79.33 93.54 79.33 116.72"/><polygon class="cls-81" points="72.31 116.72 75.67 116.72 76.94 97.21 71.35 97.21 72.31 116.72"/><polygon class="cls-82" points="79.26 116.72 82.62 116.72 83.89 97.21 78.3 97.21 79.26 116.72"/><polygon class="cls-83" points="70.78 116.72 66.95 116.72 66.04 94.5 71.58 94.5 70.78 116.72"/></g><polygon class="cls-84" points="87.75 31.81 86.49 120 84.5 120 81.37 37.29 47.54 34.95 47.54 31.14 87.75 31.81"/><path class="cls-85" d="M87.75,31.81,66.27,120.93H58.7L74.14,31.81Zm-25.92,0-9.21,89.12H56.5L71.75,31.81Z"/><polygon class="cls-8" points="90.37 65.67 86.49 65.67 87.19 101.03 90.06 101.03 90.37 65.67"/><polygon class="cls-5" points="86.49 65.67 87.19 101.03 89.78 101.03 89.61 121.49 88.66 121.49 88.96 101.69 86.66 101.6 85.71 65.67 86.49 65.67"/><path class="cls-86" d="M3.87,144.66H239.54a3.87,3.87,0,0,1,3.87,3.87v0a0,0,0,0,1,0,0H0a0,0,0,0,1,0,0v0A3.87,3.87,0,0,1,3.87,144.66Z"/></g></g></g></svg>