<svg xmlns="http://www.w3.org/2000/svg" xmlns:xlink="http://www.w3.org/1999/xlink" viewBox="0 0 166 166"><defs><style>.cls-1{fill:url(#Degradado_sin_nombre_28);}.cls-2{fill:#d24f2f;}.cls-3{fill:#842220;}.cls-4{fill:#f5fcfb;}.cls-5{fill:#207a36;}.cls-6{fill:#0d3e19;}.cls-7{fill:#eef7ef;}.cls-8{fill:#882624;}.cls-11,.cls-9{fill:none;stroke-miterlimit:10;}.cls-9{stroke:#000;}.cls-10{fill:#fbfff8;}.cls-11{stroke:#7a1818;stroke-width:2px;}</style><radialGradient id="Degradado_sin_nombre_28" cx="83" cy="83" r="83" gradientTransform="translate(0 -24.9) scale(1 1.3)" gradientUnits="userSpaceOnUse"><stop offset="0" stop-color="#f6683f"/><stop offset="0.53" stop-color="#f6663f"/><stop offset="0.72" stop-color="#f55f3e"/><stop offset="0.86" stop-color="#f4543d"/><stop offset="0.97" stop-color="#f2433c"/><stop offset="1" stop-color="#f13c3b"/></radialGradient></defs><title>avatar3</title><g id="Capa_2" data-name="Capa 2"><g id="Capa_1-2" data-name="Capa 1"><rect class="cls-1" width="166" height="166"/><path class="cls-2" d="M130.5,66.5a24,24,0,0,1-24,24c-13.25,0-25.87-10.88-24-24,.76-5.33,1.82-10.76,5-15,.46-.08,2.18,0,2.81-.09A161.4,161.4,0,0,0,113.69,45l1.59-.58C124.28,48.27,130.5,55.48,130.5,66.5Z"/><path class="cls-2" d="M81,73c0,13.39-8.86,26-22.25,26A24.26,24.26,0,0,1,35.84,66.79l.62.2a52.5,52.5,0,0,0,13.43,1.59A161.68,161.68,0,0,0,68,67.66c4-.39,7.44-.84,9.78-1.18l1.5-.21.1,0,.74-.11A26.41,26.41,0,0,1,81,73Z"/><path class="cls-3" d="M81,66l-.86.14-.74.11-.1,0-1.5.21c-2.34.34-5.78.79-9.78,1.18a161.68,161.68,0,0,1-18.13.92A52.5,52.5,0,0,1,36.46,67l-.62-.2A10.79,10.79,0,0,1,31,64S24,46,58,49a9.78,9.78,0,0,1,3.74,1.67,9.19,9.19,0,0,1,1,.83A8.07,8.07,0,0,1,65,56a29,29,0,0,1,0-3.89c0-.29,0-.58.08-.87.31-2.83,1.26-5.77,4-5.24,5,1,4,2,5,9,0,0,2-12,4-10S82,44,81,66Z"/><path class="cls-4" d="M80.5,73.5a22.5,22.5,0,0,1-45,0,22.19,22.19,0,0,1,1-6.51,52.5,52.5,0,0,0,13.43,1.59A161.68,161.68,0,0,0,68,67.66c4-.39,7.44-.84,9.78-1.18l1.5-.21a21,21,0,0,1,1,3.89,19.8,19.8,0,0,1,.22,2.32,1.27,1.27,0,0,1,0,.2v.12C80.5,73,80.5,73.27,80.5,73.5Z"/><path class="cls-4" d="M128.5,66.5A22.5,22.5,0,1,1,89.31,51.41,161.4,161.4,0,0,0,112.69,45,22.51,22.51,0,0,1,128.5,66.5Z"/><circle class="cls-5" cx="99.5" cy="66.5" r="16"/><path class="cls-5" d="M79.4,66.25A15.48,15.48,0,0,1,80.5,72c0,.22,0,.46,0,.68v.12a15.5,15.5,0,0,1-31-.8,14.88,14.88,0,0,1,.39-3.42A161.68,161.68,0,0,0,68,67.66c4-.39,7.44-.84,9.78-1.18l1.5-.21"/><path class="cls-6" d="M80.5,72a3.87,3.87,0,0,1,0,.48,7,7,0,0,1-14-.48A6.86,6.86,0,0,1,68,67.66c4-.39,7.44-.84,9.78-1.18a6.87,6.87,0,0,1,2.45,3.68A6.59,6.59,0,0,1,80.5,72Z"/><circle class="cls-6" cx="92" cy="67.5" r="7"/><circle class="cls-7" cx="98.5" cy="65" r="3.5"/><circle class="cls-7" cx="65.5" cy="70.5" r="3"/><path class="cls-8" d="M126,94s8,5,0,13C126,107,148,100,126,94Z"/><path class="cls-8" d="M28,127a11.5,11.5,0,0,0,9.5,9.5S24,142,28,127Z"/><path class="cls-9" d="M108.12,97.34,107,97.27"/><path class="cls-9" d="M91.23,97.65c-.83.09-1.66.2-2.47.32"/><path class="cls-9" d="M72,102.17l-1,.37"/><path class="cls-10" d="M71,102.54a83.24,83.24,0,0,0-16,8.19c.05-4.92.7-12.73,8.49-12.73A8.51,8.51,0,0,1,71,102.54Z"/><path class="cls-10" d="M88.76,98A82.84,82.84,0,0,0,72,102.17V102c0-5,2-10,7-10C82.59,92,86.74,94.63,88.76,98Z"/><path class="cls-10" d="M107,97.27a90.24,90.24,0,0,0-15.73.38C92.12,93.92,95.46,90,99,90A8.45,8.45,0,0,1,107,97.27Z"/><path class="cls-10" d="M54.11,111.33A86.83,86.83,0,0,0,41,122.13c.27-4.44,2.4-16.92,8-14.13C51,109,53,109.86,54.11,111.33Z"/><path class="cls-10" d="M123,99.53a105.52,105.52,0,0,0-14.86-2.19A7.11,7.11,0,0,1,115,92,8.14,8.14,0,0,1,123,99.53Z"/><path class="cls-3" d="M134,35a110.52,110.52,0,0,1-19.72,9.43l-1.59.58a161.4,161.4,0,0,1-23.38,6.4c-.63.13-1.18.23-1.64.31L86,52c-2-1-8-13-4-19,3.79-5.69,7.59,6.61,8,7.89-.28-1.2-2.69-11.95,2-12.89,5-1,10,12,10,12V33.65a4.87,4.87,0,0,1,2.28-4.15C125.6,16.33,134,35,134,35Z"/><path class="cls-9" d="M79.4,66.25l-.1,0"/><path class="cls-11" d="M32,133s31-50,97-32"/></g></g></svg>