<svg xmlns="http://www.w3.org/2000/svg" xmlns:xlink="http://www.w3.org/1999/xlink" viewBox="0 0 167 168"><defs><style>.cls-1{fill:url(#Degradado_sin_nombre_36);}.cls-2{fill:#4f2742;}.cls-3{fill:#fe4f98;}.cls-4{fill:#eb439c;}.cls-5{fill:#fffeff;}.cls-6{fill:#22beae;}.cls-7{fill:#0b5661;}.cls-8{fill:#9035ae;}.cls-9{fill:#fdfffc;}.cls-10{fill:#af3b8e;}.cls-11{fill:#fd97cc;}.cls-12{fill:#fffcfa;}.cls-13{fill:#33172a;}</style><radialGradient id="Degradado_sin_nombre_36" cx="83.5" cy="84" r="83.75" gradientTransform="translate(0 -84) scale(1 2)" gradientUnits="userSpaceOnUse"><stop offset="0" stop-color="#fb50ac"/><stop offset="0.5" stop-color="#f950ae"/><stop offset="0.68" stop-color="#f24fb4"/><stop offset="0.81" stop-color="#e74dc0"/><stop offset="0.91" stop-color="#d64ad0"/><stop offset="1" stop-color="#c047e5"/></radialGradient></defs><title>avatar1</title><g id="Capa_2" data-name="Capa 2"><g id="Capa_1-2" data-name="Capa 1"><rect class="cls-1" width="167" height="168"/><path class="cls-2" d="M30.18,110.2a43.12,43.12,0,0,0,7,11.5c.57.67,1.15,1.32,1.75,1.94a46,46,0,0,0,13,9.28l1.16.54a64.47,64.47,0,0,0,20.09,5.24l2,.18A53.94,53.94,0,0,0,82,139a121.54,121.54,0,0,0,14.62-1c.86-.11,1.69-.23,2.51-.37h0a70.08,70.08,0,0,0,20.7-6.34q1.45-.74,2.79-1.53a41.31,41.31,0,0,0,14.62-14c.56-.9,1.07-1.8,1.53-2.71a45.35,45.35,0,0,0,4.41-14A59.61,59.61,0,0,0,142,76c-3,8-16,16-16,16-6,6-47,15-71,11S26,82,26,82C25.43,93.59,27.1,102.83,30.18,110.2Z"/><path class="cls-3" d="M127.67,127.48a47,47,0,0,1-4,2.65q-1.34.8-2.79,1.53a70.08,70.08,0,0,1-20.7,6.34h0c-.82.14-1.65.26-2.51.37q-3.65.49-7.66.75c-1.57.11-3.2.18-4.87.23l-2.09,0a53.94,53.94,0,0,1-6.81-.12l-2-.18a64.47,64.47,0,0,1-20.09-5.24l-1.16-.54a50.08,50.08,0,0,1-5.52-3.13c6-12.23,20.12-15.79,30.61-15.79,4.16,0,6.89,1.24,8.65,3.36,1.61-3.62,4.63-5.87,10.27-5.87C107.41,111.88,121.54,115.41,127.67,127.48Z"/><path class="cls-4" d="M77,83c0,10.77-6.23,16-17,16S40,90.77,40,80s6.23-18,17-18S77,72.23,77,83Z"/><path class="cls-4" d="M127,75c0,10.49-5,19-21,19-10.22,0-17.28-7.76-15-18,2-9,7-21,21-20C122.19,56.73,127,64.51,127,75Z"/><path class="cls-5" d="M76.5,83c0,9.11-8.89,13.5-18,13.5s-17-5.89-17-15a15.66,15.66,0,0,1,16-16C66.61,65.5,76.5,73.89,76.5,83Z"/><path class="cls-5" d="M90.77,79.66c.87,9.07,7.66,11.71,16.73,10.84s20-5,18-16c-1.63-9-7-16-17.48-14.07C99.05,62.08,89.9,70.59,90.77,79.66Z"/><circle class="cls-6" cx="66" cy="82.5" r="11"/><circle class="cls-6" cx="102" cy="79" r="11.5"/><circle class="cls-7" cx="70.5" cy="82.5" r="5"/><circle class="cls-7" cx="97.5" cy="79.5" r="5"/><path class="cls-8" d="M66.65,24.07a9.43,9.43,0,0,1-1.18-.22A30,30,0,0,0,46,26c-9.85,4.48-1,5-1,5s-14,4-9,14c0,0,3.29,2.46,9.11-3.77a15.7,15.7,0,0,1,5.23-3.76c1.94-.85,4.79-2,8.66-3.47C66.84,31.06,76.59,25.25,66.65,24.07Z"/><path class="cls-8" d="M109.41,18.42a9.53,9.53,0,0,1,4,.49,3.4,3.4,0,0,1,2.23,3.14c-.1,1.46-1.42,2.51-2.63,3.36l6.54.31a9.57,9.57,0,0,1,4.18.84,3.31,3.31,0,0,1,1.85,3.53c-.46,1.7-2.49,2.34-4.21,2.68a26.26,26.26,0,0,1-8.22.74,46.85,46.85,0,0,1-5.2-1.14,31.74,31.74,0,0,0-9.06-.72,46.62,46.62,0,0,1-6.46.34c-2.85-.22-6.08-1.62-6.69-4.72-.52-2.7,1.4-3.65,3.51-4.73C95.55,19.34,102.48,18.59,109.41,18.42Z"/><circle class="cls-9" cx="66" cy="80" r="2"/><circle class="cls-9" cx="101" cy="77" r="2"/><path class="cls-10" d="M55,103c24,4,65-5,71-11,0,0,13-8,16-16-4,7-23,17-23,17-6,3-34,9-61,8-24.31-.9-32-19-32-19S31,99,55,103Z"/><path class="cls-11" d="M142,76a59.61,59.61,0,0,1,1.19,23,45.35,45.35,0,0,1-4.41,14c-.46.91-1,1.81-1.53,2.71a41.31,41.31,0,0,1-14.62,14q-1.34.8-2.79,1.53a70.08,70.08,0,0,1-20.7,6.34h0c-.82.14-1.65.26-2.51.37A121.54,121.54,0,0,1,82,139a53.94,53.94,0,0,1-6.81-.12l-2-.18a64.47,64.47,0,0,1-20.09-5.24l-1.16-.54a46,46,0,0,1-13-9.28c-.6-.62-1.18-1.27-1.75-1.94a43.12,43.12,0,0,1-7-11.5C27.1,102.83,25.43,93.59,26,82c-6,68,56,60,56,60C165,142,142,76,142,76Z"/><path class="cls-12" d="M40,114.5a9.71,9.71,0,0,1-2.81,7.2,43.12,43.12,0,0,1-7-11.5A9.18,9.18,0,0,1,36,108C39.31,108,40,109.81,40,114.5Z"/><path class="cls-12" d="M53,127.5a13.44,13.44,0,0,1-1.09,5.42,46,46,0,0,1-13-9.28A11,11,0,0,1,48,118C52.14,118,53,121.7,53,127.5Z"/><path class="cls-12" d="M73.16,138.7a64.47,64.47,0,0,1-20.09-5.24c1.93-3.54,6.21-6,9.93-7.46,5.38-2.15,9,7,10,11.5A7.33,7.33,0,0,1,73.16,138.7Z"/><path class="cls-12" d="M96.62,138A121.54,121.54,0,0,1,82,139a53.94,53.94,0,0,1-6.81-.12C76.15,133.42,80.62,128,86,128,91.08,128,95.36,132.84,96.62,138Z"/><path class="cls-12" d="M119.84,131.27a70.08,70.08,0,0,1-20.7,6.34h0A9.46,9.46,0,0,1,99,136c0-5.52,3.48-11,9-11C112.2,125,117.54,127.6,119.84,131.27Z"/><path class="cls-12" d="M137.25,115.7a41.31,41.31,0,0,1-14.62,14A10.74,10.74,0,0,1,122,126c0-5.52,3-11,12-11A7,7,0,0,1,137.25,115.7Z"/><path class="cls-12" d="M143.19,99a45.35,45.35,0,0,1-4.41,14,9.41,9.41,0,0,1-3.78-7C135,101.85,139,99.32,143.19,99Z"/><path class="cls-13" d="M119.5,99.5c0,4.49-3.3,9.58-8.61,13.51a45.89,45.89,0,0,0-14-2.13c-5.64,0-8.66,2.25-10.27,5.87-1.76-2.12-4.49-3.36-8.65-3.36a46.5,46.5,0,0,0-11.27,1.38c-7.1-2.89-12.23-6.87-12.23-11.27,0-.2,0-.39,0-.59.16,0,.32.06.48.09,19.1,3.18,49-1.87,63.4-7.09A6.74,6.74,0,0,1,119.5,99.5Z"/></g></g></svg>