<svg xmlns="http://www.w3.org/2000/svg" xmlns:xlink="http://www.w3.org/1999/xlink" viewBox="0 0 167 167"><defs><style>.cls-1{fill:url(#Degradado_sin_nombre_10);}.cls-2{fill:url(#Degradado_sin_nombre_18);}.cls-3{fill:#2f161e;}.cls-4{fill:#542937;}.cls-5{fill:#e6397a;}.cls-6{fill:#fa5198;}.cls-7{fill:#fa65b0;}.cls-8{fill:#fefffa;}.cls-9{fill:#e6d43b;}.cls-10{fill:#fbfffb;}.cls-11{fill:#622cff;}.cls-12{fill:#6430ff;}.cls-13{fill:#431fba;}.cls-14{fill:#4220b1;}.cls-15{fill:#f9fdf8;}.cls-16{fill:#aa496d;}.cls-17{fill:#ce6b99;}.cls-18{fill:#8f405c;}.cls-19{fill:#9c3835;}</style><radialGradient id="Degradado_sin_nombre_10" cx="83.5" cy="83.5" r="83.5" gradientUnits="userSpaceOnUse"><stop offset="0" stop-color="#f5fa47"/><stop offset="1" stop-color="#f6a53e"/></radialGradient><radialGradient id="Degradado_sin_nombre_18" cx="82.14" cy="110.31" r="47.55" gradientUnits="userSpaceOnUse"><stop offset="0" stop-color="#f5fa47"/><stop offset="0.52" stop-color="#f5d043"/><stop offset="1" stop-color="#f6a53e"/></radialGradient></defs><title>avatar7</title><g id="Capa_2" data-name="Capa 2"><g id="Capa_1-2" data-name="Capa 1"><rect class="cls-1" width="167" height="167"/><path class="cls-2" d="M142.81,113.12a12.2,12.2,0,0,1-2.59,13.68c-4.73,4.51-14,9.51-31.41,2.28-28.7-11.94-53.4,1.6-54.67,2.3l0,0c-6.19,4-14.45,5.59-20,5.59-9.88,0-13.68-5.51-13.68-15A16.76,16.76,0,0,1,24,111.6l.13-.18c2.1-2.76,28.75-36.4,74.17-25.7C129,92.94,139.31,105.3,142.81,113.12Z"/><path class="cls-3" d="M58.5,117.5s-5-16,14-24c16.11-6.79,12.09,6.57,10.49,10.78a3.15,3.15,0,0,0,.25,2.74,6.84,6.84,0,0,0,7.26,3.48c4.86-.81,3.82-6.86,3.24-9.14a3.38,3.38,0,0,0-.69-1.36c-1.36-1.63-4.75-6.66,4.45-7.5,11-1,14,16,11,21S58.5,117.5,58.5,117.5Z"/><path class="cls-4" d="M140.74,115.36a8.38,8.38,0,0,1-1.38,7.84c-3.58,4.59-12.42,10.94-31.86,3.3-27.27-10.71-50.75,1.43-51.95,2.06l0,0c-5.88,3.57-13.73,5.91-19,5.91-9.39,0-13-4.94-13-13.5a14.53,14.53,0,0,1,3.38-9.28,1.59,1.59,0,0,1,.13-.16c2-2.48,27.32-32.65,70.49-23.06C130.06,95.74,138.54,108.73,140.74,115.36Z"/><path class="cls-5" d="M127.52,130.11l-.19,0-.61.1c-.38.06-.78.11-1.19.15l-.34,0-.92.07h-.13c-.41,0-.82,0-1.25,0s-1.12,0-1.7-.05-1.44-.1-2.2-.2c-.52-.06-1-.14-1.59-.23l-1.17-.21c-.48-.09-1-.19-1.46-.31l-1.25-.3-.94-.26c-.39-.1-.78-.22-1.18-.34s-.79-.24-1.2-.38l-.92-.31-.37-.13-1-.36-1.27-.48-1.16-.44-.86-.3-1.12-.39h0a63.37,63.37,0,0,0-16.24-3.14c-2-.12-4-.14-5.88-.08A68.14,68.14,0,0,0,62,126.05c-1.87.62-3.43,1.23-4.62,1.74l-.49.21c-1.24.54-2,.93-2.18,1l0,0-.87.51-.53.29a12.93,12.93,0,0,1,.16-8.26,16,16,0,0,1,4.19-6.28,20,20,0,0,1,4-2.95,18.93,18.93,0,0,1,9-2.4,17.67,17.67,0,0,1,14.67,8.11,25.76,25.76,0,0,1,4.21-2.86A25.17,25.17,0,0,1,101.14,112a16.13,16.13,0,0,1,3,.32h0a33.18,33.18,0,0,1,8.29,2.92,36.77,36.77,0,0,1,12.24,9.32A13,13,0,0,1,127.52,130.11Z"/><path class="cls-6" d="M112.51,115.22c-3.28,3.62-14.35,6.28-27.51,6.28s-24-2.61-27.41-6.18a20,20,0,0,1,4-2.95,18.93,18.93,0,0,1,9-2.4,17.67,17.67,0,0,1,14.67,8.11,25.76,25.76,0,0,1,4.21-2.86A25.17,25.17,0,0,1,101.14,112a16.13,16.13,0,0,1,3,.32h0A33.18,33.18,0,0,1,112.51,115.22Z"/><path class="cls-7" d="M79.36,112.38c-.75,2.34-4.43,4.12-8.86,4.12s-8.12-1.78-8.86-4.13a18.93,18.93,0,0,1,9-2.4A17.27,17.27,0,0,1,79.36,112.38Z"/><path class="cls-7" d="M107.5,115c0,1.93-4,3.5-9,3.5-4.78,0-8.69-1.45-9-3.28A25.17,25.17,0,0,1,101.14,112a16.13,16.13,0,0,1,3,.32h0C106.22,112.94,107.5,113.91,107.5,115Z"/><path class="cls-8" d="M46,131.5a3.55,3.55,0,0,1-.27,1.39,32.79,32.79,0,0,1-9.23,1.61,17.06,17.06,0,0,1-6.5-1.1c.07-3.6,3.94-9.4,7.5-9.4S46,127.91,46,131.5Z"/><path class="cls-8" d="M63,126c-4.28,1.42-7.07,2.36-7.45,2.56l0,0A42.55,42.55,0,0,1,48,132.13a3.63,3.63,0,0,1-1-2.63c0-3.59,1.91-8.5,5.5-8.5C55.77,121,62,123,63,126Z"/><path class="cls-8" d="M119.85,130.81a50.8,50.8,0,0,1-12.35-3.31c-1-.41-2.1-.79-3.14-1.13h0c1.19-3.38,6.88-5.18,10.27-4C117.75,123.45,120.38,127.52,119.85,130.81Z"/><path class="cls-8" d="M138.22,124.51A22.4,22.4,0,0,1,121,131c.5-3.19,6.61-10,9.5-10C132.84,121,136.6,122.45,138.22,124.51Z"/><circle class="cls-9" cx="58.25" cy="58" r="21.25"/><circle class="cls-9" cx="109" cy="58" r="21"/><circle class="cls-10" cx="58.75" cy="58" r="18.75"/><circle class="cls-10" cx="108.75" cy="58" r="18.75"/><circle class="cls-11" cx="101.5" cy="59.5" r="11"/><circle class="cls-12" cx="66.5" cy="58.5" r="11"/><circle class="cls-13" cx="95.5" cy="58.5" r="5"/><circle class="cls-14" cx="72.5" cy="59.5" r="5"/><circle class="cls-15" cx="68" cy="56" r="2.5"/><circle class="cls-15" cx="100" cy="58" r="2.5"/><path class="cls-16" d="M95.46,75.05c.3,3.6-4.82,7-11.43,7.49S71.83,80.6,71.54,77A4.57,4.57,0,0,1,73,73.53c1.94-2.07,5.65-3.65,10-4,4.08-.33,7.78.49,10.07,2A4.8,4.8,0,0,1,95.46,75.05Z"/><path class="cls-17" d="M93,71.53c-1.93,2.07-5.64,3.66-10,4-4.08.33-7.77-.49-10.07-2,1.94-2.07,5.65-3.65,10-4C87.05,69.19,90.75,70,93,71.53Z"/><ellipse class="cls-18" cx="89.57" cy="78.98" rx="4.19" ry="2" transform="translate(-25.47 46.95) rotate(-25.85)"/><ellipse class="cls-18" cx="77.57" cy="79.98" rx="2" ry="4.19" transform="translate(-23.44 127.02) rotate(-70.85)"/><path class="cls-19" d="M114.5,43.5s-16,3-22,11c-4.81,6.41-8.33,3.19-9.54,1.66A5.59,5.59,0,0,1,79.5,58.5c-5,1-10-7-15-11-4-3.21-11.89-2.56-14.85-2.17a9.48,9.48,0,0,1-2.66,0c-7.37-1.15-6.49-3.8-6.49-3.8-2-7,14-7,14-7-4-5-1-6-1-6,5-5,14,8,14,8,1-13,11,1,15,7a12.55,12.55,0,0,1,1.82,4.25A40.55,40.55,0,0,1,96.5,31.5c10-8,6,4,6,4,2-3,9-7,9-7,13-7,9,4,9,4,9-2,9,2,9,2C130.5,42.5,114.5,43.5,114.5,43.5Z"/></g></g></svg>