<svg xmlns="http://www.w3.org/2000/svg" xmlns:xlink="http://www.w3.org/1999/xlink" viewBox="0 0 167 167"><defs><style>.cls-1{fill:url(#Degradado_sin_nombre_24);}.cls-2{fill:#f23a16;}.cls-3{fill:#fff;}.cls-4{fill:#049ad8;}.cls-5{fill:#013652;}.cls-6{fill:#f8fdf7;}.cls-7{fill:#642b50;}.cls-10,.cls-8,.cls-9{fill:none;stroke-miterlimit:10;}.cls-8{stroke:url(#Degradado_sin_nombre_18);}.cls-9{stroke:url(#Degradado_sin_nombre_18-2);}.cls-10{stroke:url(#Degradado_sin_nombre_18-3);}.cls-11{fill:#fd5067;}.cls-12{fill:#f03a71;}.cls-13{fill:#fff3ca;}.cls-14{fill:#912e13;}.cls-15{fill:#f4737c;}</style><radialGradient id="Degradado_sin_nombre_24" cx="83.5" cy="83.5" r="83.5" gradientUnits="userSpaceOnUse"><stop offset="0" stop-color="#fd7f24"/><stop offset="0.85" stop-color="#fd5524"/><stop offset="1" stop-color="#fd4d24"/></radialGradient><radialGradient id="Degradado_sin_nombre_18" cx="62.05" cy="94.17" r="0.8" gradientUnits="userSpaceOnUse"><stop offset="0" stop-color="#f5fa47"/><stop offset="0.52" stop-color="#f5d043"/><stop offset="1" stop-color="#f6a53e"/></radialGradient><radialGradient id="Degradado_sin_nombre_18-2" cx="102.04" cy="94.83" r="1.24" xlink:href="#Degradado_sin_nombre_18"/><radialGradient id="Degradado_sin_nombre_18-3" cx="60.9" cy="93.69" r="0.68" xlink:href="#Degradado_sin_nombre_18"/></defs><title>avatar8</title><g id="Capa_2" data-name="Capa 2"><g id="Capa_1-2" data-name="Capa 1"><rect class="cls-1" width="167" height="167"/><path class="cls-2" d="M110.09,100.4c0,14-16.39,20.81-22.85,22.2a17.87,17.87,0,0,1-5.31.33c-20.45-1.88-27.27-14.17-27.51-14.58l-1-1c-.94-1.23-1.5-6.77-1.5-8.45a7.39,7.39,0,0,1,9.76-7l1.25.56c3.26,1.52,7.72,4,7.72,4,3.22,1.92,9.35,2.18,13.23,2.12a15,15,0,0,0,6-1.36,73.39,73.39,0,0,1,10.51-4,24.43,24.43,0,0,1,2.74-.67C106.43,92.49,110.09,97.14,110.09,100.4Z"/><path class="cls-2" d="M51,73.71c0,11-12.14,19.91-23.14,19.91S8,86.86,8,75.86s6.76-23.13,17.76-23.13S51,62.72,51,73.71Z"/><path class="cls-2" d="M164,76.94c0,12.18-11,22.06-23.14,22.06s-27.44-11-27.44-23.14S128.7,49.5,140.88,49.5,164,64.76,164,76.94Z"/><path class="cls-3" d="M53.5,72c0,10.22-11.28,18.5-21.5,18.5S13.5,84.22,13.5,74,19.78,52.5,30,52.5,53.5,61.78,53.5,72Z"/><path class="cls-3" d="M158.5,75c0,11.32-10.18,20.5-21.5,20.5S111.5,85.32,111.5,74,125.68,49.5,137,49.5,158.5,63.68,158.5,75Z"/><circle class="cls-4" cx="124" cy="71" r="9.5"/><circle class="cls-4" cx="44" cy="70" r="7.5"/><circle class="cls-5" cx="124.5" cy="72.5" r="5"/><circle class="cls-5" cx="44.5" cy="68.5" r="5"/><circle class="cls-6" cx="47" cy="73" r="2.5"/><circle class="cls-6" cx="128.5" cy="75.5" r="3"/><path class="cls-7" d="M109.5,100.5c0,14.23-15.61,19.08-22.16,20.49a18.08,18.08,0,0,1-5.39.34C61.2,119.42,53.27,105.94,53,105.52h0A7.36,7.36,0,0,1,51.5,101,7.5,7.5,0,0,1,59,93.5a7.32,7.32,0,0,1,2.4.4l1.26.56c3.31,1.55,7.84,4,7.84,4,3.26,2,9.48,2.21,13.42,2.15a15.15,15.15,0,0,0,6.14-1.38,74.53,74.53,0,0,1,10.66-4.09,27.55,27.55,0,0,1,2.78-.68A6,6,0,0,1,109.5,100.5Z"/><path class="cls-8" d="M62.66,94.46,61.4,93.9A6.45,6.45,0,0,1,62.66,94.46Z"/><path class="cls-9" d="M103.5,94.5a27.55,27.55,0,0,0-2.78.68A6,6,0,0,1,103.5,94.5Z"/><path class="cls-10" d="M61.4,93.9c-.38-.16-.73-.3-1-.4"/><path class="cls-11" d="M103.38,113.63a32.55,32.55,0,0,1-11.06,6c-.88.29-1.72.54-2.51.76-5.3-.53-9.31-3-9.31-5.89a3.49,3.49,0,0,1,.67-2c1.58-2.31,5.83-4,10.83-4C97.79,108.5,102.58,110.73,103.38,113.63Z"/><path class="cls-12" d="M89.81,120.39c-.91.25-1.75.44-2.47.6a18.08,18.08,0,0,1-5.39.34,43.36,43.36,0,0,1-15.28-4.15c.84-3.24,4.69-5.68,9.33-5.68a18.38,18.38,0,0,1,5.17,1,3.49,3.49,0,0,0-.67,2C80.5,117.42,84.51,119.86,89.81,120.39Z"/><path class="cls-12" d="M66.67,117.18A43.36,43.36,0,0,0,82,121.33a18.08,18.08,0,0,0,5.39-.34c.72-.16,1.56-.35,2.47-.6"/><path class="cls-13" d="M63,98c-2.49,0-4.5-1.57-4.5-3.5a2.83,2.83,0,0,1,.44-1.5H59a7.32,7.32,0,0,1,2.4.4l1.26.56c1.38.65,3,1.44,4.33,2.16A4.79,4.79,0,0,1,63,98Z"/><path class="cls-13" d="M71,103a3.5,3.5,0,0,1-3.5-3.5A7.71,7.71,0,0,1,68,96.65C69.45,97.42,70.5,98,70.5,98a17.18,17.18,0,0,0,6.42,1.82A10.14,10.14,0,0,1,71,103Z"/><path class="cls-13" d="M83.5,106c-2.76,0-6-3.24-6-6a.41.41,0,0,1,0-.11,52.43,52.43,0,0,0,6.41.26,15.15,15.15,0,0,0,4.54-.75,4,4,0,0,1,0,.6C88.5,102.76,86.26,106,83.5,106Z"/><path class="cls-13" d="M98.5,97c0,2.21-2,5-4.5,5a6.49,6.49,0,0,1-4.75-2.89c.27-.1.54-.22.81-.34a79.67,79.67,0,0,1,8.1-3.28A3.51,3.51,0,0,1,98.5,97Z"/><path class="cls-13" d="M98.53,95.36c.83-.27,1.56-.5,2.19-.68A27.55,27.55,0,0,1,103.5,94a5.94,5.94,0,0,1,3,.8,1.34,1.34,0,0,1,0,.2c0,1.66-1.79,3-4,3C100.45,98,98.76,96.85,98.53,95.36Z"/><path class="cls-13" d="M62.66,94,61.4,93.4A6.45,6.45,0,0,1,62.66,94Z"/><path class="cls-13" d="M103.5,94a27.55,27.55,0,0,0-2.78.68A6,6,0,0,1,103.5,94Z"/><path class="cls-13" d="M67,96.12A4.79,4.79,0,0,1,63,98c-2.49,0-4.5-1.57-4.5-3.5a2.83,2.83,0,0,1,.44-1.5H59a7.32,7.32,0,0,1,2.4.4,6.45,6.45,0,0,1,1.26.56C64,94.61,65.62,95.4,67,96.12Z"/><path class="cls-13" d="M106.5,95c0,1.66-1.79,3-4,3-2,0-3.74-1.15-4-2.64.83-.27,1.56-.5,2.19-.68A6,6,0,0,1,103.5,94a5.94,5.94,0,0,1,3,.8A1.34,1.34,0,0,1,106.5,95Z"/><path class="cls-13" d="M88.5,100c0,2.76-2.24,6-5,6s-6-3.24-6-6a.41.41,0,0,1,0-.11,52.43,52.43,0,0,0,6.41.26,15.15,15.15,0,0,0,4.54-.75A4,4,0,0,1,88.5,100Z"/><path class="cls-13" d="M98.5,97c0,2.21-2,5-4.5,5a6.49,6.49,0,0,1-4.75-2.89c.27-.1.54-.22.81-.34a79.67,79.67,0,0,1,8.1-3.28A3.51,3.51,0,0,1,98.5,97Z"/><path class="cls-13" d="M76.92,99.82A10.14,10.14,0,0,1,71,103a3.5,3.5,0,0,1-3.5-3.5A7.71,7.71,0,0,1,68,96.65C69.45,97.42,70.5,98,70.5,98A17.18,17.18,0,0,0,76.92,99.82Z"/><path class="cls-13" d="M68.5,116.5a3.37,3.37,0,0,1-.51,1.8,37.3,37.3,0,0,1-6.1-3.39,3.5,3.5,0,0,1,6.61,1.59Z"/><path class="cls-13" d="M106.28,111a23.8,23.8,0,0,1-8.43,6.83A4.88,4.88,0,0,1,97.5,116c0-2.76,1.24-5,4-5A36.31,36.31,0,0,1,106.28,111Z"/><path class="cls-13" d="M95.79,118.8a45.45,45.45,0,0,1-8.45,2.69c-.59.13-1.18.22-1.77.29a4,4,0,0,1-.07-.78,5,5,0,0,1,5-5A6.74,6.74,0,0,1,95.79,118.8Z"/><path class="cls-13" d="M81.5,121.5a2.46,2.46,0,0,1,0,.28,45,45,0,0,1-10.77-2.39A5.94,5.94,0,0,1,76,116C78.49,116,81.5,119,81.5,121.5Z"/><path class="cls-14" d="M64,77s2-29.41-18.39-43.58a1.39,1.39,0,0,0-1.76.09C43.08,34.28,42.6,36.2,45,41c0,0-8-14-24-10,0,0-7.5,1.5,13.5,12.5,0,0-25-5-25,5,0,0-1,4,8,7C17.5,55.5,58.5,69.5,64,77Z"/><path class="cls-14" d="M105.5,79.5a44.76,44.76,0,0,1,19-43s4-1,0,8c0,0,5-13,23-11,0,0,9,1-13,13,0,0,25-6,25,5,0,0,2,3-13,9C146.5,60.5,113.5,71.5,105.5,79.5Z"/><circle class="cls-15" cx="91" cy="110" r="1"/><path class="cls-15" d="M90,111.5c0,.28-1.34.5-3,.5s-4,.78-4,.5,3.34-2.5,5-2.5A1.78,1.78,0,0,1,90,111.5Z"/></g></g></svg>