<svg xmlns="http://www.w3.org/2000/svg" viewBox="0 0 52.43 70.35"><defs><style>.cls-1,.cls-3{fill:#ffcb05;}.cls-2{fill:#42210b;}.cls-3{stroke:#42210b;stroke-linecap:round;stroke-linejoin:round;stroke-width:4.6px;}</style></defs><title>doc_</title><g id="Capa_2" data-name="Capa 2"><g id="Layer_1" data-name="Layer 1"><path class="cls-1" d="M9.75,68.05A7.45,7.45,0,0,1,2.3,60.61V9.74A7.45,7.45,0,0,1,9.75,2.3H33.21A2.31,2.31,0,0,1,34.84,3L49.45,17.59a2.32,2.32,0,0,1,.68,1.63V60.61a7.45,7.45,0,0,1-7.45,7.44Z"/><path class="cls-2" d="M33.21,4.6,47.83,19.22V60.61a5.15,5.15,0,0,1-5.15,5.14H9.75A5.14,5.14,0,0,1,4.6,60.61V9.74A5.14,5.14,0,0,1,9.75,4.6H33.21m0-4.6H9.75A9.75,9.75,0,0,0,0,9.74V60.61a9.75,9.75,0,0,0,9.75,9.74H42.68a9.76,9.76,0,0,0,9.75-9.74V19.22A4.64,4.64,0,0,0,51.08,16L36.46,1.35A4.56,4.56,0,0,0,33.21,0Z"/><path class="cls-2" d="M35,6.37,45.74,17.13H40.08A5.1,5.1,0,0,1,35,12V6.37m0-4.6a4.49,4.49,0,0,0-1.76.35,4.6,4.6,0,0,0-2.84,4.25V12a9.71,9.71,0,0,0,9.7,9.7h5.66A4.6,4.6,0,0,0,49,13.87L38.23,3.11A4.6,4.6,0,0,0,35,1.77Z"/><line class="cls-3" x1="14.46" y1="26.92" x2="37.96" y2="26.92"/><line class="cls-3" x1="14.46" y1="35.58" x2="37.96" y2="35.58"/><line class="cls-3" x1="14.46" y1="44.25" x2="37.96" y2="44.25"/><line class="cls-3" x1="14.46" y1="52.92" x2="37.96" y2="52.92"/></g></g></svg>