<svg xmlns="http://www.w3.org/2000/svg" viewBox="0 0 86.94 71.08"><defs><style>.cls-1,.cls-3{fill:#ffcb05;}.cls-2{fill:#42210b;}.cls-3,.cls-5{stroke:#42210b;}.cls-3,.cls-5,.cls-6{stroke-linejoin:round;stroke-width:4.6px;}.cls-4{fill:#faa61a;}.cls-5,.cls-6{fill:none;}.cls-6{stroke:#fff;stroke-linecap:round;}</style></defs><title>home_</title><g id="Capa_2" data-name="Capa 2"><g id="Layer_1" data-name="Layer 1"><path class="cls-1" d="M22.18,68.78a9.55,9.55,0,0,1-9.54-9.54V29.67a2.3,2.3,0,0,1,.88-1.81L42.41,5.27a2.3,2.3,0,0,1,2.84,0L73.41,27.38a2.27,2.27,0,0,1,.88,1.8V59.24a9.54,9.54,0,0,1-9.53,9.54Z"/><path class="cls-2" d="M43.83,7.08,72,29.18V59.24a7.24,7.24,0,0,1-7.23,7.24H22.18a7.24,7.24,0,0,1-7.24-7.24V29.67L43.83,7.08m0-4.6a4.58,4.58,0,0,0-2.83,1L12.11,26a4.61,4.61,0,0,0-1.77,3.63V59.24A11.85,11.85,0,0,0,22.18,71.08H64.76A11.84,11.84,0,0,0,76.59,59.24V29.18a4.56,4.56,0,0,0-1.76-3.61L46.67,3.46a4.62,4.62,0,0,0-2.84-1Z"/><path class="cls-3" d="M83.33,33.85,46.67,3.61a4.58,4.58,0,0,0-6.41,0L3.61,33.85A4.49,4.49,0,0,0,10,40.19l33.51-27.1L77,40.19a4.49,4.49,0,0,0,6.35-6.34Z"/><path class="cls-3" d="M83.33,33.85,46.67,3.61a4.58,4.58,0,0,0-6.41,0L3.61,33.85A4.49,4.49,0,0,0,10,40.19l33.51-27.1L77,40.19a4.49,4.49,0,0,0,6.35-6.34Z"/><path class="cls-4" d="M14.94,32.79a2.3,2.3,0,0,1-2.3-2.3V7.05A4.46,4.46,0,0,1,17.1,2.59h2.61a4.46,4.46,0,0,1,4.46,4.46V30.49a2.3,2.3,0,0,1-2.3,2.3Z"/><path class="cls-2" d="M19.71,4.89a2.16,2.16,0,0,1,2.16,2.16V30.49H14.94V7.05A2.16,2.16,0,0,1,17.1,4.89h2.61m0-4.6H17.1a6.77,6.77,0,0,0-6.76,6.76V30.49a4.6,4.6,0,0,0,4.6,4.6h6.93a4.6,4.6,0,0,0,4.6-4.6V7.05A6.76,6.76,0,0,0,19.71.29Z"/><path class="cls-4" d="M43.25,7.53,14.94,29.67V59.24a7.24,7.24,0,0,0,7.24,7.24H43.25Z"/><path class="cls-4" d="M43.25,2.32a4.42,4.42,0,0,0-3,1.29L3.61,33.85A4.49,4.49,0,0,0,10,40.19L43.25,13.27Z"/><path class="cls-5" d="M83.33,33.85,46.67,3.61a4.58,4.58,0,0,0-6.41,0L3.61,33.85A4.49,4.49,0,0,0,10,40.19l33.51-27.1L77,40.19a4.49,4.49,0,0,0,6.35-6.34Z"/><path class="cls-1" d="M36.69,68.78a2.3,2.3,0,0,1-2.3-2.3V48.62A5.58,5.58,0,0,1,40,43.05h7a5.58,5.58,0,0,1,5.57,5.57V66.48a2.3,2.3,0,0,1-2.3,2.3Z"/><path class="cls-2" d="M47,45.35a3.26,3.26,0,0,1,3.27,3.27V66.48H36.69V48.62A3.26,3.26,0,0,1,40,45.35h7m0-4.6H40a7.88,7.88,0,0,0-7.87,7.87V66.48a4.6,4.6,0,0,0,4.6,4.6H50.25a4.6,4.6,0,0,0,4.6-4.6V48.62A7.88,7.88,0,0,0,47,40.75Z"/><line class="cls-6" x1="63.17" y1="45.99" x2="63.17" y2="59.66"/></g></g></svg>