<svg xmlns="http://www.w3.org/2000/svg" viewBox="0 0 55.84 82.57"><defs><style>.cls-1{fill:#ffcb05;}.cls-2{fill:#42210b;}.cls-3{fill:#faa61a;}.cls-4{fill:none;stroke:#fff;stroke-linecap:round;stroke-linejoin:round;stroke-width:4.6px;}</style></defs><title>user_</title><g id="Capa_2" data-name="Capa 2"><g id="Layer_1" data-name="Layer 1"><path class="cls-1" d="M35,80.27a7.07,7.07,0,0,1-7-6.09,7.06,7.06,0,0,1-14.06-1l0-24.8L12.48,50a5.76,5.76,0,0,1-4,1.89h-.3a5.83,5.83,0,0,1-5.83-5.59A5.71,5.71,0,0,1,3.83,42l9.78-10.62A10.78,10.78,0,0,1,21.51,28H34.34a10.76,10.76,0,0,1,7.89,3.46L52,42a5.86,5.86,0,0,1-4.31,9.82h-.3a5.76,5.76,0,0,1-4.06-1.91l-1.4-1.49.17,24.75A7.15,7.15,0,0,1,35,80.27Z"/><path class="cls-2" d="M34.34,30.25A8.44,8.44,0,0,1,40.54,33l9.77,10.61a3.42,3.42,0,0,1,.93,2.57,3.55,3.55,0,0,1-3.54,3.39h-.19A3.43,3.43,0,0,1,45,48.38l-5.44-5.8.21,30.63A4.86,4.86,0,0,1,35,78a4.76,4.76,0,0,1-4.76-4.76V60.06H25.75V73.2a4.77,4.77,0,1,1-9.53,0l0-30.63L10.8,48.38a3.43,3.43,0,0,1-2.47,1.16H8.14A3.55,3.55,0,0,1,4.6,46.15a3.42,3.42,0,0,1,.93-2.57L15.3,33a8.46,8.46,0,0,1,6.21-2.72H34.34m0-4.6H21.51a13.08,13.08,0,0,0-9.59,4.2L2.14,40.46a8.16,8.16,0,0,0,6,13.68h.41a8.11,8.11,0,0,0,3.08-.74V73.2A9.36,9.36,0,0,0,28,79.42a9.41,9.41,0,0,0,16.43-6.08v-.17l-.14-19.75a8.25,8.25,0,0,0,3,.71h.41a8.16,8.16,0,0,0,6-13.66L43.92,29.85a13.06,13.06,0,0,0-9.58-4.2Z"/><path class="cls-3" d="M15.3,33,5.53,43.58a3.42,3.42,0,0,0-.93,2.57,3.48,3.48,0,0,0,1.16,2.47,3.44,3.44,0,0,0,2.57.92,3.43,3.43,0,0,0,2.47-1.16l5.44-5.81,0,30.63a4.77,4.77,0,1,0,9.53,0V60.06H28V30.25H21.51A8.46,8.46,0,0,0,15.3,33Z"/><path class="cls-1" d="M27.92,21.37a9.2,9.2,0,0,1-6.74-2.79,9.23,9.23,0,0,1-2.79-6.75,9.23,9.23,0,0,1,2.79-6.74,9.54,9.54,0,0,1,13.48,0,9.23,9.23,0,0,1,2.79,6.74,9.22,9.22,0,0,1-2.78,6.75A9.23,9.23,0,0,1,27.92,21.37Z"/><path class="cls-2" d="M27.92,4.6A7,7,0,0,1,33,6.71a7,7,0,0,1,2.11,5.12A7,7,0,0,1,33,17,7.24,7.24,0,0,1,22.8,17a7,7,0,0,1-2.11-5.12A7,7,0,0,1,22.8,6.71,7,7,0,0,1,27.92,4.6m0-4.6a11.61,11.61,0,0,0-8.37,3.46,11.61,11.61,0,0,0-3.46,8.37,11.64,11.64,0,0,0,3.46,8.38,11.88,11.88,0,0,0,16.74,0,11.61,11.61,0,0,0,3.46-8.38A11.81,11.81,0,0,0,27.92,0Z"/><path class="cls-3" d="M27.92,4.6A7,7,0,0,0,22.8,6.71a7,7,0,0,0-2.11,5.12A7,7,0,0,0,22.8,17a7,7,0,0,0,5.12,2.12Z"/><line class="cls-4" x1="31.56" y1="44.39" x2="31.56" y2="35.57"/><line class="cls-4" x1="29.76" y1="9.98" x2="28.21" y2="9.98"/></g></g></svg>