<svg xmlns="http://www.w3.org/2000/svg" xmlns:xlink="http://www.w3.org/1999/xlink" viewBox="0 0 167 167"><defs><style>.cls-1{fill:url(#Degradado_sin_nombre_31);}.cls-2{fill:#ba4ddb;}.cls-3{fill:#faffff;}.cls-4{fill:#8f3061;}.cls-5{fill:#46172c;}.cls-6{fill:#f9fefe;}.cls-7{fill:#722a85;}.cls-8{fill:none;stroke:#000;stroke-miterlimit:10;}.cls-9{fill:#fbfffa;}.cls-10{fill:#742d84;}.cls-11{fill:#713182;}</style><radialGradient id="Degradado_sin_nombre_31" cx="83.5" cy="83.5" r="83.5" gradientTransform="translate(0 -29.22) scale(1 1.35)" gradientUnits="userSpaceOnUse"><stop offset="0" stop-color="#da5cfb"/><stop offset="0.56" stop-color="#d85bf9"/><stop offset="0.76" stop-color="#d158f2"/><stop offset="0.9" stop-color="#c654e7"/><stop offset="1" stop-color="#b84ed9"/></radialGradient></defs><title>avatar4</title><g id="Capa_2" data-name="Capa 2"><g id="Capa_1-2" data-name="Capa 1"><rect class="cls-1" width="167" height="167"/><path class="cls-2" d="M116,50.14c-14.64,0-24.5,11.86-24.5,26.5s9.86,26.5,24.5,26.5,24.5-11.86,24.5-26.5S130.68,50.14,116,50.14Zm0,49.5a23,23,0,1,1,23-23A23,23,0,0,1,116,99.64Z"/><path class="cls-2" d="M80.5,81a25.08,25.08,0,0,1-3.38,12.61h-1a23.2,23.2,0,1,0-35.22,6.7l-1.13.58A25.21,25.21,0,1,1,80.5,81Z"/><circle class="cls-3" cx="116" cy="77" r="23"/><path class="cls-3" d="M79,83a22.92,22.92,0,0,1-2.8,11H60s-7.55-.63-18.17,7.11A23,23,0,1,1,79,83Z"/><circle class="cls-4" cx="107.5" cy="79.5" r="13.5"/><path class="cls-4" d="M78.5,83.5a13.47,13.47,0,0,1-5,10.5H60a13.69,13.69,0,0,0-3.17.25A13.5,13.5,0,1,1,78.5,83.5Z"/><path class="cls-5" d="M78,84a6,6,0,0,1-12,0,1.88,1.88,0,0,1,0-.34A3.35,3.35,0,0,0,67.5,84,3.5,3.5,0,0,0,71,80.5a3.47,3.47,0,0,0-.8-2.22A6,6,0,0,1,78,84Z"/><path class="cls-5" d="M106,81v0a6,6,0,1,1-6-6,5.91,5.91,0,0,1,3.34,1A3.35,3.35,0,0,0,103,77.5,3.5,3.5,0,0,0,106,81Z"/><path class="cls-6" d="M110,77.5a3.5,3.5,0,0,1-3.5,3.5,2.74,2.74,0,0,1-.5,0,3.5,3.5,0,0,1-3-3.46,3.35,3.35,0,0,1,.34-1.48A3.49,3.49,0,0,1,110,77.5Z"/><path class="cls-6" d="M71,80.5A3.5,3.5,0,0,1,67.5,84,3.35,3.35,0,0,1,66,83.66a3.49,3.49,0,1,1,5-3.16Z"/><path class="cls-7" d="M55,114s2-8,12-7C67,107,54,99,55,114Z"/><path class="cls-8" d="M84.66,125.74a31.69,31.69,0,0,1-12-3.82l-.1,0A35.75,35.75,0,0,1,60.6,110.7"/><path class="cls-9" d="M72.55,121.87c-2,2.81-5.69,5.13-8.55,5.13-4.14,0-5-5.86-5-10a12.38,12.38,0,0,1,1.6-6.3A35.75,35.75,0,0,0,72.55,121.87Z"/><path class="cls-9" d="M84.66,125.74c-1,2.89-4.15,6.26-6.66,6.26-3,0-6-4.46-6-7.5a5.37,5.37,0,0,1,.65-2.58A31.69,31.69,0,0,0,84.66,125.74Z"/><path class="cls-10" d="M65,52S38,38,29,70c0,0-3-9,3-13,0,0-8,2-4-6a15.81,15.81,0,0,1,12-5s-7-8,1-9c0,0,7,0,10,8,0,0,1-5,8-4S65,52,65,52Z"/><path class="cls-10" d="M93,54s4-18,20-19c0,0,12,0,18,10,0,0,2-13-9-12,0,0,1-15-13-1,0,0,0-11-8-4,0,0-5,6-4,11,0,0-5-7-6,1A26.64,26.64,0,0,0,93,54Z"/><path class="cls-11" d="M59.9,107.57a30.43,30.43,0,0,0,3.15,5,35.19,35.19,0,0,0,4,4.44,31.78,31.78,0,0,0,10.06,6.43,29.09,29.09,0,0,0,5.79,1.68c1,.21,2,.3,3,.43s2,.17,3,.15A44.44,44.44,0,0,0,101,124a44.79,44.79,0,0,1-12,2.19c-1,.07-2,0-3.08,0s-2.06-.14-3.08-.32a30.43,30.43,0,0,1-6-1.48,33.09,33.09,0,0,1-10.71-6.25,36.26,36.26,0,0,1-4.38-4.47,31.67,31.67,0,0,1-3.58-5.22Z"/></g></g></svg>