<svg xmlns="http://www.w3.org/2000/svg" xmlns:xlink="http://www.w3.org/1999/xlink" viewBox="0 0 167 167"><defs><style>.cls-1{fill:#1cb6d4;}.cls-2{fill:url(#Degradado_sin_nombre_34);}.cls-3{fill:#02a5d1;}.cls-4{fill:#faffff;}.cls-5{fill:#0f9fc2;}.cls-6{fill:#4f2742;}.cls-7{fill:#d6296a;}.cls-8{fill:#ec4089;}.cls-9{fill:#61223b;}.cls-10{fill:#f9fffd;}.cls-11{fill:#007389;}.cls-12{fill:none;stroke:#000;stroke-miterlimit:10;}.cls-13{fill:#fcfaf8;}.cls-14{fill:#f53684;}</style><radialGradient id="Degradado_sin_nombre_34" cx="83.5" cy="83.5" r="83.5" gradientTransform="translate(0 -33.4) scale(1 1.4)" gradientUnits="userSpaceOnUse"><stop offset="0" stop-color="#23cee8"/><stop offset="0.59" stop-color="#23cce7"/><stop offset="0.8" stop-color="#23c5e3"/><stop offset="0.95" stop-color="#22badb"/><stop offset="1" stop-color="#22b4d8"/></radialGradient></defs><title>avatar_1</title><g id="Capa_2" data-name="Capa 2"><g id="Capa_1-2" data-name="Capa 1"><path class="cls-1" d="M33.16,0A18.71,18.71,0,0,1,24.8,11.75C16.42,17.09,7.7,18.4,5.32,14.68,3.2,11.34,6.87,5.11,13.67,0Z"/><path class="cls-1" d="M146.5,158.5c0,2.49-5,6.5-7.5,6.5a4.5,4.5,0,0,1,0-9C141.49,156,146.5,156,146.5,158.5Z"/><path class="cls-1" d="M5.32,14.68C3.2,11.34,6.87,5.11,13.67,0H33.16A18.71,18.71,0,0,1,24.8,11.75C16.42,17.09,7.7,18.4,5.32,14.68Z"/><path class="cls-1" d="M146.5,158.5c0,2.49-5,6.5-7.5,6.5a4.5,4.5,0,0,1,0-9C141.49,156,146.5,156,146.5,158.5Z"/><rect class="cls-2" width="167" height="167"/><path class="cls-1" d="M32.5,32c0,5-5.41,8-9,8s-4-3-4-8,7.41-9,11-9S32.5,27,32.5,32Z"/><path class="cls-1" d="M154.5,17c0,6.35-3,8-10,12-5.51,3.15-12-2.15-12-8.5S138.15,9,144.5,9,154.5,10.65,154.5,17Z"/><path class="cls-1" d="M141.44,67.31c.1,1.93-3.21,6.68-5.14,6.79s-1.75-4.48-1.85-6.41,2.33-4.63,4.26-4.74S141.34,65.38,141.44,67.31Z"/><path class="cls-1" d="M156.5,130a7,7,0,0,1-7,7c-3.87,0-8-2.13-8-6s2.13-9,6-9S156.5,126.13,156.5,130Z"/><path class="cls-1" d="M35.5,148c0,6.08-8.92,10-15,10a11,11,0,0,1-11-11c0-6.08,8.92-12,15-12S35.5,141.92,35.5,148Z"/><path class="cls-1" d="M56.5,151.5c0,2.49-9,6.5-11.5,6.5a4.49,4.49,0,0,1-4.5-4.5c0-2.49,4-6.5,6.5-6.5S56.5,149,56.5,151.5Z"/><path class="cls-3" d="M86.5,68.5c-1.76,11.46-8.4,18-20,18s-20-9.4-20-21,8.43-20.23,20-21C81.5,43.5,88.5,55.5,86.5,68.5Z"/><path class="cls-3" d="M118.5,77.5c0,9.39-8.61,16-18,16s-15-7.61-15-17,5.61-17,15-17C112.5,59.5,118.5,68.11,118.5,77.5Z"/><path class="cls-4" d="M86,65.5A19.5,19.5,0,0,1,66.5,85C55.73,85,48,75.77,48,65s7.73-19,18.5-19A19.5,19.5,0,0,1,86,65.5Z"/><path class="cls-4" d="M117,76.5c0,8-7,15.5-15,15.5A15.3,15.3,0,0,1,87,75c.8-8,6.5-15,15-14C110,61.94,117,66,117,76.5Z"/><path class="cls-5" d="M37.87,91c1.29-.76,4.79-2.1,6.27-2,4.65.42,13.87,2,21.36,9.47,8.75,8.75,24.17,5.47,28.45,4.81a6.54,6.54,0,0,0,1.5-.41c4-1.58,24.09-9.44,31-8.45,7.64,1.09,15.45,18.49-.92,37.05s-57.29,19.52-78,2.06C27.41,116.67,19.61,101.82,37.87,91Z"/><path class="cls-6" d="M39.71,92.5a6.54,6.54,0,0,1,3.91-.88c4.26.39,14,2,20.88,8.88,8,8,26.33,5.72,30.25,5.12a5.91,5.91,0,0,0,1.37-.37c3.63-1.45,22.08-8.65,28.38-7.75,7,1,15,15,0,32s-57,18-76,2C30.13,116,23,102.42,39.71,92.5Z"/><path class="cls-7" d="M123.88,130.17c-7.94,8.39-22.64,12.67-37.59,12.73a77.7,77.7,0,0,1-12.79-1c-9.66-1.58-18.63-5-25-10.4A105,105,0,0,1,39.41,123,49.31,49.31,0,0,1,64.5,115.5c7.56,0,12.84,2.36,16.33,6.25,3.2-2.68,7.57-4.25,13.36-4.25C104.66,117.5,117.06,122.62,123.88,130.17Z"/><circle class="cls-8" cx="75.5" cy="68.5" r="9.5"/><circle class="cls-8" cx="95" cy="75" r="8"/><circle class="cls-9" cx="76.5" cy="68.5" r="4.5"/><circle class="cls-9" cx="94.5" cy="74.5" r="4.5"/><circle class="cls-10" cx="80.5" cy="67.5" r="2.5"/><circle class="cls-10" cx="98.5" cy="73.5" r="2.5"/><path class="cls-11" d="M49.5,34.5s27-9,37,13c0,0,7-11,4-19,0,0-3-3-9,2,0,0-1-15-11-14,0,0-5,1-4,9,0,0-12.27-11.32-16.64-1.89a4.07,4.07,0,0,0-.36,1.64Z"/><path class="cls-11" d="M98.5,52.5s20-5,25,16c0,0,10-11-3-17,0,0,8-6-2-10s-9,6-9,6-10-5-12-3S98.5,52.5,98.5,52.5Z"/><path class="cls-12" d="M50.61,57.67v0"/><path class="cls-12" d="M50.61,57.67v0"/><path class="cls-13" d="M39.5,113.5A11.61,11.61,0,0,1,37,120.21a30.61,30.61,0,0,1-6-10.37A6.48,6.48,0,0,1,33,109.5C36.59,109.5,39.5,109.91,39.5,113.5Z"/><path class="cls-13" d="M57.31,95.4a5.49,5.49,0,1,1-10.45-3.34A37.86,37.86,0,0,1,57.31,95.4Z"/><path class="cls-13" d="M70.37,104.17a9.35,9.35,0,0,1-5.87,2.33c-3.59,0-6-6.41-6-10a3.44,3.44,0,0,1,0-.46,26.78,26.78,0,0,1,6,4.46A16.79,16.79,0,0,0,70.37,104.17Z"/><path class="cls-13" d="M87.41,106.32c-.65,3.21-4.87,7.18-7.91,7.18-3.31,0-6-4.69-6-8a1.83,1.83,0,0,1,0-.33A49.56,49.56,0,0,0,87.41,106.32Z"/><path class="cls-13" d="M103.5,104.5c0,3.59-2.41,7-6,7-2.9,0-5.68-2.55-6.64-5.42,1.74-.15,3.1-.34,3.89-.46a5.91,5.91,0,0,0,1.37-.37c1.16-.46,3.81-1.51,7.1-2.69A7.05,7.05,0,0,1,103.5,104.5Z"/><path class="cls-13" d="M116.5,98.45v0c0,3-2,9-5,9s-6.91-2.41-7-5.4C108.26,100.79,112.64,99.37,116.5,98.45Z"/><path class="cls-13" d="M51.51,133.77l-.51-.35c-.36-.25-.72-.51-1.07-.78s-1-.75-1.43-1.14A105,105,0,0,1,39.41,123c-.43-.46-.84-.92-1.24-1.37a8.93,8.93,0,0,1,4.33-1.11q.68,0,1.32,0c4.35.19,7.68,1.45,7.68,6C51.5,128.54,51.66,131.27,51.51,133.77Z"/><path class="cls-13" d="M68.48,140.89l-.33-.08-1.57-.4c-.72-.2-1.44-.4-2.15-.63l-1.36-.43-.11,0-1.47-.52c-.58-.22-1.16-.44-1.72-.67s-1.06-.44-1.57-.67l-1.36-.63c-1.18-.57-2.31-1.18-3.4-1.82l-.37-.22a2.9,2.9,0,0,0-.29-.19l.3.18a14.21,14.21,0,0,1,7.42-4.27C65.25,129.55,68.2,136.85,68.48,140.89Z"/><path class="cls-13" d="M86.24,142.9h-.4l-1.48,0-1.33,0-1,0-1.32-.08-1.32-.1c-.44,0-.87-.07-1.31-.12l-.53-.06-1-.11c-.52-.06-1-.12-1.54-.2s-.94-.13-1.4-.21l-.13,0c-.64-.1-1.28-.22-1.91-.34l-1-.19h0a7,7,0,0,1,6.9-5.86C80.85,135.5,85.16,139.35,86.24,142.9Z"/><path class="cls-13" d="M102.36,141.12h0q-1.06.24-2.16.45c-.55.11-1.11.21-1.67.3-.83.14-1.66.26-2.5.37h0c-.91.12-1.83.23-2.75.31-1.56.15-3.14.25-4.73.3a2.17,2.17,0,0,1,0-.36,7,7,0,0,1,13.86-1.38Z"/><path class="cls-13" d="M119.69,133.8l-.5.36-.45.29-.81.53q-.66.42-1.35.81l-.86.48-1.07.56-1,.5-.15.07-.93.42-.22.1-1,.43c-1.44.59-3,1.12-4.5,1.6l-1.09.32-.13,0a4.28,4.28,0,0,1-.07-.81c0-3.87,2.13-9,6-9a10.69,10.69,0,0,1,7.68,3.65Z"/><path class="cls-13" d="M129.9,121.87a40.43,40.43,0,0,1-5.4,7.63c-.2.23-.41.45-.62.67s-.5.52-.76.77-.53.51-.81.75-.55.49-.84.73-.57.47-.87.7l-.08.06-.08.07-.35.26.34-.27a8,8,0,0,1-.93-3.74,7.84,7.84,0,0,1,.54-2.88,8,8,0,0,1,9.86-4.75Z"/><path class="cls-13" d="M39.5,113.5A11.61,11.61,0,0,1,37,120.21a30.61,30.61,0,0,1-6-10.37A6.48,6.48,0,0,1,33,109.5C36.59,109.5,39.5,109.91,39.5,113.5Z"/><path class="cls-13" d="M51.51,133.77l-.51-.35c-.36-.25-.72-.51-1.07-.78s-1-.75-1.43-1.14A105,105,0,0,1,39.41,123c-.43-.46-.84-.92-1.24-1.37a8.93,8.93,0,0,1,4.33-1.11q.68,0,1.32,0c4.35.19,7.68,1.45,7.68,6C51.5,128.54,51.66,131.27,51.51,133.77Z"/><path class="cls-13" d="M68.48,140.89l-.33-.08-1.57-.4c-.72-.2-1.44-.4-2.15-.63l-1.36-.43-.11,0-1.47-.52c-.58-.22-1.16-.44-1.72-.67s-1.06-.44-1.57-.67l-1.36-.63c-1.18-.57-2.31-1.18-3.4-1.82l-.37-.22a2.9,2.9,0,0,0-.29-.19l.3.18a14.21,14.21,0,0,1,7.42-4.27C65.25,129.55,68.2,136.85,68.48,140.89Z"/><path class="cls-13" d="M86.24,142.9h-.4l-1.48,0-1.33,0-1,0-1.32-.08-1.32-.1c-.44,0-.87-.07-1.31-.12l-.53-.06-1-.11c-.52-.06-1-.12-1.54-.2s-.94-.13-1.4-.21l-.13,0c-.64-.1-1.28-.22-1.91-.34l-1-.19h0a7,7,0,0,1,6.9-5.86C80.85,135.5,85.16,139.35,86.24,142.9Z"/><path class="cls-13" d="M102.36,141.12h0q-1.06.24-2.16.45c-.55.11-1.11.21-1.67.3-.83.14-1.66.26-2.5.37h0c-.91.12-1.83.23-2.75.31-1.56.15-3.14.25-4.73.3a2.17,2.17,0,0,1,0-.36,7,7,0,0,1,13.86-1.38Z"/><path class="cls-13" d="M119.18,134.15l.51-.35-.5.36-.45.29-.81.53q-.66.42-1.35.81l-.86.48-1.07.56-1,.5-.15.07-.93.42-.22.1-1,.43c-1.44.59-3,1.12-4.5,1.6l-1.09.32-.13,0a4.28,4.28,0,0,1-.07-.81c0-3.87,2.13-9,6-9A10.69,10.69,0,0,1,119.18,134.15Z"/><path class="cls-13" d="M127.5,121.5a7.93,7.93,0,0,1,2.4.37,40.43,40.43,0,0,1-5.4,7.63c-.2.23-.41.45-.62.67s-.5.52-.76.77-.53.51-.81.75-.55.49-.84.73-.57.47-.87.7l-.08.06-.08.07-.35.26.34-.27a8,8,0,0,1-.93-3.74,7.84,7.84,0,0,1,.54-2.88A8,8,0,0,1,127.5,121.5Z"/><path class="cls-13" d="M46.86,92.06A37.86,37.86,0,0,1,57.31,95.4a5.49,5.49,0,1,1-10.45-3.34Z"/><path class="cls-13" d="M64.5,100.5a16.79,16.79,0,0,0,5.87,3.67,9.35,9.35,0,0,1-5.87,2.33c-3.59,0-6-6.41-6-10a3.44,3.44,0,0,1,0-.46A26.78,26.78,0,0,1,64.5,100.5Z"/><path class="cls-13" d="M87.41,106.32c-.65,3.21-4.87,7.18-7.91,7.18-3.31,0-6-4.69-6-8a1.83,1.83,0,0,1,0-.33A49.56,49.56,0,0,0,87.41,106.32Z"/><path class="cls-13" d="M103.22,102.56a7.05,7.05,0,0,1,.28,1.94c0,3.59-2.41,7-6,7-2.9,0-5.68-2.55-6.64-5.42,1.74-.15,3.1-.34,3.89-.46a5.91,5.91,0,0,0,1.37-.37C97.28,104.79,99.93,103.74,103.22,102.56Z"/><path class="cls-13" d="M116.5,98.45v0c0,3-2,9-5,9s-6.91-2.41-7-5.4C108.26,100.79,112.64,99.37,116.5,98.45Z"/><path class="cls-13" d="M43.82,120.53c4.35.19,7.68,1.45,7.68,6,0,2,.16,4.77,0,7.27l-.51-.35c-.36-.25-.72-.51-1.07-.78s-1-.75-1.43-1.14A105,105,0,0,1,39.41,123"/><path class="cls-13" d="M68.48,140.89l-.33-.08-1.57-.4c-.72-.2-1.44-.4-2.15-.63l-1.36-.43-.11,0-1.47-.52c-.58-.22-1.16-.44-1.72-.67s-1.06-.44-1.57-.67l-1.36-.63c-1.18-.57-2.31-1.18-3.4-1.82l-.36-.23a14.21,14.21,0,0,1,7.42-4.27C65.25,129.55,68.2,136.85,68.48,140.89Z"/><path class="cls-13" d="M86.24,142.9h-.4l-1.48,0-1.33,0-1,0-1.32-.08-1.32-.1c-.44,0-.87-.07-1.31-.12l-.53-.06-1-.11c-.52-.06-1-.12-1.54-.2s-.94-.13-1.4-.21l-.13,0c-.64-.1-1.28-.22-1.91-.34l-1-.2a7,7,0,0,1,6.9-5.86C80.85,135.5,85.16,139.35,86.24,142.9Z"/><path class="cls-13" d="M102.36,141.12h0q-1.06.24-2.16.45c-.55.11-1.11.21-1.67.3-.83.14-1.66.26-2.5.37h0c-.91.12-1.83.23-2.75.31-1.56.15-3.14.25-4.73.3a2.17,2.17,0,0,1,0-.36,7,7,0,0,1,13.86-1.38Z"/><path class="cls-13" d="M119.18,134.15l-.44.3-.81.53q-.66.42-1.35.81l-.86.48-1.07.56-1,.5-.15.07-.93.42-.22.1-1,.43c-1.44.59-3,1.12-4.5,1.6l-1.09.32-.13,0a4.28,4.28,0,0,1-.07-.81c0-3.87,2.13-9,6-9A10.69,10.69,0,0,1,119.18,134.15Z"/><path class="cls-13" d="M120,126.62a7.84,7.84,0,0,0-.54,2.88,8,8,0,0,0,.93,3.74l.09-.06.08-.06c.3-.23.59-.46.87-.7s.57-.48.84-.73.54-.49.81-.75.51-.51.76-.77"/><path class="cls-13" d="M39.5,113.5A11.61,11.61,0,0,1,37,120.21a30.61,30.61,0,0,1-6-10.37A6.48,6.48,0,0,1,33,109.5C36.59,109.5,39.5,109.91,39.5,113.5Z"/><path class="cls-13" d="M51.51,133.77l-.51-.35c-.36-.25-.72-.51-1.07-.78s-1-.75-1.43-1.14A105,105,0,0,1,39.41,123c-.43-.46-.84-.92-1.24-1.37a8.93,8.93,0,0,1,4.33-1.11q.68,0,1.32,0c4.35.19,7.68,1.45,7.68,6C51.5,128.54,51.66,131.27,51.51,133.77Z"/><path class="cls-13" d="M68.48,140.89l-.33-.08-1.57-.4c-.72-.2-1.44-.4-2.15-.63l-1.36-.43-.11,0-1.47-.52c-.58-.22-1.16-.44-1.72-.67s-1.06-.44-1.57-.67l-1.36-.63c-1.18-.57-2.31-1.18-3.4-1.82l-.37-.22h0a14.21,14.21,0,0,1,7.42-4.27C65.25,129.55,68.2,136.85,68.48,140.89Z"/><path class="cls-13" d="M86.24,142.9h-.4l-1.48,0-1.33,0-1,0-1.32-.08-1.32-.1c-.44,0-.87-.07-1.31-.12l-.53-.06-1-.11c-.52-.06-1-.12-1.54-.2s-.94-.13-1.4-.21l-.13,0c-.64-.1-1.28-.22-1.91-.34l-1-.19h0a7,7,0,0,1,6.9-5.86C80.85,135.5,85.16,139.35,86.24,142.9Z"/><path class="cls-13" d="M102.36,141.12h0q-1.06.24-2.16.45c-.55.11-1.11.21-1.67.3-.83.14-1.66.26-2.5.37h0c-.91.12-1.83.23-2.75.31-1.56.15-3.14.25-4.73.3a2.17,2.17,0,0,1,0-.36,7,7,0,0,1,13.86-1.38Z"/><path class="cls-13" d="M119.19,134.16l-.45.29-.81.53q-.66.42-1.35.81l-.86.48-1.07.56-1,.5-.15.07-.93.42-.22.1-1,.43c-1.44.59-3,1.12-4.5,1.6l-1.09.32-.13,0a4.28,4.28,0,0,1-.07-.81c0-3.87,2.13-9,6-9a10.69,10.69,0,0,1,7.68,3.65Z"/><path class="cls-13" d="M129.9,121.87a40.43,40.43,0,0,1-5.4,7.63c-.2.23-.41.45-.62.67s-.5.52-.76.77-.53.51-.81.75-.55.49-.84.73-.57.47-.87.7l-.08.06-.08.07h0a8,8,0,0,1-.93-3.74,7.84,7.84,0,0,1,.54-2.88,8,8,0,0,1,9.86-4.75Z"/><path class="cls-13" d="M57.31,95.4a5.49,5.49,0,1,1-10.45-3.34A37.86,37.86,0,0,1,57.31,95.4Z"/><path class="cls-13" d="M70.37,104.17a9.35,9.35,0,0,1-5.87,2.33c-3.59,0-6-6.41-6-10a3.44,3.44,0,0,1,0-.46,26.78,26.78,0,0,1,6,4.46A16.79,16.79,0,0,0,70.37,104.17Z"/><path class="cls-13" d="M87.41,106.32c-.65,3.21-4.87,7.18-7.91,7.18-3.31,0-6-4.69-6-8a1.83,1.83,0,0,1,0-.33A49.56,49.56,0,0,0,87.41,106.32Z"/><path class="cls-13" d="M103.5,104.5c0,3.59-2.41,7-6,7-2.9,0-5.68-2.55-6.64-5.42,1.74-.15,3.1-.34,3.89-.46a5.91,5.91,0,0,0,1.37-.37c1.16-.46,3.81-1.51,7.1-2.69A7.05,7.05,0,0,1,103.5,104.5Z"/><path class="cls-13" d="M116.5,98.45v0c0,3-2,9-5,9s-6.91-2.41-7-5.4C108.26,100.79,112.64,99.37,116.5,98.45Z"/><path class="cls-14" d="M113.51,124.93c-.2,4.42-14.24,7.36-31.34,6.56s-30.8-5-30.59-9.45c.14-2.85,6-5.08,14.68-6.09a13.57,13.57,0,0,1,4.36.15,18.38,18.38,0,0,1,10.21,5.65c3.2-2.68,7.57-4.25,13.36-4.25a42.11,42.11,0,0,1,14.41,2.78C111.78,121.69,113.59,123.3,113.51,124.93Z"/><path class="cls-1" d="M30.5,23c3.59,0,2,4,2,9s-5.41,8-9,8-4-3-4-8S26.91,23,30.5,23Z"/><path class="cls-1" d="M35.5,148c0,6.08-8.92,10-15,10a11,11,0,0,1-11-11c0-6.08,8.92-12,15-12S35.5,141.92,35.5,148Z"/><path class="cls-1" d="M56.5,151.5c0,2.49-9,6.5-11.5,6.5a4.49,4.49,0,0,1-4.5-4.5c0-2.49,4-6.5,6.5-6.5S56.5,149,56.5,151.5Z"/><path class="cls-1" d="M134.45,67.69c-.1-1.93,2.33-4.63,4.26-4.74s2.63,2.43,2.73,4.36S138.23,74,136.3,74.1,134.55,69.62,134.45,67.69Z"/><path class="cls-1" d="M132.5,20.5c0-6.35,5.65-11.5,12-11.5s10,1.65,10,8-3,8-10,12C139,32.15,132.5,26.85,132.5,20.5Z"/><path class="cls-1" d="M156.5,130a7,7,0,0,1-7,7c-3.87,0-8-2.13-8-6s2.13-9,6-9S156.5,126.13,156.5,130Z"/></g></g></svg>