<svg xmlns="http://www.w3.org/2000/svg" xmlns:xlink="http://www.w3.org/1999/xlink" viewBox="0 0 166.36 166.21"><defs><style>.cls-1{fill:url(#Degradado_sin_nombre_39);}.cls-2{fill:#de538b;opacity:0.5;}.cls-3{fill:#c73d5e;}.cls-4{fill:#e22d58;}.cls-5{fill:#f73b73;}.cls-6{fill:#e5557b;}.cls-7{fill:#f9fcfd;}.cls-8{fill:#23c9e7;}.cls-9{fill:#14606e;}.cls-10{fill:#f1f2fd;}.cls-11{fill:#ae244c;}.cls-12{fill:#fffaf9;}.cls-13{fill:#b72c55;}.cls-14{fill:#fb5391;}.cls-15{fill:#bf345c;}</style><radialGradient id="Degradado_sin_nombre_39" cx="83.18" cy="83.1" r="83.14" gradientTransform="translate(0 -74.79) scale(1 1.9)" gradientUnits="userSpaceOnUse"><stop offset="0" stop-color="#f7628c"/><stop offset="0.53" stop-color="#f5618b"/><stop offset="0.71" stop-color="#ee5b8a"/><stop offset="0.85" stop-color="#e35286"/><stop offset="0.96" stop-color="#d24581"/><stop offset="1" stop-color="#c93e7f"/></radialGradient></defs><title>avatar5_1</title><g id="Capa_2" data-name="Capa 2"><g id="Capa_1-2" data-name="Capa 1"><path class="cls-1" d="M.36,11.73V0h166V166.21c-.12,0-166.24,0-166.36-.05"/><path class="cls-2" d="M166.36,20.65V45c-5.92,1.07-14.32-1.58-21.87-7.42-10.68-8.26-15.59-19.8-11-25.78s17-4.11,27.71,4.16A42.24,42.24,0,0,1,166.36,20.65Z"/><path class="cls-2" d="M14.35,35.26c-4.24,5.48-9.68,8.83-14,9.08V11.73c4.3-3.85,9.16-5.25,11.94-3.1,1.51,1.17,2.16,3.19,2,5.61a6,6,0,0,1,3,1.19C21.6,18.73,20.27,27.62,14.35,35.26Z"/><ellipse class="cls-2" cx="115.46" cy="22.51" rx="7.12" ry="12.74" transform="translate(44.47 116.31) rotate(-63.91)"/><path class="cls-2" d="M29.9,166H.36V145.71A14.18,14.18,0,0,1,4.66,150c1.27-2.56,3.25-4.15,5.28-3.91,2.32.29,4,2.88,4.41,6.31a10.42,10.42,0,0,1,3.65-.21C23.87,152.86,28.35,158.46,29.9,166Z"/><path class="cls-2" d="M166.36,108.21V151a10.86,10.86,0,0,1-5.64.86c-6.84-.82-11.78-8.28-12.42-17.7-2,2.6-4.29,4-6.45,3.54-4-.86-6-7.9-4.33-15.74s6.3-13.48,10.35-12.62c2.4.51,4,3.18,4.66,6.9,3.39-5.44,8.35-8.68,13.47-8.06Z"/><path class="cls-2" d="M129,166H109.84a26.46,26.46,0,0,1,3.11-3.17c6-5.24,13.16-7,15.87-3.82C130.21,160.61,130.17,163.18,129,166Z"/><path class="cls-3" d="M102.38,119.38c-.29,1.16,1.05,7.22,2.16,11.8a21.23,21.23,0,0,1-.45,11.85c-2.29,6.65-6.16,8.67-24.23,9.45-23,1-20-16-18-24S60.61,117,60.61,117l3.4-4.22s13.85,6.73,33.85,1.73Z"/><path class="cls-4" d="M103.36,136c-.76,3.31-2.49,9.58-6.68,11.14C86.13,152.3,75,149.25,75,149.25c-13-4-13-13-13-13-1-5,1.54-11.86,4.32-17.38.77-1.53,1.55-3,2.28-4.21,1.1.3,2.23.57,3.39.8a62.86,62.86,0,0,0,25.53-.56l.93,1.16a17.84,17.84,0,0,1,3.18,6,61.13,61.13,0,0,1,1.75,9.87A11.68,11.68,0,0,1,103.36,136Z"/><path class="cls-5" d="M102.73,125.72h0"/><path class="cls-5" d="M103.36,136a33.36,33.36,0,0,0,0-4A11.68,11.68,0,0,1,103.36,136Z"/><path class="cls-5" d="M103.21,136.63c-.11.47-.23,1-.37,1.49h0C103,137.59,103.09,137.09,103.21,136.63Z"/><path class="cls-5" d="M103.36,132a33.36,33.36,0,0,1,0,4l-.15.65c-.12.46-.24,1-.39,1.49l-.95.25c-3.6.9-17,1-19.67.85a34.82,34.82,0,0,1-4.24-.51c-.81-.16-1.26-.28-1.26-.28-1-.3-4.88.37-5.7,0-5-2.14-7.45-5.14-8.59-7.52-.11-.22-.21-.43-.29-.64a45.26,45.26,0,0,1,4.18-11.4q.42-.84.84-1.62a11.52,11.52,0,0,1,3.86-.67c6.24,0,11.31,5.44,11.39,12.18,2-5.79,7.09-10.28,12.35-10.28,1.16,0,3.17.06,5.45.24a16.54,16.54,0,0,1,1.42,3.39c.5,1.7.86,2.85,1.12,3.6h0Z"/><path class="cls-5" d="M103.21,136.63c-.11.47-.23,1-.37,1.49h0C103,137.59,103.09,137.09,103.21,136.63Z"/><path class="cls-5" d="M102.73,125.72h0"/><path class="cls-5" d="M103.36,136a33.36,33.36,0,0,0,0-4A11.68,11.68,0,0,1,103.36,136Z"/><path class="cls-6" d="M117.36,82c0,14.36-8.64,26-23,26s-24-11.64-24-26,9.64-26,24-26S117.36,67.62,117.36,82Z"/><path class="cls-7" d="M115.86,82.48c0,11.6-10.4,22-22,22s-22-11.4-22-23,10.4-21,22-21S115.86,70.89,115.86,82.48Z"/><circle class="cls-8" cx="95.86" cy="82.48" r="14.5"/><circle class="cls-9" cx="96.36" cy="81.98" r="5"/><circle class="cls-10" cx="101.36" cy="78.98" r="3"/><path class="cls-11" d="M55.86,25.48s14-11,18,14c0,0,11.5-18.5.5-15.5,0,0,0-17-7-8,0,0-4-10-7,1C60.36,17,53.36,8,55.86,25.48Z"/><path class="cls-11" d="M134.36,63s-15-18-44-17c0,0,22-17,18-5,0,0,22-10,16,3,0,0,20-1,7,9C131.36,53,142.36,54,134.36,63Z"/><path class="cls-12" d="M48.66,103.28a6,6,0,0,1-5.3,3.7c-3.31,0-5-3.13-5-7a8,8,0,0,1,2-5.84A59.7,59.7,0,0,0,48.66,103.28Z"/><path class="cls-12" d="M106.81,119.2a8.6,8.6,0,0,1-6-.93l-2.91-3.64,1.13-.26c1.74-.39,3.53-.85,5.35-1.39a35.49,35.49,0,0,0,8.21-3.58,4.87,4.87,0,0,1,.62,1.61C113.93,114.67,111.07,118.33,106.81,119.2Z"/><path class="cls-12" d="M64,112.75A7.51,7.51,0,0,1,56.86,118c-4.14,0-8.5-5.86-8.5-10a4,4,0,0,1,1.72-3.48A49.8,49.8,0,0,0,64,112.75Z"/><path class="cls-12" d="M66.68,118.6a4,4,0,0,1-1.83-5.53A42.91,42.91,0,0,0,69,114.39Z"/><path class="cls-13" d="M28.36,76s1-3,5-1C33.36,75,28.36,69,28.36,76Z"/><path class="cls-13" d="M119.36,101s4-3,5,2C124.36,103,126.36,93,119.36,101Z"/><path class="cls-12" d="M32.43,79.39S26.36,91,32.36,92s6.76,0,6.76,0S32.49,80.8,32.43,79.39Z"/><path class="cls-14" d="M81.36,139a1.09,1.09,0,0,0,0-.18c2.15-6.09,7.47-10.82,13-10.82,4,0,6.63.68,9,4a33.36,33.36,0,0,1,0,4c-.76,3.31-2.11,9.31-6.3,10.87a28,28,0,0,1-5.72,2.07,34.49,34.49,0,0,1-10.19.89,35.36,35.36,0,0,1-4.46-.54c-.85-.16-1.33-.29-1.33-.29a25.23,25.23,0,0,1-2.84-1c-10.16-4.31-10.16-12-10.16-12a14.65,14.65,0,0,1-.06-4.78v0c1-3.16,3.12-5.2,7-5.2,6.57,0,11.91,5.72,12,12.82"/><path class="cls-6" d="M60.23,67.47c-6,10.67-14.61,18.2-19.31,15.57s-5.66-13.4.31-24.08,15.61-19.19,20.3-16.57S66.2,56.8,60.23,67.47Z"/><ellipse class="cls-10" cx="51.74" cy="63.6" rx="20.81" ry="9.16" transform="translate(-29.02 77.72) rotate(-60.79)"/><ellipse class="cls-8" cx="54.91" cy="65.24" rx="12.85" ry="5.66" transform="translate(-28.83 81.32) rotate(-60.79)"/><ellipse class="cls-9" cx="59.13" cy="64.55" rx="4.89" ry="2.15" transform="translate(-26.07 84.66) rotate(-60.79)"/><ellipse class="cls-10" cx="59.62" cy="62.43" rx="2.04" ry="0.9" transform="translate(-23.97 84) rotate(-60.79)"/><path class="cls-15" d="M30.86,75.1a76.61,76.61,0,0,0,6.55,12.74A70.69,70.69,0,0,0,46.1,99,54.43,54.43,0,0,0,57,107.82a46.23,46.23,0,0,0,12.84,5.31,49.33,49.33,0,0,0,13.87,1.44,91.4,91.4,0,0,0,14.11-1.4c1.17-.19,2.31-.49,3.46-.72s2.3-.57,3.41-.94a45.85,45.85,0,0,0,6.61-2.51,34.56,34.56,0,0,0,11.36-8.44A31.35,31.35,0,0,1,112,110.31a51.18,51.18,0,0,1-13.68,5.15,82.24,82.24,0,0,1-14.48,2A50.62,50.62,0,0,1,69.13,116a48.09,48.09,0,0,1-13.61-5.81,52.58,52.58,0,0,1-11.13-9.62,61,61,0,0,1-4.49-5.79,72.36,72.36,0,0,1-3.76-6.25A60.7,60.7,0,0,1,30.86,75.1Z"/></g></g></svg>