<svg xmlns="http://www.w3.org/2000/svg" xmlns:xlink="http://www.w3.org/1999/xlink" viewBox="0 0 165 165"><defs><style>.cls-1{fill:url(#Degradado_sin_nombre_7);}.cls-2{fill:#065c19;}.cls-3{fill:#fff;}.cls-4{fill:#0a72c0;}.cls-5{fill:#043459;}</style><radialGradient id="Degradado_sin_nombre_7" cx="82.5" cy="82.5" r="82.5" gradientTransform="translate(0 -66) scale(1 1.8)" gradientUnits="userSpaceOnUse"><stop offset="0" stop-color="#3cd854"/><stop offset="1" stop-color="#0db831"/></radialGradient></defs><title>avatar6_1</title><g id="Capa_2" data-name="Capa 2"><g id="Capa_1-2" data-name="Capa 1"><rect class="cls-1" width="165" height="165"/><path class="cls-2" d="M84.78,122.48c.24,1,.57,2.14.91,3.2s.74,2.13,1.17,3.17a22.4,22.4,0,0,0,1.49,3,9,9,0,0,0,2.15,2.62,9.71,9.71,0,0,1-3.09-1.79,24.85,24.85,0,0,1-2.64-2.49c-.83-.88-1.62-1.8-2.37-2.74s-1.47-1.89-2.18-3Z"/><path class="cls-2" d="M103.84,111.82a27.4,27.4,0,0,1,2.49,1.88c.78.63,1.52,1.3,2.24,2a40.52,40.52,0,0,1,4,4.39,30,30,0,0,1,3.13,5,21,21,0,0,1,1.79,5.46,21,21,0,0,0-3-4.64,28.88,28.88,0,0,0-4-3.67,37.89,37.89,0,0,0-4.55-2.88c-.78-.42-1.58-.82-2.39-1.18a23.77,23.77,0,0,0-2.36-.95Z"/><path class="cls-2" d="M62.65,118.27a34.49,34.49,0,0,0-3.84,1.09,31.61,31.61,0,0,0-3.76,1.55,16.32,16.32,0,0,0-3.4,2.19,6.09,6.09,0,0,0-2.15,3.4,6.81,6.81,0,0,1,1-4.33,18.29,18.29,0,0,1,2.77-3.65,33.68,33.68,0,0,1,3.35-3.08,39.4,39.4,0,0,1,3.76-2.71Z"/><path class="cls-2" d="M77.37,119.84c-.21.1-.56.34-.86.53s-.61.43-.91.67a19,19,0,0,0-1.74,1.51A17.77,17.77,0,0,0,71,126.16a12.62,12.62,0,0,0-1.64,4.4,12.92,12.92,0,0,0,.17,4.94,13.8,13.8,0,0,1-1.67-5,15,15,0,0,1,.35-5.48,21.73,21.73,0,0,1,2.07-5.19,22.92,22.92,0,0,1,1.5-2.4c.27-.39.56-.76.86-1.15a13.67,13.67,0,0,1,1-1.16Z"/><path class="cls-3" d="M129.5,54c0,16.5-11,24.5-24.5,24.5S75.5,62,75.5,48.5s11.47-21,25-21S129.5,40.17,129.5,54Z"/><path class="cls-3" d="M74.5,57.5c-.7,9.09-8.39,20-17.5,20S38.5,66.5,38.5,58c0-9.71,9-26.5,23-23.5C70.41,36.41,75.5,44.5,74.5,57.5Z"/><path class="cls-4" d="M99.5,55a9.5,9.5,0,0,1-19,0,9.6,9.6,0,0,1,1-4.28,2.62,2.62,0,0,0,0,.28A4.49,4.49,0,0,0,86,55.5a4.41,4.41,0,0,0,.52,0,4.5,4.5,0,0,0,4-4.47c0-.16,0-.32,0-.47a4.5,4.5,0,0,0-4.48-4h-.28a9.6,9.6,0,0,1,4.28-1A9.5,9.5,0,0,1,99.5,55Z"/><path class="cls-4" d="M74,55.5c0,4.42-2.58,7-7,7-3.48,0-5.51-3.1-6-6.38A3,3,0,0,0,65.5,53.5a4.79,4.79,0,0,0-.66-2.25A2.93,2.93,0,0,0,62.5,49.5a1.59,1.59,0,0,0-.48.07A5.9,5.9,0,0,1,63.5,47.5c.86-.73,1.68-1,3.5-1C71.42,46.5,74,51.08,74,55.5Z"/><path class="cls-5" d="M95.5,55a4.5,4.5,0,0,1-9,.47,4.5,4.5,0,0,0,4-4.47c0-.16,0-.32,0-.47a4.41,4.41,0,0,1,.52,0A4.49,4.49,0,0,1,95.5,55Z"/><path class="cls-5" d="M69.5,55c0,1.93-1.07,2.5-3,2.5A2.72,2.72,0,0,1,64,56.09,3,3,0,0,0,65.5,53.5a4.79,4.79,0,0,0-.66-2.25A3.47,3.47,0,0,1,67,50.5C68.93,50.5,69.5,53.07,69.5,55Z"/><path class="cls-3" d="M65.5,53.5a3,3,0,1,1-6,0C59.5,52,60.59,50,62,49.57a1.59,1.59,0,0,1,.48-.07,2.93,2.93,0,0,1,2.34,1.75A4.79,4.79,0,0,1,65.5,53.5Z"/><path class="cls-3" d="M90.5,51a4.5,4.5,0,0,1-4,4.47,4.41,4.41,0,0,1-.52,0A4.49,4.49,0,0,1,81.5,51a2.62,2.62,0,0,1,0-.28,9.62,9.62,0,0,1,4.21-4.21H86a4.5,4.5,0,0,1,4.48,4C90.49,50.68,90.5,50.84,90.5,51Z"/><path class="cls-3" d="M47,100.19c-3.42,3.16-10.71,9-13,6.81s1.77-13.07,4.39-16.5A50.41,50.41,0,0,0,47,100.19Z"/><path class="cls-3" d="M92,115a10,10,0,0,1-10,10c-4.24,0-9-4.41-11-9-3.28,1.77-7.12,3-9.45,3-4.69,0-8.5-4.81-8.5-9.5a8.4,8.4,0,0,1,1.06-4.1,51.45,51.45,0,0,0,16,6.29q2.65.57,5.56.92,2.61.3,5.43.39a79.09,79.09,0,0,0,10.71-.38A9.82,9.82,0,0,1,92,115Z"/><path class="cls-3" d="M94.37,112.3c1.45,4.07,7.06,10.7,10.13,10.7,3.59,0,6.5-7.91,6.5-11.5a7.62,7.62,0,0,0-1-3.46l-.57.25a63.14,63.14,0,0,1-14.33,3.91l-.7.1c-.87.12-1.76.23-2.66.32"/><path class="cls-3" d="M121.87,101.94l-.19.14c1.6,2,4.37,3.92,6.32,3.92,3.31,0,5-3.69,5-7,0-1.53-1.17-3.51-2.38-4.84l0,0A57.58,57.58,0,0,1,121.87,101.94Z"/><path class="cls-3" d="M139.71,81.45c-.1.2-.21.39-.32.59a65.52,65.52,0,0,1-8,11.28c-.22.25-.44.5-.67.74a16.35,16.35,0,0,0,4.78.94,4.49,4.49,0,0,0,4.5-4.5C140,89.29,140,84.75,139.71,81.45Z"/><path class="cls-2" d="M11,61l8.86-5.25.42-.25V56l.29,13L20,68.42l10-.2.92,0-.15.94L28,86.18,26.88,85l9-1.11.8-.1.39.79a41.12,41.12,0,0,0,4.13,6.53l1.2,1.53,1.29,1.47c.82,1,1.79,1.89,2.7,2.82a48,48,0,0,0,12.75,8.84c.58.27,1.15.6,1.75.84l1.82.7a29,29,0,0,0,3.67,1.29l3.75,1,3.84.67c.64.1,1.28.26,1.93.31l2,.14c1.3.09,2.6.22,3.9.28l3.93,0,2,0,2-.16c1.3-.11,2.61-.19,3.91-.33l3.87-.62a33.33,33.33,0,0,0,3.82-.83,32.16,32.16,0,0,0,3.76-1A54.19,54.19,0,0,0,119,101.32,61.67,61.67,0,0,0,139.52,78l.17-.34.32-.15,8.05-3.9L147.65,75l-6.81-12.12-.48-.86.92-.25L151.35,59l-.34.73-3.8-9.09-.48-1.16,1,.78c3,2.39,5.88,4.83,8.81,7.25-3.07-2.25-6.15-4.48-9.19-6.75l.48-.38,4.2,8.91.25.54-.59.19-9.93,3.22.44-1.11L149.35,74l.54.89-.95.49L141,79.48l.49-.49a67.73,67.73,0,0,1-8.8,13.68,59.58,59.58,0,0,1-12.1,11c-1.16.72-2.27,1.54-3.48,2.18s-2.4,1.32-3.62,1.94l-3.76,1.63c-1.26.53-2.58.91-3.87,1.36a34,34,0,0,1-3.94,1.12c-1.33.31-2.64.71-4,.89l-4,.66c-1.36.15-2.72.24-4.07.36l-2,.17-2,0H81.66c-1.36-.07-2.72-.2-4.09-.3l-2-.17c-.68-.05-1.35-.22-2-.33l-4.05-.73-3.95-1.12A31.25,31.25,0,0,1,61.64,110l-1.92-.76c-.63-.26-1.23-.61-1.84-.91a50.49,50.49,0,0,1-13.33-9.51,47.72,47.72,0,0,1-9.61-13.31l1.19.69-9,.89-1.42.14L26,85.82l3.26-17,.77.92-10-.2-.59,0V69l.29-13,.43.25Z"/></g></g></svg>